<?xml version="1.0" encoding="UTF-8" standalone="no"?><!DOCTYPE svg PUBLIC "-//W3C//DTD SVG 1.1//EN" "http://www.w3.org/Graphics/SVG/1.1/DTD/svg11.dtd"><!-- Generated by graphviz version 2.40.1 (20161225.0304)
 --><!-- Title: G Pages: 1 --><svg xmlns="http://www.w3.org/2000/svg" xmlns:xlink="http://www.w3.org/1999/xlink" width="1140pt" height="695pt" viewBox="0.00 0.00 1139.57 695.00">
<g id="graph0" class="graph" transform="scale(1 1) rotate(0) translate(4 691)">
<title>G</title>
<polygon fill="#ffffff" stroke="transparent" points="-4,4 -4,-691 1135.5736,-691 1135.5736,4 -4,4"/>
<g id="clust1" class="cluster">
<title>cluster_Test_Coverage</title>
<polygon fill="#d3d3d3" stroke="#d3d3d3" points="161.7419,-532 161.7419,-679 850.1839,-679 850.1839,-532 161.7419,-532"/>
<text text-anchor="middle" x="505.9629" y="-662.4" font-family="Times,serif" font-size="14.00" fill="#000000">Test coverage</text>
</g>
<g id="clust2" class="cluster">
<title>cluster_Infer</title>
<polygon fill="#d3d3d3" stroke="#d3d3d3" points="334.3823,-401 334.3823,-524 833.9606,-524 833.9606,-401 334.3823,-401"/>
<text text-anchor="middle" x="584.1715" y="-507.4" font-family="Times,serif" font-size="14.00" fill="#000000">Infer#</text>
</g>
<g id="clust3" class="cluster">
<title>cluster_SonarCloud</title>
<polygon fill="#d3d3d3" stroke="#d3d3d3" points="136.9952,-270 136.9952,-393 430.1813,-393 430.1813,-270 136.9952,-270"/>
<text text-anchor="middle" x="283.5882" y="-376.4" font-family="Times,serif" font-size="14.00" fill="#000000">Sonar Cloud</text>
</g>
<g id="clust4" class="cluster">
<title>cluster_TestAndDeploy</title>
<polygon fill="#d3d3d3" stroke="#d3d3d3" points="157.6237,-115 157.6237,-262 1123.5736,-262 1123.5736,-115 157.6237,-115"/>
<text text-anchor="middle" x="640.5987" y="-245.4" font-family="Times,serif" font-size="14.00" fill="#000000">Test and Deploy</text>
</g>
<g id="clust5" class="cluster">
<title>cluster_Report</title>
<polygon fill="#d3d3d3" stroke="#d3d3d3" points="148.5697,-8 148.5697,-107 465.5626,-107 465.5626,-8 148.5697,-8"/>
<text text-anchor="middle" x="307.0661" y="-90.4" font-family="Times,serif" font-size="14.00" fill="#000000">Report</text>
</g>
<!-- Setup\n.NET -->
<g id="node1" class="node">
<title>Setup\n.NET</title>
<ellipse fill="#ffffff" stroke="#ffffff" cx="203.6037" cy="-575" rx="33.7241" ry="29.3315"/>
<text text-anchor="middle" x="203.6037" y="-579.2" font-family="Times,serif" font-size="14.00" fill="#000000">Setup</text>
<text text-anchor="middle" x="203.6037" y="-562.4" font-family="Times,serif" font-size="14.00" fill="#000000">.NET</text>
</g>
<!-- Collect\ntest\ncoverage -->
<g id="node2" class="node">
<title>Collect\ntest\ncoverage</title>
<ellipse fill="#ffffff" stroke="#ffffff" cx="377.8874" cy="-581" rx="47.0721" ry="41.0911"/>
<text text-anchor="middle" x="377.8874" y="-593.6" font-family="Times,serif" font-size="14.00" fill="#000000">Collect</text>
<text text-anchor="middle" x="377.8874" y="-576.8" font-family="Times,serif" font-size="14.00" fill="#000000">test</text>
<text text-anchor="middle" x="377.8874" y="-560" font-family="Times,serif" font-size="14.00" fill="#000000">coverage</text>
</g>
<!-- Setup\n.NET&#45;&gt;Collect\ntest\ncoverage -->
<g id="edge1" class="edge">
<title>Setup\n.NET-&gt;Collect\ntest\ncoverage</title>
<path fill="none" stroke="#000000" d="M237.6211,-576.1711C261.1623,-576.9815 293.0678,-578.0799 320.5018,-579.0244"/>
<polygon fill="#000000" stroke="#000000" points="320.6559,-582.5317 330.7704,-579.3779 320.8968,-575.5358 320.6559,-582.5317"/>
</g>
<!-- Generate\ncoverage\nreport -->
<g id="node3" class="node">
<title>Generate\ncoverage\nreport</title>
<ellipse fill="#ffffff" stroke="#ffffff" cx="590.446" cy="-587" rx="47.0721" ry="41.0911"/>
<text text-anchor="middle" x="590.446" y="-599.6" font-family="Times,serif" font-size="14.00" fill="#000000">Generate</text>
<text text-anchor="middle" x="590.446" y="-582.8" font-family="Times,serif" font-size="14.00" fill="#000000">coverage</text>
<text text-anchor="middle" x="590.446" y="-566" font-family="Times,serif" font-size="14.00" fill="#000000">report</text>
</g>
<!-- Collect\ntest\ncoverage&#45;&gt;Generate\ncoverage\nreport -->
<g id="edge2" class="edge">
<title>Collect\ntest\ncoverage-&gt;Generate\ncoverage\nreport</title>
<path fill="none" stroke="#000000" d="M425.0611,-582.3316C456.9834,-583.2327 499.337,-584.4282 533.1915,-585.3838"/>
<polygon fill="#000000" stroke="#000000" points="533.3094,-588.8885 543.4043,-585.6721 533.507,-581.8913 533.3094,-588.8885"/>
</g>
<!-- Upload\ncoverage\ninfo\nto Coveralls -->
<g id="node4" class="node">
<title>Upload\ncoverage\ninfo\nto Coveralls</title>
<ellipse fill="#ffffff" stroke="#ffffff" cx="782.7567" cy="-593" rx="59.3546" ry="53.3494"/>
<text text-anchor="middle" x="782.7567" y="-614" font-family="Times,serif" font-size="14.00" fill="#000000">Upload</text>
<text text-anchor="middle" x="782.7567" y="-597.2" font-family="Times,serif" font-size="14.00" fill="#000000">coverage</text>
<text text-anchor="middle" x="782.7567" y="-580.4" font-family="Times,serif" font-size="14.00" fill="#000000">info</text>
<text text-anchor="middle" x="782.7567" y="-563.6" font-family="Times,serif" font-size="14.00" fill="#000000">to Coveralls</text>
</g>
<!-- Generate\ncoverage\nreport&#45;&gt;Upload\ncoverage\ninfo\nto Coveralls -->
<g id="edge3" class="edge">
<title>Generate\ncoverage\nreport-&gt;Upload\ncoverage\ninfo\nto Coveralls</title>
<path fill="none" stroke="#000000" d="M637.4905,-588.4678C660.1644,-589.1752 687.8185,-590.038 712.8899,-590.8202"/>
<polygon fill="#000000" stroke="#000000" points="712.9815,-594.3247 723.0858,-591.1383 713.1998,-587.3281 712.9815,-594.3247"/>
</g>
<!-- Merge\nbutton\nenabled -->
<g id="node18" class="node">
<title>Merge\nbutton\nenabled</title>
<ellipse fill="none" stroke="#000000" cx="930.7349" cy="-376" rx="42.1946" ry="41.0911"/>
<text text-anchor="middle" x="930.7349" y="-388.6" font-family="Times,serif" font-size="14.00" fill="#000000">Merge</text>
<text text-anchor="middle" x="930.7349" y="-371.8" font-family="Times,serif" font-size="14.00" fill="#000000">button</text>
<text text-anchor="middle" x="930.7349" y="-355" font-family="Times,serif" font-size="14.00" fill="#000000">enabled</text>
</g>
<!-- Upload\ncoverage\ninfo\nto Coveralls&#45;&gt;Merge\nbutton\nenabled -->
<g id="edge14" class="edge">
<title>Upload\ncoverage\ninfo\nto Coveralls-&gt;Merge\nbutton\nenabled</title>
<path fill="none" stroke="#000000" d="M825.563,-555.7271C834.2573,-547.0971 842.9452,-537.6112 850.1839,-528 874.6083,-495.5706 895.8065,-454.7226 910.3178,-423.5407"/>
<polygon fill="#000000" stroke="#000000" points="913.617,-424.7427 914.6028,-414.1938 907.2538,-421.8255 913.617,-424.7427"/>
</g>
<!-- Setup\n.NET  -->
<g id="node5" class="node">
<title>Setup\n.NET </title>
<ellipse fill="#ffffff" stroke="#ffffff" cx="377.8874" cy="-438" rx="35.5102" ry="29.3315"/>
<text text-anchor="middle" x="377.8874" y="-442.2" font-family="Times,serif" font-size="14.00" fill="#000000">Setup</text>
<text text-anchor="middle" x="377.8874" y="-425.4" font-family="Times,serif" font-size="14.00" fill="#000000">.NET </text>
</g>
<!-- Run\nchecks -->
<g id="node6" class="node">
<title>Run\nchecks</title>
<ellipse fill="#ffffff" stroke="#ffffff" cx="590.446" cy="-444" rx="38.4941" ry="29.3315"/>
<text text-anchor="middle" x="590.446" y="-448.2" font-family="Times,serif" font-size="14.00" fill="#000000">Run</text>
<text text-anchor="middle" x="590.446" y="-431.4" font-family="Times,serif" font-size="14.00" fill="#000000">checks</text>
</g>
<!-- Setup\n.NET &#45;&gt;Run\nchecks -->
<g id="edge4" class="edge">
<title>Setup\n.NET -&gt;Run\nchecks</title>
<path fill="none" stroke="#000000" d="M413.465,-439.0043C448.6155,-439.9965 502.6498,-441.5217 541.7671,-442.6259"/>
<polygon fill="#000000" stroke="#000000" points="541.7776,-446.1275 551.8724,-442.9112 541.9752,-439.1303 541.7776,-446.1275"/>
</g>
<!-- Print\nanalysis\nresults -->
<g id="node7" class="node">
<title>Print\nanalysis\nresults</title>
<ellipse fill="#ffffff" stroke="#ffffff" cx="782.7567" cy="-450" rx="43.4089" ry="41.0911"/>
<text text-anchor="middle" x="782.7567" y="-462.6" font-family="Times,serif" font-size="14.00" fill="#000000">Print</text>
<text text-anchor="middle" x="782.7567" y="-445.8" font-family="Times,serif" font-size="14.00" fill="#000000">analysis</text>
<text text-anchor="middle" x="782.7567" y="-429" font-family="Times,serif" font-size="14.00" fill="#000000">results</text>
</g>
<!-- Run\nchecks&#45;&gt;Print\nanalysis\nresults -->
<g id="edge5" class="edge">
<title>Run\nchecks-&gt;Print\nanalysis\nresults</title>
<path fill="none" stroke="#000000" d="M628.9007,-445.1998C657.6828,-446.0978 697.4101,-447.3372 729.2857,-448.3317"/>
<polygon fill="#000000" stroke="#000000" points="729.2309,-451.8316 739.3352,-448.6453 729.4492,-444.835 729.2309,-451.8316"/>
</g>
<!-- Print\nanalysis\nresults&#45;&gt;Merge\nbutton\nenabled -->
<g id="edge15" class="edge">
<title>Print\nanalysis\nresults-&gt;Merge\nbutton\nenabled</title>
<path fill="none" stroke="#000000" d="M821.2499,-430.7505C840.4838,-421.1322 863.9116,-409.4166 884.1526,-399.2946"/>
<polygon fill="#000000" stroke="#000000" points="885.8232,-402.3725 893.2017,-394.7694 882.6923,-396.1117 885.8232,-402.3725"/>
</g>
<!-- Install\nSonarCloud\nscanner -->
<g id="node8" class="node">
<title>Install\nSonarCloud\nscanner</title>
<ellipse fill="#ffffff" stroke="#ffffff" cx="203.6037" cy="-319" rx="58.7173" ry="41.0911"/>
<text text-anchor="middle" x="203.6037" y="-331.6" font-family="Times,serif" font-size="14.00" fill="#000000">Install</text>
<text text-anchor="middle" x="203.6037" y="-314.8" font-family="Times,serif" font-size="14.00" fill="#000000">SonarCloud</text>
<text text-anchor="middle" x="203.6037" y="-298" font-family="Times,serif" font-size="14.00" fill="#000000">scanner</text>
</g>
<!-- Build\nand\nAnalyze -->
<g id="node9" class="node">
<title>Build\nand\nAnalyze</title>
<ellipse fill="#ffffff" stroke="#ffffff" cx="377.8874" cy="-319" rx="44.0887" ry="41.0911"/>
<text text-anchor="middle" x="377.8874" y="-331.6" font-family="Times,serif" font-size="14.00" fill="#000000">Build</text>
<text text-anchor="middle" x="377.8874" y="-314.8" font-family="Times,serif" font-size="14.00" fill="#000000">and</text>
<text text-anchor="middle" x="377.8874" y="-298" font-family="Times,serif" font-size="14.00" fill="#000000">Analyze</text>
</g>
<!-- Install\nSonarCloud\nscanner&#45;&gt;Build\nand\nAnalyze -->
<g id="edge6" class="edge">
<title>Install\nSonarCloud\nscanner-&gt;Build\nand\nAnalyze</title>
<path fill="none" stroke="#000000" d="M262.6082,-319C282.2796,-319 304.0938,-319 323.406,-319"/>
<polygon fill="#000000" stroke="#000000" points="323.5491,-322.5001 333.5491,-319 323.549,-315.5001 323.5491,-322.5001"/>
</g>
<!-- Build\nand\nAnalyze&#45;&gt;Merge\nbutton\nenabled -->
<g id="edge16" class="edge">
<title>Build\nand\nAnalyze-&gt;Merge\nbutton\nenabled</title>
<path fill="none" stroke="#000000" d="M419.6743,-333.361C441.4371,-340.2141 468.6422,-347.8153 493.5626,-352 631.0485,-375.0871 795.9242,-377.4122 878.3766,-376.8743"/>
<polygon fill="#000000" stroke="#000000" points="878.5244,-380.3733 888.4952,-376.791 878.4666,-373.3735 878.5244,-380.3733"/>
</g>
<!-- Setup\n.NET &#160; -->
<g id="node10" class="node">
<title>Setup\n.NET  </title>
<ellipse fill="#ffffff" stroke="#ffffff" cx="203.6037" cy="-200" rx="37.96" ry="29.3315"/>
<text text-anchor="middle" x="203.6037" y="-204.2" font-family="Times,serif" font-size="14.00" fill="#000000">Setup</text>
<text text-anchor="middle" x="203.6037" y="-187.4" font-family="Times,serif" font-size="14.00" fill="#000000">.NET  </text>
</g>
<!-- Run\ntests -->
<g id="node11" class="node">
<title>Run\ntests</title>
<ellipse fill="#ffffff" stroke="#ffffff" cx="377.8874" cy="-200" rx="28.8204" ry="29.3315"/>
<text text-anchor="middle" x="377.8874" y="-204.2" font-family="Times,serif" font-size="14.00" fill="#000000">Run</text>
<text text-anchor="middle" x="377.8874" y="-187.4" font-family="Times,serif" font-size="14.00" fill="#000000">tests</text>
</g>
<!-- Setup\n.NET &#160;&#45;&gt;Run\ntests -->
<g id="edge7" class="edge">
<title>Setup\n.NET  -&gt;Run\ntests</title>
<path fill="none" stroke="#000000" d="M241.851,-200C270.587,-200 309.811,-200 338.7586,-200"/>
<polygon fill="#000000" stroke="#000000" points="338.9201,-203.5001 348.92,-200 338.92,-196.5001 338.9201,-203.5001"/>
</g>
<!-- Branch = main -->
<g id="node12" class="node">
<title>Branch = main</title>
<polygon fill="#ffffff" stroke="#ffffff" points="590.446,-209 493.6791,-191 590.446,-173 687.213,-191 590.446,-209"/>
<text text-anchor="middle" x="590.446" y="-186.8" font-family="Times,serif" font-size="14.00" fill="#000000">Branch = main</text>
</g>
<!-- Run\ntests&#45;&gt;Branch = main -->
<g id="edge8" class="edge">
<title>Run\ntests-&gt;Branch = main</title>
<path fill="none" stroke="#000000" d="M406.9971,-198.7675C431.3147,-197.7378 467.3269,-196.213 501.0202,-194.7864"/>
<polygon fill="#000000" stroke="#000000" points="501.5438,-198.2675 511.3867,-194.3475 501.2476,-191.2737 501.5438,-198.2675"/>
</g>
<!-- Run\ntests&#45;&gt;Merge\nbutton\nenabled -->
<g id="edge13" class="edge">
<title>Run\ntests-&gt;Merge\nbutton\nenabled</title>
<path fill="none" stroke="#000000" d="M405.4525,-210.1649C463.7397,-231.5104 603.9501,-282.0745 723.3294,-319 776.5038,-335.4475 838.0674,-352.0651 880.2258,-363.0791"/>
<polygon fill="#000000" stroke="#000000" points="879.4174,-366.4852 889.9766,-365.617 881.1807,-359.7109 879.4174,-366.4852"/>
</g>
<!-- Publish\nDocker\nImage -->
<g id="node13" class="node">
<title>Publish\nDocker\nImage</title>
<ellipse fill="#ffffff" stroke="#ffffff" cx="782.7567" cy="-182" rx="41.0363" ry="41.0911"/>
<text text-anchor="middle" x="782.7567" y="-194.6" font-family="Times,serif" font-size="14.00" fill="#000000">Publish</text>
<text text-anchor="middle" x="782.7567" y="-177.8" font-family="Times,serif" font-size="14.00" fill="#000000">Docker</text>
<text text-anchor="middle" x="782.7567" y="-161" font-family="Times,serif" font-size="14.00" fill="#000000">Image</text>
</g>
<!-- Branch = main&#45;&gt;Publish\nDocker\nImage -->
<g id="edge9" class="edge">
<title>Branch = main-&gt;Publish\nDocker\nImage</title>
<path fill="none" stroke="#000000" d="M667.8348,-187.3783C689.2448,-186.3763 711.9463,-185.3139 731.4676,-184.4003"/>
<polygon fill="#000000" stroke="#000000" points="731.8334,-187.8871 741.6588,-183.9233 731.5061,-180.8948 731.8334,-187.8871"/>
</g>
<!-- Download\nimage\non\ndroplets -->
<g id="node14" class="node">
<title>Download\nimage\non\ndroplets</title>
<ellipse fill="#ffffff" stroke="#ffffff" cx="930.7349" cy="-176" rx="52.6021" ry="53.3494"/>
<text text-anchor="middle" x="930.7349" y="-197" font-family="Times,serif" font-size="14.00" fill="#000000">Download</text>
<text text-anchor="middle" x="930.7349" y="-180.2" font-family="Times,serif" font-size="14.00" fill="#000000">image</text>
<text text-anchor="middle" x="930.7349" y="-163.4" font-family="Times,serif" font-size="14.00" fill="#000000">on</text>
<text text-anchor="middle" x="930.7349" y="-146.6" font-family="Times,serif" font-size="14.00" fill="#000000">droplets</text>
</g>
<!-- Publish\nDocker\nImage&#45;&gt;Download\nimage\non\ndroplets -->
<g id="edge10" class="edge">
<title>Publish\nDocker\nImage-&gt;Download\nimage\non\ndroplets</title>
<path fill="none" stroke="#000000" d="M823.9769,-180.3287C837.5957,-179.7765 853.0708,-179.149 867.9298,-178.5465"/>
<polygon fill="#000000" stroke="#000000" points="868.2381,-182.037 878.088,-178.1346 867.9544,-175.0427 868.2381,-182.037"/>
</g>
<!-- Start\ndocker\ncontainer -->
<g id="node15" class="node">
<title>Start\ndocker\ncontainer</title>
<ellipse fill="#ffffff" stroke="#ffffff" cx="1067.4298" cy="-176" rx="48.288" ry="41.0911"/>
<text text-anchor="middle" x="1067.4298" y="-188.6" font-family="Times,serif" font-size="14.00" fill="#000000">Start</text>
<text text-anchor="middle" x="1067.4298" y="-171.8" font-family="Times,serif" font-size="14.00" fill="#000000">docker</text>
<text text-anchor="middle" x="1067.4298" y="-155" font-family="Times,serif" font-size="14.00" fill="#000000">container</text>
</g>
<!-- Download\nimage\non\ndroplets&#45;&gt;Start\ndocker\ncontainer -->
<g id="edge11" class="edge">
<title>Download\nimage\non\ndroplets-&gt;Start\ndocker\ncontainer</title>
<path fill="none" stroke="#000000" d="M983.5847,-176C991.917,-176 1000.5736,-176 1009.0231,-176"/>
<polygon fill="#000000" stroke="#000000" points="1009.1913,-179.5001 1019.1912,-176 1009.1912,-172.5001 1009.1913,-179.5001"/>
</g>
<!-- Generate\nPDF -->
<g id="node16" class="node">
<title>Generate\nPDF</title>
<ellipse fill="#ffffff" stroke="#ffffff" cx="203.6037" cy="-45" rx="47.0681" ry="29.3315"/>
<text text-anchor="middle" x="203.6037" y="-49.2" font-family="Times,serif" font-size="14.00" fill="#000000">Generate</text>
<text text-anchor="middle" x="203.6037" y="-32.4" font-family="Times,serif" font-size="14.00" fill="#000000">PDF</text>
</g>
<!-- Upload as artifact -->
<g id="node17" class="node">
<title>Upload as artifact</title>
<ellipse fill="#ffffff" stroke="#ffffff" cx="377.8874" cy="-45" rx="79.8507" ry="18"/>
<text text-anchor="middle" x="377.8874" y="-40.8" font-family="Times,serif" font-size="14.00" fill="#000000">Upload as artifact</text>
</g>
<!-- Generate\nPDF&#45;&gt;Upload as artifact -->
<g id="edge12" class="edge">
<title>Generate\nPDF-&gt;Upload as artifact</title>
<path fill="none" stroke="#000000" d="M250.7674,-45C262.3015,-45 275.0286,-45 287.8396,-45"/>
<polygon fill="#000000" stroke="#000000" points="288.1105,-48.5001 298.1105,-45 288.1105,-41.5001 288.1105,-48.5001"/>
</g>
<!-- Peer review -->
<g id="node19" class="node">
<title>Peer review</title>
<ellipse fill="none" stroke="#000000" cx="782.7567" cy="-292" rx="56.7582" ry="18"/>
<text text-anchor="middle" x="782.7567" y="-287.8" font-family="Times,serif" font-size="14.00" fill="#000000">Peer review</text>
</g>
<!-- Peer review&#45;&gt;Merge\nbutton\nenabled -->
<g id="edge17" class="edge">
<title>Peer review-&gt;Merge\nbutton\nenabled</title>
<path fill="none" stroke="#000000" d="M816.1144,-306.7819C827.1178,-311.9341 839.3166,-317.9473 850.1839,-324 862.5877,-330.9085 875.6683,-338.9862 887.5977,-346.6869"/>
<polygon fill="#000000" stroke="#000000" points="885.7672,-349.6716 896.0546,-352.2055 889.5927,-343.8094 885.7672,-349.6716"/>
</g>
<!-- Push or PR -->
<g id="node20" class="node">
<title>Push or PR</title>
<ellipse fill="none" stroke="#000000" cx="54.4976" cy="-319" rx="54.4952" ry="54.4952"/>
<text text-anchor="middle" x="54.4976" y="-314.8" font-family="Times,serif" font-size="14.00" fill="#000000">Push or PR</text>
</g>
<!-- Push or PR&#45;&gt;Setup\n.NET -->
<g id="edge19" class="edge">
<title>Push or PR-&gt;Setup\n.NET</title>
<path fill="none" stroke="#000000" d="M82.0197,-366.2527C111.2262,-416.3972 156.7089,-494.4864 182.9783,-539.5883"/>
<polygon fill="#000000" stroke="#000000" points="180.0651,-541.5408 188.1225,-548.4203 186.1139,-538.0176 180.0651,-541.5408"/>
</g>
<!-- Push or PR&#45;&gt;Setup\n.NET  -->
<g id="edge20" class="edge">
<title>Push or PR-&gt;Setup\n.NET </title>
<path fill="none" stroke="#000000" d="M89.8247,-361.1935C103.2427,-374.6453 119.5359,-388.2849 136.9952,-397 199.5402,-428.2207 281.3727,-436.2365 331.7501,-437.9849"/>
<polygon fill="#000000" stroke="#000000" points="331.9113,-441.4906 342.0044,-438.269 332.1052,-434.4933 331.9113,-441.4906"/>
</g>
<!-- Push or PR&#45;&gt;Install\nSonarCloud\nscanner -->
<g id="edge21" class="edge">
<title>Push or PR-&gt;Install\nSonarCloud\nscanner</title>
<path fill="none" stroke="#000000" d="M109.1725,-319C117.536,-319 126.2595,-319 134.8784,-319"/>
<polygon fill="#000000" stroke="#000000" points="134.9205,-322.5001 144.9205,-319 134.9205,-315.5001 134.9205,-322.5001"/>
</g>
<!-- Push or PR&#45;&gt;Setup\n.NET &#160; -->
<g id="edge22" class="edge">
<title>Push or PR-&gt;Setup\n.NET  </title>
<path fill="none" stroke="#000000" d="M97.2254,-284.8994C119.965,-266.7512 147.5675,-244.7219 168.9566,-227.6515"/>
<polygon fill="#000000" stroke="#000000" points="171.1941,-230.3438 176.8268,-221.3703 166.8276,-224.8726 171.1941,-230.3438"/>
</g>
<!-- Push or PR&#45;&gt;Generate\nPDF -->
<g id="edge18" class="edge">
<title>Push or PR-&gt;Generate\nPDF</title>
<path fill="none" stroke="#000000" d="M68.8307,-266.1167C82.2257,-222.2549 104.9835,-159.4586 136.9952,-111 145.4523,-98.1978 156.7106,-85.8763 167.5612,-75.4168"/>
<polygon fill="#000000" stroke="#000000" points="170.0551,-77.8766 174.9686,-68.49 165.274,-72.7637 170.0551,-77.8766"/>
</g>
</g>
</svg>
