<?xml version="1.0" encoding="UTF-8" standalone="no"?><!DOCTYPE svg PUBLIC "-//W3C//DTD SVG 1.1//EN" "http://www.w3.org/Graphics/SVG/1.1/DTD/svg11.dtd"><!-- Generated by graphviz version 2.40.1 (20161225.0304)
 --><!-- Title: G Pages: 1 --><svg xmlns="http://www.w3.org/2000/svg" xmlns:xlink="http://www.w3.org/1999/xlink" width="1140pt" height="695pt" viewBox="0.00 0.00 1139.57 695.00">
<g id="graph0" class="graph" transform="scale(1 1) rotate(0) translate(4 691)">
<title>G</title>
<polygon fill="#ffffff" stroke="transparent" points="-4,4 -4,-691 1135.5736,-691 1135.5736,4 -4,4"/>
<g id="clust1" class="cluster">
<title>cluster_Test_Coverage</title>
<polygon fill="#d3d3d3" stroke="#d3d3d3" points="161.7419,-532 161.7419,-679 850.1839,-679 850.1839,-532 161.7419,-532"/>
<text text-anchor="middle" x="505.9629" y="-662.4" font-family="Times,serif" font-size="14.00" fill="#000000">Test coverage</text>
</g>
<g id="clust2" class="cluster">
<title>cluster_Infer</title>
<polygon fill="#d3d3d3" stroke="#d3d3d3" points="160.0986,-115 160.0986,-238 641.65,-238 641.65,-115 160.0986,-115"/>
<text text-anchor="middle" x="400.8743" y="-221.4" font-family="Times,serif" font-size="14.00" fill="#000000">Infer#</text>
</g>
<g id="clust3" class="cluster">
<title>cluster_SonarCloud</title>
<polygon fill="#d3d3d3" stroke="#d3d3d3" points="136.9952,-401 136.9952,-524 430.1813,-524 430.1813,-401 136.9952,-401"/>
<text text-anchor="middle" x="283.5882" y="-507.4" font-family="Times,serif" font-size="14.00" fill="#000000">Sonar Cloud</text>
</g>
<g id="clust4" class="cluster">
<title>cluster_TestAndDeploy</title>
<polygon fill="#d3d3d3" stroke="#d3d3d3" points="157.6237,-246 157.6237,-393 1123.5736,-393 1123.5736,-246 157.6237,-246"/>
<text text-anchor="middle" x="640.5987" y="-376.4" font-family="Times,serif" font-size="14.00" fill="#000000">Test and Deploy</text>
</g>
<g id="clust5" class="cluster">
<title>cluster_Report</title>
<polygon fill="#d3d3d3" stroke="#d3d3d3" points="148.5697,-8 148.5697,-107 465.5626,-107 465.5626,-8 148.5697,-8"/>
<text text-anchor="middle" x="307.0661" y="-90.4" font-family="Times,serif" font-size="14.00" fill="#000000">Report</text>
</g>
<!-- Setup\n.NET -->
<g id="node1" class="node">
<title>Setup\n.NET</title>
<ellipse fill="#ffffff" stroke="#ffffff" cx="203.6037" cy="-575" rx="33.7241" ry="29.3315"/>
<text text-anchor="middle" x="203.6037" y="-579.2" font-family="Times,serif" font-size="14.00" fill="#000000">Setup</text>
<text text-anchor="middle" x="203.6037" y="-562.4" font-family="Times,serif" font-size="14.00" fill="#000000">.NET</text>
</g>
<!-- Collect\ntest\ncoverage -->
<g id="node2" class="node">
<title>Collect\ntest\ncoverage</title>
<ellipse fill="#ffffff" stroke="#ffffff" cx="377.8874" cy="-581" rx="47.0721" ry="41.0911"/>
<text text-anchor="middle" x="377.8874" y="-593.6" font-family="Times,serif" font-size="14.00" fill="#000000">Collect</text>
<text text-anchor="middle" x="377.8874" y="-576.8" font-family="Times,serif" font-size="14.00" fill="#000000">test</text>
<text text-anchor="middle" x="377.8874" y="-560" font-family="Times,serif" font-size="14.00" fill="#000000">coverage</text>
</g>
<!-- Setup\n.NET&#45;&gt;Collect\ntest\ncoverage -->
<g id="edge1" class="edge">
<title>Setup\n.NET-&gt;Collect\ntest\ncoverage</title>
<path fill="none" stroke="#000000" d="M237.6211,-576.1711C261.1623,-576.9815 293.0678,-578.0799 320.5018,-579.0244"/>
<polygon fill="#000000" stroke="#000000" points="320.6559,-582.5317 330.7704,-579.3779 320.8968,-575.5358 320.6559,-582.5317"/>
</g>
<!-- Generate\ncoverage\nreport -->
<g id="node3" class="node">
<title>Generate\ncoverage\nreport</title>
<ellipse fill="#ffffff" stroke="#ffffff" cx="590.446" cy="-587" rx="47.0721" ry="41.0911"/>
<text text-anchor="middle" x="590.446" y="-599.6" font-family="Times,serif" font-size="14.00" fill="#000000">Generate</text>
<text text-anchor="middle" x="590.446" y="-582.8" font-family="Times,serif" font-size="14.00" fill="#000000">coverage</text>
<text text-anchor="middle" x="590.446" y="-566" font-family="Times,serif" font-size="14.00" fill="#000000">report</text>
</g>
<!-- Collect\ntest\ncoverage&#45;&gt;Generate\ncoverage\nreport -->
<g id="edge2" class="edge">
<title>Collect\ntest\ncoverage-&gt;Generate\ncoverage\nreport</title>
<path fill="none" stroke="#000000" d="M425.0611,-582.3316C456.9834,-583.2327 499.337,-584.4282 533.1915,-585.3838"/>
<polygon fill="#000000" stroke="#000000" points="533.3094,-588.8885 543.4043,-585.6721 533.507,-581.8913 533.3094,-588.8885"/>
</g>
<!-- Upload\ncoverage\ninfo\nto Coveralls -->
<g id="node4" class="node">
<title>Upload\ncoverage\ninfo\nto Coveralls</title>
<ellipse fill="#ffffff" stroke="#ffffff" cx="782.7567" cy="-593" rx="59.3546" ry="53.3494"/>
<text text-anchor="middle" x="782.7567" y="-614" font-family="Times,serif" font-size="14.00" fill="#000000">Upload</text>
<text text-anchor="middle" x="782.7567" y="-597.2" font-family="Times,serif" font-size="14.00" fill="#000000">coverage</text>
<text text-anchor="middle" x="782.7567" y="-580.4" font-family="Times,serif" font-size="14.00" fill="#000000">info</text>
<text text-anchor="middle" x="782.7567" y="-563.6" font-family="Times,serif" font-size="14.00" fill="#000000">to Coveralls</text>
</g>
<!-- Generate\ncoverage\nreport&#45;&gt;Upload\ncoverage\ninfo\nto Coveralls -->
<g id="edge3" class="edge">
<title>Generate\ncoverage\nreport-&gt;Upload\ncoverage\ninfo\nto Coveralls</title>
<path fill="none" stroke="#000000" d="M637.4905,-588.4678C660.1644,-589.1752 687.8185,-590.038 712.8899,-590.8202"/>
<polygon fill="#000000" stroke="#000000" points="712.9815,-594.3247 723.0858,-591.1383 713.1998,-587.3281 712.9815,-594.3247"/>
</g>
<!-- Merge\nbutton\nenabled -->
<g id="node18" class="node">
<title>Merge\nbutton\nenabled</title>
<ellipse fill="none" stroke="#000000" cx="930.7349" cy="-484" rx="42.1946" ry="41.0911"/>
<text text-anchor="middle" x="930.7349" y="-496.6" font-family="Times,serif" font-size="14.00" fill="#000000">Merge</text>
<text text-anchor="middle" x="930.7349" y="-479.8" font-family="Times,serif" font-size="14.00" fill="#000000">button</text>
<text text-anchor="middle" x="930.7349" y="-463" font-family="Times,serif" font-size="14.00" fill="#000000">enabled</text>
</g>
<!-- Upload\ncoverage\ninfo\nto Coveralls&#45;&gt;Merge\nbutton\nenabled -->
<g id="edge14" class="edge">
<title>Upload\ncoverage\ninfo\nto Coveralls-&gt;Merge\nbutton\nenabled</title>
<path fill="none" stroke="#000000" d="M828.7668,-559.1092C847.9823,-544.9552 870.1504,-528.6262 888.899,-514.8162"/>
<polygon fill="#000000" stroke="#000000" points="891.0012,-517.6147 896.977,-508.8659 886.8497,-511.9786 891.0012,-517.6147"/>
</g>
<!-- Setup\n.NET  -->
<g id="node5" class="node">
<title>Setup\n.NET </title>
<ellipse fill="#ffffff" stroke="#ffffff" cx="203.6037" cy="-173" rx="35.5102" ry="29.3315"/>
<text text-anchor="middle" x="203.6037" y="-177.2" font-family="Times,serif" font-size="14.00" fill="#000000">Setup</text>
<text text-anchor="middle" x="203.6037" y="-160.4" font-family="Times,serif" font-size="14.00" fill="#000000">.NET </text>
</g>
<!-- Run\nchecks -->
<g id="node6" class="node">
<title>Run\nchecks</title>
<ellipse fill="#ffffff" stroke="#ffffff" cx="377.8874" cy="-170" rx="38.4941" ry="29.3315"/>
<text text-anchor="middle" x="377.8874" y="-174.2" font-family="Times,serif" font-size="14.00" fill="#000000">Run</text>
<text text-anchor="middle" x="377.8874" y="-157.4" font-family="Times,serif" font-size="14.00" fill="#000000">checks</text>
</g>
<!-- Setup\n.NET &#45;&gt;Run\nchecks -->
<g id="edge4" class="edge">
<title>Setup\n.NET -&gt;Run\nchecks</title>
<path fill="none" stroke="#000000" d="M239.2932,-172.3857C265.281,-171.9383 300.7804,-171.3273 329.3451,-170.8356"/>
<polygon fill="#000000" stroke="#000000" points="329.5865,-174.332 339.5247,-170.6603 329.4659,-167.3331 329.5865,-174.332"/>
</g>
<!-- Print\nanalysis\nresults -->
<g id="node7" class="node">
<title>Print\nanalysis\nresults</title>
<ellipse fill="#ffffff" stroke="#ffffff" cx="590.446" cy="-164" rx="43.4089" ry="41.0911"/>
<text text-anchor="middle" x="590.446" y="-176.6" font-family="Times,serif" font-size="14.00" fill="#000000">Print</text>
<text text-anchor="middle" x="590.446" y="-159.8" font-family="Times,serif" font-size="14.00" fill="#000000">analysis</text>
<text text-anchor="middle" x="590.446" y="-143" font-family="Times,serif" font-size="14.00" fill="#000000">results</text>
</g>
<!-- Run\nchecks&#45;&gt;Print\nanalysis\nresults -->
<g id="edge5" class="edge">
<title>Run\nchecks-&gt;Print\nanalysis\nresults</title>
<path fill="none" stroke="#000000" d="M416.3802,-168.9134C450.0614,-167.9627 499.3315,-166.5719 536.8634,-165.5125"/>
<polygon fill="#000000" stroke="#000000" points="537.2181,-169.004 547.1153,-165.2231 537.0205,-162.0068 537.2181,-169.004"/>
</g>
<!-- Install\nSonarCloud\nscanner -->
<g id="node8" class="node">
<title>Install\nSonarCloud\nscanner</title>
<ellipse fill="#ffffff" stroke="#ffffff" cx="203.6037" cy="-450" rx="58.7173" ry="41.0911"/>
<text text-anchor="middle" x="203.6037" y="-462.6" font-family="Times,serif" font-size="14.00" fill="#000000">Install</text>
<text text-anchor="middle" x="203.6037" y="-445.8" font-family="Times,serif" font-size="14.00" fill="#000000">SonarCloud</text>
<text text-anchor="middle" x="203.6037" y="-429" font-family="Times,serif" font-size="14.00" fill="#000000">scanner</text>
</g>
<!-- Build\nand\nAnalyze -->
<g id="node9" class="node">
<title>Build\nand\nAnalyze</title>
<ellipse fill="#ffffff" stroke="#ffffff" cx="377.8874" cy="-450" rx="44.0887" ry="41.0911"/>
<text text-anchor="middle" x="377.8874" y="-462.6" font-family="Times,serif" font-size="14.00" fill="#000000">Build</text>
<text text-anchor="middle" x="377.8874" y="-445.8" font-family="Times,serif" font-size="14.00" fill="#000000">and</text>
<text text-anchor="middle" x="377.8874" y="-429" font-family="Times,serif" font-size="14.00" fill="#000000">Analyze</text>
</g>
<!-- Install\nSonarCloud\nscanner&#45;&gt;Build\nand\nAnalyze -->
<g id="edge6" class="edge">
<title>Install\nSonarCloud\nscanner-&gt;Build\nand\nAnalyze</title>
<path fill="none" stroke="#000000" d="M262.6082,-450C282.2796,-450 304.0938,-450 323.406,-450"/>
<polygon fill="#000000" stroke="#000000" points="323.5491,-453.5001 333.5491,-450 323.549,-446.5001 323.5491,-453.5001"/>
</g>
<!-- Build\nand\nAnalyze&#45;&gt;Merge\nbutton\nenabled -->
<g id="edge15" class="edge">
<title>Build\nand\nAnalyze-&gt;Merge\nbutton\nenabled</title>
<path fill="none" stroke="#000000" d="M420.0074,-463.0852C441.7412,-469.1894 468.8201,-475.802 493.5626,-479 631.6245,-496.8446 796.2509,-491.6868 878.5156,-487.3266"/>
<polygon fill="#000000" stroke="#000000" points="878.817,-490.8155 888.6104,-486.7734 878.4339,-483.8259 878.817,-490.8155"/>
</g>
<!-- Setup\n.NET &#160; -->
<g id="node10" class="node">
<title>Setup\n.NET  </title>
<ellipse fill="#ffffff" stroke="#ffffff" cx="203.6037" cy="-328" rx="37.96" ry="29.3315"/>
<text text-anchor="middle" x="203.6037" y="-332.2" font-family="Times,serif" font-size="14.00" fill="#000000">Setup</text>
<text text-anchor="middle" x="203.6037" y="-315.4" font-family="Times,serif" font-size="14.00" fill="#000000">.NET  </text>
</g>
<!-- Run\ntests -->
<g id="node11" class="node">
<title>Run\ntests</title>
<ellipse fill="#ffffff" stroke="#ffffff" cx="377.8874" cy="-328" rx="28.8204" ry="29.3315"/>
<text text-anchor="middle" x="377.8874" y="-332.2" font-family="Times,serif" font-size="14.00" fill="#000000">Run</text>
<text text-anchor="middle" x="377.8874" y="-315.4" font-family="Times,serif" font-size="14.00" fill="#000000">tests</text>
</g>
<!-- Setup\n.NET &#160;&#45;&gt;Run\ntests -->
<g id="edge7" class="edge">
<title>Setup\n.NET  -&gt;Run\ntests</title>
<path fill="none" stroke="#000000" d="M241.851,-328C270.587,-328 309.811,-328 338.7586,-328"/>
<polygon fill="#000000" stroke="#000000" points="338.9201,-331.5001 348.92,-328 338.92,-324.5001 338.9201,-331.5001"/>
</g>
<!-- Branch = main -->
<g id="node12" class="node">
<title>Branch = main</title>
<polygon fill="#ffffff" stroke="#ffffff" points="590.446,-334 493.6791,-316 590.446,-298 687.213,-316 590.446,-334"/>
<text text-anchor="middle" x="590.446" y="-311.8" font-family="Times,serif" font-size="14.00" fill="#000000">Branch = main</text>
</g>
<!-- Run\ntests&#45;&gt;Branch = main -->
<g id="edge8" class="edge">
<title>Run\ntests-&gt;Branch = main</title>
<path fill="none" stroke="#000000" d="M406.9971,-326.3566C432.4544,-324.9194 470.7281,-322.7587 505.7406,-320.782"/>
<polygon fill="#000000" stroke="#000000" points="506.2116,-324.2611 515.9984,-320.2029 505.817,-317.2723 506.2116,-324.2611"/>
</g>
<!-- Run\ntests&#45;&gt;Merge\nbutton\nenabled -->
<g id="edge13" class="edge">
<title>Run\ntests-&gt;Merge\nbutton\nenabled</title>
<path fill="none" stroke="#000000" d="M405.2252,-338.8922C463.0823,-361.5966 602.5237,-414.4851 723.3294,-446 775.6873,-459.6587 836.7284,-470.2131 878.9702,-476.6944"/>
<polygon fill="#000000" stroke="#000000" points="878.6094,-480.1795 889.0203,-478.214 879.6559,-473.2582 878.6094,-480.1795"/>
</g>
<!-- Publish\nDocker\nImage -->
<g id="node13" class="node">
<title>Publish\nDocker\nImage</title>
<ellipse fill="#ffffff" stroke="#ffffff" cx="782.7567" cy="-313" rx="41.0363" ry="41.0911"/>
<text text-anchor="middle" x="782.7567" y="-325.6" font-family="Times,serif" font-size="14.00" fill="#000000">Publish</text>
<text text-anchor="middle" x="782.7567" y="-308.8" font-family="Times,serif" font-size="14.00" fill="#000000">Docker</text>
<text text-anchor="middle" x="782.7567" y="-292" font-family="Times,serif" font-size="14.00" fill="#000000">Image</text>
</g>
<!-- Branch = main&#45;&gt;Publish\nDocker\nImage -->
<g id="edge9" class="edge">
<title>Branch = main-&gt;Publish\nDocker\nImage</title>
<path fill="none" stroke="#000000" d="M679.8454,-314.6054C697.5471,-314.3292 715.5556,-314.0483 731.4554,-313.8003"/>
<polygon fill="#000000" stroke="#000000" points="731.6308,-317.2981 741.575,-313.6424 731.5216,-310.2989 731.6308,-317.2981"/>
</g>
<!-- Download\nimage\non\ndroplets -->
<g id="node14" class="node">
<title>Download\nimage\non\ndroplets</title>
<ellipse fill="#ffffff" stroke="#ffffff" cx="930.7349" cy="-307" rx="52.6021" ry="53.3494"/>
<text text-anchor="middle" x="930.7349" y="-328" font-family="Times,serif" font-size="14.00" fill="#000000">Download</text>
<text text-anchor="middle" x="930.7349" y="-311.2" font-family="Times,serif" font-size="14.00" fill="#000000">image</text>
<text text-anchor="middle" x="930.7349" y="-294.4" font-family="Times,serif" font-size="14.00" fill="#000000">on</text>
<text text-anchor="middle" x="930.7349" y="-277.6" font-family="Times,serif" font-size="14.00" fill="#000000">droplets</text>
</g>
<!-- Publish\nDocker\nImage&#45;&gt;Download\nimage\non\ndroplets -->
<g id="edge10" class="edge">
<title>Publish\nDocker\nImage-&gt;Download\nimage\non\ndroplets</title>
<path fill="none" stroke="#000000" d="M823.9769,-311.3287C837.5957,-310.7765 853.0708,-310.149 867.9298,-309.5465"/>
<polygon fill="#000000" stroke="#000000" points="868.2381,-313.037 878.088,-309.1346 867.9544,-306.0427 868.2381,-313.037"/>
</g>
<!-- Start\ndocker\ncontainer -->
<g id="node15" class="node">
<title>Start\ndocker\ncontainer</title>
<ellipse fill="#ffffff" stroke="#ffffff" cx="1067.4298" cy="-307" rx="48.288" ry="41.0911"/>
<text text-anchor="middle" x="1067.4298" y="-319.6" font-family="Times,serif" font-size="14.00" fill="#000000">Start</text>
<text text-anchor="middle" x="1067.4298" y="-302.8" font-family="Times,serif" font-size="14.00" fill="#000000">docker</text>
<text text-anchor="middle" x="1067.4298" y="-286" font-family="Times,serif" font-size="14.00" fill="#000000">container</text>
</g>
<!-- Download\nimage\non\ndroplets&#45;&gt;Start\ndocker\ncontainer -->
<g id="edge11" class="edge">
<title>Download\nimage\non\ndroplets-&gt;Start\ndocker\ncontainer</title>
<path fill="none" stroke="#000000" d="M983.5847,-307C991.917,-307 1000.5736,-307 1009.0231,-307"/>
<polygon fill="#000000" stroke="#000000" points="1009.1913,-310.5001 1019.1912,-307 1009.1912,-303.5001 1009.1913,-310.5001"/>
</g>
<!-- Generate\nPDF -->
<g id="node16" class="node">
<title>Generate\nPDF</title>
<ellipse fill="#ffffff" stroke="#ffffff" cx="203.6037" cy="-45" rx="47.0681" ry="29.3315"/>
<text text-anchor="middle" x="203.6037" y="-49.2" font-family="Times,serif" font-size="14.00" fill="#000000">Generate</text>
<text text-anchor="middle" x="203.6037" y="-32.4" font-family="Times,serif" font-size="14.00" fill="#000000">PDF</text>
</g>
<!-- Upload as artifact -->
<g id="node17" class="node">
<title>Upload as artifact</title>
<ellipse fill="#ffffff" stroke="#ffffff" cx="377.8874" cy="-45" rx="79.8507" ry="18"/>
<text text-anchor="middle" x="377.8874" y="-40.8" font-family="Times,serif" font-size="14.00" fill="#000000">Upload as artifact</text>
</g>
<!-- Generate\nPDF&#45;&gt;Upload as artifact -->
<g id="edge12" class="edge">
<title>Generate\nPDF-&gt;Upload as artifact</title>
<path fill="none" stroke="#000000" d="M250.7674,-45C262.3015,-45 275.0286,-45 287.8396,-45"/>
<polygon fill="#000000" stroke="#000000" points="288.1105,-48.5001 298.1105,-45 288.1105,-41.5001 288.1105,-48.5001"/>
</g>
<!-- Peer review -->
<g id="node19" class="node">
<title>Peer review</title>
<ellipse fill="none" stroke="#000000" cx="782.7567" cy="-419" rx="56.7582" ry="18"/>
<text text-anchor="middle" x="782.7567" y="-414.8" font-family="Times,serif" font-size="14.00" fill="#000000">Peer review</text>
</g>
<!-- Peer review&#45;&gt;Merge\nbutton\nenabled -->
<g id="edge16" class="edge">
<title>Peer review-&gt;Merge\nbutton\nenabled</title>
<path fill="none" stroke="#000000" d="M816.3352,-433.7495C835.9454,-442.3633 861.0187,-453.3769 882.6914,-462.8967"/>
<polygon fill="#000000" stroke="#000000" points="881.4975,-466.195 892.0608,-467.0122 884.3127,-459.786 881.4975,-466.195"/>
</g>
<!-- Push or PR -->
<g id="node20" class="node">
<title>Push or PR</title>
<ellipse fill="none" stroke="#000000" cx="54.4976" cy="-328" rx="54.4952" ry="54.4952"/>
<text text-anchor="middle" x="54.4976" y="-323.8" font-family="Times,serif" font-size="14.00" fill="#000000">Push or PR</text>
</g>
<!-- Push or PR&#45;&gt;Setup\n.NET -->
<g id="edge18" class="edge">
<title>Push or PR-&gt;Setup\n.NET</title>
<path fill="none" stroke="#000000" d="M67.5118,-381.1236C80.008,-424.0945 102.194,-484.4117 136.9952,-528 144.9289,-537.9369 155.4979,-546.6879 165.8753,-553.8615"/>
<polygon fill="#000000" stroke="#000000" points="164.2035,-556.9507 174.4852,-559.5078 168.0422,-551.0971 164.2035,-556.9507"/>
</g>
<!-- Push or PR&#45;&gt;Setup\n.NET  -->
<g id="edge19" class="edge">
<title>Push or PR-&gt;Setup\n.NET </title>
<path fill="none" stroke="#000000" d="M92.2556,-288.5869C106.2933,-273.9476 122.3623,-257.2061 136.9952,-242 149.233,-229.2828 162.7562,-215.2671 174.4023,-203.2086"/>
<polygon fill="#000000" stroke="#000000" points="176.9523,-205.6065 181.3827,-195.9825 171.9177,-200.7431 176.9523,-205.6065"/>
</g>
<!-- Push or PR&#45;&gt;Install\nSonarCloud\nscanner -->
<g id="edge20" class="edge">
<title>Push or PR-&gt;Install\nSonarCloud\nscanner</title>
<path fill="none" stroke="#000000" d="M96.3017,-363.3012C109.2867,-374.1754 123.6849,-386.1409 136.9952,-397 143.1947,-402.0578 149.7511,-407.3468 156.2363,-412.543"/>
<polygon fill="#000000" stroke="#000000" points="154.3833,-415.5424 164.3804,-419.0508 158.7531,-410.0739 154.3833,-415.5424"/>
</g>
<!-- Push or PR&#45;&gt;Setup\n.NET &#160; -->
<g id="edge21" class="edge">
<title>Push or PR-&gt;Setup\n.NET  </title>
<path fill="none" stroke="#000000" d="M109.1725,-328C124.154,-328 140.2908,-328 154.9126,-328"/>
<polygon fill="#000000" stroke="#000000" points="155.2537,-331.5001 165.2536,-328 155.2536,-324.5001 155.2537,-331.5001"/>
</g>
<!-- Push or PR&#45;&gt;Generate\nPDF -->
<g id="edge17" class="edge">
<title>Push or PR-&gt;Generate\nPDF</title>
<path fill="none" stroke="#000000" d="M67.7437,-275.0854C80.7732,-229.2279 103.5941,-162.3562 136.9952,-111 145.3606,-98.1377 156.5947,-85.8003 167.4514,-75.3448"/>
<polygon fill="#000000" stroke="#000000" points="169.9446,-77.8054 174.8674,-68.4236 165.1685,-72.6878 169.9446,-77.8054"/>
</g>
</g>
</svg>