<svg xmlns="http://www.w3.org/2000/svg" xmlns:xlink="http://www.w3.org/1999/xlink" xmlns:lucid="lucid" width="1338.01" height="1292.66"><g transform="translate(0 0)" lucid:page-tab-id="-8OD2rJURO_g"><path d="M0 0h1338v1292.66H0z" fill="#fff"/><path d="M756.43 164c0-2.2 1.8-4 4-4h152c2.2 0 4 1.8 4 4v113c0 2.2-1.8 4-4 4h-152c-2.2 0-4-1.8-4-4z" stroke="#282c33" stroke-width="4" fill="#fff"/><use xlink:href="#a" transform="matrix(1,0,0,1,764.4339441004751,168) translate(3.25 56.1)"/><path d="M260 664c0-2.2 1.8-4 4-4h172c2.2 0 4 1.8 4 4v113c0 2.2-1.8 4-4 4H264c-2.2 0-4-1.8-4-4z" stroke="#282c33" stroke-width="4" fill="#fff"/><use xlink:href="#b" transform="matrix(1,0,0,1,268,668) translate(2.6000000000000085 56.1)"/><path d="M747 664c0-2.2 1.8-4 4-4h172c2.22 0 4 1.8 4 4v113c0 2.2-1.78 4-4 4H751c-2.2 0-4-1.8-4-4z" stroke="#282c33" stroke-width="4" fill="#fff"/><use xlink:href="#c" transform="matrix(1,0,0,1,755.0077806951806,668) translate(20.124999999999993 56.1)"/><path d="M510.93 244c0-2.2 1.8-4 4-4h172c2.2 0 4 1.8 4 4v113c0 2.2-1.8 4-4 4h-172c-2.2 0-4-1.8-4-4z" stroke="#282c33" stroke-width="4" fill="#fff"/><use xlink:href="#d" transform="matrix(1,0,0,1,518.9315535927202,248) translate(23.599999999999994 56.1)"/><path d="M788.43 864c0-2.2 1.8-4 4-4h172c2.2 0 4 1.8 4 4v113c0 2.2-1.8 4-4 4h-172c-2.2 0-4-1.8-4-4z" stroke="#282c33" stroke-width="4" fill="#fff"/><use xlink:href="#e" transform="matrix(1,0,0,1,796.433944100475,868) translate(21.15 56.1)"/><path d="M988.43 1064c0-2.2 1.8-4 4-4h172c2.2 0 4 1.8 4 4v113c0 2.2-1.8 4-4 4h-172c-2.2 0-4-1.8-4-4z" stroke="#282c33" stroke-width="4" fill="#fff"/><use xlink:href="#f" transform="matrix(1,0,0,1,996.433944100475,1068) translate(63.05 56.1)"/><path d="M788.43 1064c0-2.2 1.8-4 4-4h172c2.2 0 4 1.8 4 4v113c0 2.2-1.8 4-4 4h-172c-2.2 0-4-1.8-4-4z" stroke="#282c33" stroke-width="4" fill="#fff"/><use xlink:href="#g" transform="matrix(1,0,0,1,796.433944100475,1068) translate(45.525 56.1)"/><path d="M588.43 1064c0-2.2 1.8-4 4-4h172c2.2 0 4 1.8 4 4v113c0 2.2-1.8 4-4 4h-172c-2.2 0-4-1.8-4-4z" stroke="#282c33" stroke-width="4" fill="#fff"/><use xlink:href="#h" transform="matrix(1,0,0,1,596.433944100475,1068) translate(56.099999999999994 56.1)"/><path d="M878.43 984v72.18" stroke="#a9afb8" stroke-width="2" fill="none"/><path d="M879.43 984.03h-2V983h2z" fill="#a9afb8"/><path d="M868.25 1038.82l10.18 17.22 10.18-17.22" stroke="#a9afb8" stroke-width="2" fill="none"/><use xlink:href="#i" transform="matrix(1,0,0,1,863.4339441004748,989.5769228925423) translate(0 14.4)"/><path d="M832.43 984v32.5c0 2.2-1.8 4-4 4h-146c-2.2 0-4 1.8-4 4v31.68" stroke="#a9afb8" stroke-width="2" fill="none"/><path d="M833.43 984.03h-2V983h2z" fill="#a9afb8"/><path d="M668.25 1038.82l10.18 17.22 10.18-17.22" stroke="#a9afb8" stroke-width="2" fill="none"/><use xlink:href="#i" transform="matrix(1,0,0,1,817.4339441004748,987.7135604297433) translate(0 14.4)"/><path d="M925.77 984v32.5c0 2.2 1.8 4 4 4h144.66c2.2 0 4 1.8 4 4v31.68" stroke="#a9afb8" stroke-width="2" fill="none"/><path d="M926.77 984.03h-2V983h2z" fill="#a9afb8"/><path d="M1068.25 1038.82l10.18 17.22 10.18-17.22" stroke="#a9afb8" stroke-width="2" fill="none"/><use xlink:href="#i" transform="matrix(1,0,0,1,910.7672774338081,989.5769228925423) translate(0 14.4)"/><path d="M497.43 864c0-2.2 1.8-4 4-4h172c2.2 0 4 1.8 4 4v113c0 2.2-1.8 4-4 4h-172c-2.2 0-4-1.8-4-4z" stroke="#282c33" stroke-width="4" fill="#fff"/><use xlink:href="#j" transform="matrix(1,0,0,1,505.42916308496535,868) translate(18.64999999999999 56.1)"/><path d="M785.43 920.5h-4.07m-8.15 0h-8.15m-8.15 0h-8.15m-8.15 0h-8.16m-8.15 0h-8.16m-8.15 0h-4.1" stroke="#a9afb8" stroke-width="2" fill="none"/><path d="M786.43 921.5h-1.02v-2h1.03z" fill="#a9afb8"/><path d="M681.4 920.5l21.5-12.73v25.46z" stroke="#a9afb8" stroke-width="2" fill="#fff"/><path d="M350 784v32.5c0 2.2 1.8 4 4 4h184.43c2.2 0 4 1.8 4 4v31.68" stroke="#a9afb8" stroke-width="2" fill="none"/><path d="M351 784.03h-2V783h2z" fill="#a9afb8"/><path d="M532.25 838.82l10.18 17.22 10.18-17.22" stroke="#a9afb8" stroke-width="2" fill="none"/><use xlink:href="#k" transform="matrix(1,0,0,1,332,794.0906225115481) translate(0 14.4)"/><path d="M837 784v32.5c0 2.2-1.78 4-4 4H626.44c-2.2 0-4 1.8-4 4v31.68" stroke="#a9afb8" stroke-width="2" fill="none"/><path d="M838 784.03h-2V783h2z" fill="#a9afb8"/><path d="M612.25 838.82l10.18 17.22 10.18-17.22" stroke="#a9afb8" stroke-width="2" fill="none"/><use xlink:href="#k" transform="matrix(1,0,0,1,819.0077806951806,793.9490205407766) translate(0 14.4)"/><path d="M510.93 64c0-2.2 1.8-4 4-4h172c2.2 0 4 1.8 4 4v113c0 2.2-1.8 4-4 4h-172c-2.2 0-4-1.8-4-4z" stroke="#282c33" stroke-width="4" fill="#fff"/><use xlink:href="#l" transform="matrix(1,0,0,1,518.9315535927202,68) translate(51.525 56.1)"/><path d="M260 484c0-2.2 1.8-4 4-4h172c2.2 0 4 1.8 4 4v113c0 2.2-1.8 4-4 4H264c-2.2 0-4-1.8-4-4z" stroke="#282c33" stroke-width="4" fill="#fff"/><use xlink:href="#m" transform="matrix(1,0,0,1,268,488) translate(0.10000000000000853 56.1)"/><path d="M747 484c0-2.2 1.8-4 4-4h172c2.22 0 4 1.8 4 4v113c0 2.2-1.78 4-4 4H751c-2.2 0-4-1.8-4-4z" stroke="#282c33" stroke-width="4" fill="#fff"/><use xlink:href="#n" transform="matrix(1,0,0,1,755.0077806951806,488) translate(17.625 56.1)"/><path d="M350 657v-3.7m0-7.37v-7.38m0-7.38v-3.7" stroke="#a9afb8" stroke-width="2" fill="none"/><path d="M351 658h-2v-1.03h2z" fill="#a9afb8"/><path d="M350 604.96l12.73 21.52h-25.46z" stroke="#a9afb8" stroke-width="2" fill="#fff"/><path d="M837 657l-.08-3.7m-.13-7.37l-.15-7.38m-.13-7.38l-.07-3.7" stroke="#a9afb8" stroke-width="2" fill="none"/><path d="M838 658h-2v-1l2-.04z" fill="#a9afb8"/><path d="M836.04 604.96l13.12 21.3-25.45.45z" stroke="#a9afb8" stroke-width="2" fill="#fff"/><path d="M874.34 284v192.18" stroke="#a9afb8" stroke-width="2" fill="none"/><path d="M875.34 284.03h-2V283h2z" fill="#a9afb8"/><path d="M864.16 458.82l10.18 17.22 10.18-17.22" stroke="#a9afb8" stroke-width="2" fill="none"/><use xlink:href="#k" transform="matrix(1,0,0,1,856.341114028514,287.45827042396394) translate(0 14.4)"/><path d="M265.43 164c0-2.2 1.8-4 4-4h172c2.2 0 4 1.8 4 4v113c0 2.2-1.8 4-4 4h-172c-2.2 0-4-1.8-4-4z" stroke="#282c33" stroke-width="4" fill="#fff"/><use xlink:href="#o" transform="matrix(1,0,0,1,273.42916308496535,168) translate(1.2250000000000085 56.1)"/><path d="M806 284v112c0 2.2-1.8 4-4 4H394.66c-2.2 0-4 1.8-4 4v72.18" stroke="#a9afb8" stroke-width="2" fill="none"/><path d="M807 284.03h-2V283h2z" fill="#a9afb8"/><path d="M380.5 458.82l10.17 17.22 10.18-17.22" stroke="#a9afb8" stroke-width="2" fill="none"/><use xlink:href="#k" transform="matrix(1,0,0,1,787.9902603896891,286.96955901698965) translate(0 14.4)"/><path d="M312 284v192.18" stroke="#a9afb8" stroke-width="2" fill="none"/><path d="M313 284.03h-2V283h2z" fill="#a9afb8"/><path d="M301.82 458.82L312 476.04l10.18-17.22" stroke="#a9afb8" stroke-width="2" fill="none"/><use xlink:href="#k" transform="matrix(1,0,0,1,294,287.95911486876923) translate(0 14.4)"/><path d="M395.9 284v92.5c0 2.2 1.78 4 4 4h391c2.2 0 4 1.8 4 4v91.68" stroke="#a9afb8" stroke-width="2" fill="none"/><path d="M396.9 284.03h-2V283h2z" fill="#a9afb8"/><path d="M784.7 458.82l10.2 17.22 10.17-17.22" stroke="#a9afb8" stroke-width="2" fill="none"/><use xlink:href="#k" transform="matrix(1,0,0,1,377.88513855673966,288.5802356897022) translate(0 14.4)"/><path d="M753.43 187.38h-25.75c-2.2 0-4-1.8-4-4v-53.5c0-2.2-1.8-4-4-4h-24.93" stroke="#a9afb8" stroke-width="2" fill="none"/><path d="M754.43 188.38h-1.02v-2h1.03z" fill="#a9afb8"/><path d="M712.1 115.7l-17.2 10.18 17.2 10.18" stroke="#a9afb8" stroke-width="2" fill="none"/><use xlink:href="#k" transform="matrix(1,0,0,1,731.6827488465976,159.7595061260723) translate(0 14.4)"/><path d="M753.43 247.96h-25.75c-2.2 0-4 1.8-4 4v53.5c0 2.22-1.8 4-4 4h-24.93" stroke="#a9afb8" stroke-width="2" fill="none"/><path d="M754.43 248.96h-1.02v-2h1.03z" fill="#a9afb8"/><path d="M712.1 299.3l-17.2 10.17 17.2 10.18" stroke="#a9afb8" stroke-width="2" fill="none"/><use xlink:href="#k" transform="matrix(1,0,0,1,732.3086467165126,222.36484750676848) translate(0 14.4)"/><path d="M448.43 182h25.75c2.2 0 4-1.8 4-4v-53.5c0-2.2 1.8-4 4-4h24.93" stroke="#a9afb8" stroke-width="2" fill="none"/><path d="M448.45 183h-1.02v-2h1.02z" fill="#a9afb8"/><path d="M489.75 130.68l17.22-10.18-17.22-10.18" stroke="#a9afb8" stroke-width="2" fill="none"/><use xlink:href="#k" transform="matrix(1,0,0,1,454.0465189385329,156.4023905077548) translate(0 14.4)"/><path d="M448.43 252.63h25.75c2.2 0 4 1.8 4 4v53.5c0 2.2 1.8 4 4 4h24.93" stroke="#a9afb8" stroke-width="2" fill="none"/><path d="M448.45 253.63h-1.02v-2h1.02z" fill="#a9afb8"/><path d="M489.75 324.3l17.22-10.17-17.22-10.18" stroke="#a9afb8" stroke-width="2" fill="none"/><use xlink:href="#k" transform="matrix(1,0,0,1,455.909881401332,227.02513298214288) translate(0 14.4)"/><defs><path fill="#5d646f" d="M240 0l2-218c-23 76-54 145-80 218h-23L58-218 59 0H30v-248h44l77 211c21-75 51-140 76-211h43V0h-30" id="p"/><path fill="#5d646f" d="M24-231v-30h32v30H24zM24 0v-190h32V0H24" id="q"/><path fill="#5d646f" d="M117-194c89-4 53 116 60 194h-32v-121c0-31-8-49-39-48C34-167 62-67 57 0H25l-1-190h30c1 10-1 24 2 32 11-22 29-35 61-36" id="r"/><path fill="#5d646f" d="M59-47c-2 24 18 29 38 22v24C64 9 27 4 27-40v-127H5v-23h24l9-43h21v43h35v23H59v120" id="s"/><path fill="#5d646f" d="M206 0h-36l-40-164L89 0H53L-1-190h32L70-26l43-164h34l41 164 42-164h31" id="t"/><path fill="#5d646f" d="M212-179c-10-28-35-45-73-45-59 0-87 40-87 99 0 60 29 101 89 101 43 0 62-24 78-52l27 14C228-24 195 4 139 4 59 4 22-46 18-125c-6-104 99-153 187-111 19 9 31 26 39 46" id="u"/><path fill="#5d646f" d="M100-194c62-1 85 37 85 99 1 63-27 99-86 99S16-35 15-95c0-66 28-99 85-99zM99-20c44 1 53-31 53-75 0-43-8-75-51-75s-53 32-53 75 10 74 51 75" id="v"/><path fill="#5d646f" d="M114-163C36-179 61-72 57 0H25l-1-190h30c1 12-1 29 2 39 6-27 23-49 58-41v29" id="w"/><path fill="#5d646f" d="M24 0v-261h32V0H24" id="x"/><path fill="#5d646f" d="M100-194c63 0 86 42 84 106H49c0 40 14 67 53 68 26 1 43-12 49-29l28 8c-11 28-37 45-77 45C44 4 14-33 15-96c1-61 26-98 85-98zm52 81c6-60-76-77-97-28-3 7-6 17-6 28h103" id="y"/><g id="a"><use transform="matrix(0.05,0,0,0.05,0,0)" xlink:href="#p"/><use transform="matrix(0.05,0,0,0.05,14.950000000000001,0)" xlink:href="#q"/><use transform="matrix(0.05,0,0,0.05,18.900000000000002,0)" xlink:href="#r"/><use transform="matrix(0.05,0,0,0.05,28.900000000000002,0)" xlink:href="#q"/><use transform="matrix(0.05,0,0,0.05,32.85,0)" xlink:href="#s"/><use transform="matrix(0.05,0,0,0.05,37.85,0)" xlink:href="#t"/><use transform="matrix(0.05,0,0,0.05,50.800000000000004,0)" xlink:href="#q"/><use transform="matrix(0.05,0,0,0.05,54.75,0)" xlink:href="#s"/><use transform="matrix(0.05,0,0,0.05,59.75,0)" xlink:href="#u"/><use transform="matrix(0.05,0,0,0.05,72.7,0)" xlink:href="#v"/><use transform="matrix(0.05,0,0,0.05,82.7,0)" xlink:href="#r"/><use transform="matrix(0.05,0,0,0.05,92.7,0)" xlink:href="#s"/><use transform="matrix(0.05,0,0,0.05,97.7,0)" xlink:href="#w"/><use transform="matrix(0.05,0,0,0.05,103.65,0)" xlink:href="#v"/><use transform="matrix(0.05,0,0,0.05,113.65,0)" xlink:href="#x"/><use transform="matrix(0.05,0,0,0.05,117.60000000000001,0)" xlink:href="#x"/><use transform="matrix(0.05,0,0,0.05,121.55000000000001,0)" xlink:href="#y"/><use transform="matrix(0.05,0,0,0.05,131.55,0)" xlink:href="#w"/></g><path fill="#5d646f" d="M135-143c-3-34-86-38-87 0 15 53 115 12 119 90S17 21 10-45l28-5c4 36 97 45 98 0-10-56-113-15-118-90-4-57 82-63 122-42 12 7 21 19 24 35" id="z"/><path fill="#5d646f" d="M141-36C126-15 110 5 73 4 37 3 15-17 15-53c-1-64 63-63 125-63 3-35-9-54-41-54-24 1-41 7-42 31l-33-3c5-37 33-52 76-52 45 0 72 20 72 64v82c-1 20 7 32 28 27v20c-31 9-61-2-59-35zM48-53c0 20 12 33 32 33 41-3 63-29 60-74-43 2-92-5-92 41" id="A"/><path fill="#5d646f" d="M177-190C167-65 218 103 67 71c-23-6-38-20-44-43l32-5c15 47 100 32 89-28v-30C133-14 115 1 83 1 29 1 15-40 15-95c0-56 16-97 71-98 29-1 48 16 59 35 1-10 0-23 2-32h30zM94-22c36 0 50-32 50-73 0-42-14-75-50-75-39 0-46 34-46 75s6 73 46 73" id="B"/><path fill="#5d646f" d="M233-177c-1 41-23 64-60 70L243 0h-38l-65-103H63V0H30v-248c88 3 205-21 203 71zM63-129c60-2 137 13 137-47 0-61-80-42-137-45v92" id="C"/><path fill="#5d646f" d="M115-194c55 1 70 41 70 98S169 2 115 4C84 4 66-9 55-30l1 105H24l-1-265h31l2 30c10-21 28-34 59-34zm-8 174c40 0 45-34 45-75s-6-73-45-74c-42 0-51 32-51 76 0 43 10 73 51 73" id="D"/><path fill="#5d646f" d="M179-190L93 31C79 59 56 82 12 73V49c39 6 53-20 64-50L1-190h34L92-34l54-156h33" id="E"/><g id="b"><use transform="matrix(0.05,0,0,0.05,0,0)" xlink:href="#p"/><use transform="matrix(0.05,0,0,0.05,14.950000000000001,0)" xlink:href="#y"/><use transform="matrix(0.05,0,0,0.05,24.950000000000003,0)" xlink:href="#z"/><use transform="matrix(0.05,0,0,0.05,33.95,0)" xlink:href="#z"/><use transform="matrix(0.05,0,0,0.05,42.95,0)" xlink:href="#A"/><use transform="matrix(0.05,0,0,0.05,52.95,0)" xlink:href="#B"/><use transform="matrix(0.05,0,0,0.05,62.95,0)" xlink:href="#y"/><use transform="matrix(0.05,0,0,0.05,72.95,0)" xlink:href="#C"/><use transform="matrix(0.05,0,0,0.05,85.9,0)" xlink:href="#y"/><use transform="matrix(0.05,0,0,0.05,95.9,0)" xlink:href="#D"/><use transform="matrix(0.05,0,0,0.05,105.9,0)" xlink:href="#v"/><use transform="matrix(0.05,0,0,0.05,115.9,0)" xlink:href="#z"/><use transform="matrix(0.05,0,0,0.05,124.9,0)" xlink:href="#q"/><use transform="matrix(0.05,0,0,0.05,128.85,0)" xlink:href="#s"/><use transform="matrix(0.05,0,0,0.05,133.85,0)" xlink:href="#v"/><use transform="matrix(0.05,0,0,0.05,143.85,0)" xlink:href="#w"/><use transform="matrix(0.05,0,0,0.05,149.79999999999998,0)" xlink:href="#E"/></g><path fill="#5d646f" d="M232-93c-1 65-40 97-104 97C67 4 28-28 28-90v-158h33c8 89-33 224 67 224 102 0 64-133 71-224h33v155" id="F"/><g id="c"><use transform="matrix(0.05,0,0,0.05,0,0)" xlink:href="#F"/><use transform="matrix(0.05,0,0,0.05,12.950000000000001,0)" xlink:href="#z"/><use transform="matrix(0.05,0,0,0.05,21.950000000000003,0)" xlink:href="#y"/><use transform="matrix(0.05,0,0,0.05,31.950000000000003,0)" xlink:href="#w"/><use transform="matrix(0.05,0,0,0.05,37.900000000000006,0)" xlink:href="#C"/><use transform="matrix(0.05,0,0,0.05,50.85000000000001,0)" xlink:href="#y"/><use transform="matrix(0.05,0,0,0.05,60.85,0)" xlink:href="#D"/><use transform="matrix(0.05,0,0,0.05,70.85000000000001,0)" xlink:href="#v"/><use transform="matrix(0.05,0,0,0.05,80.85000000000001,0)" xlink:href="#z"/><use transform="matrix(0.05,0,0,0.05,89.85000000000001,0)" xlink:href="#q"/><use transform="matrix(0.05,0,0,0.05,93.80000000000001,0)" xlink:href="#s"/><use transform="matrix(0.05,0,0,0.05,98.80000000000001,0)" xlink:href="#v"/><use transform="matrix(0.05,0,0,0.05,108.80000000000001,0)" xlink:href="#w"/><use transform="matrix(0.05,0,0,0.05,114.75,0)" xlink:href="#E"/></g><path fill="#5d646f" d="M185-189c-5-48-123-54-124 2 14 75 158 14 163 119 3 78-121 87-175 55-17-10-28-26-33-46l33-7c5 56 141 63 141-1 0-78-155-14-162-118-5-82 145-84 179-34 5 7 8 16 11 25" id="G"/><path fill="#5d646f" d="M197 0v-115H63V0H30v-248h33v105h134v-105h34V0h-34" id="H"/><g id="d"><use transform="matrix(0.05,0,0,0.05,0,0)" xlink:href="#G"/><use transform="matrix(0.05,0,0,0.05,12,0)" xlink:href="#y"/><use transform="matrix(0.05,0,0,0.05,22,0)" xlink:href="#z"/><use transform="matrix(0.05,0,0,0.05,31,0)" xlink:href="#z"/><use transform="matrix(0.05,0,0,0.05,40,0)" xlink:href="#q"/><use transform="matrix(0.05,0,0,0.05,43.95,0)" xlink:href="#v"/><use transform="matrix(0.05,0,0,0.05,53.95,0)" xlink:href="#r"/><use transform="matrix(0.05,0,0,0.05,63.95,0)" xlink:href="#H"/><use transform="matrix(0.05,0,0,0.05,76.9,0)" xlink:href="#y"/><use transform="matrix(0.05,0,0,0.05,86.9,0)" xlink:href="#x"/><use transform="matrix(0.05,0,0,0.05,90.85000000000001,0)" xlink:href="#D"/><use transform="matrix(0.05,0,0,0.05,100.85000000000001,0)" xlink:href="#y"/><use transform="matrix(0.05,0,0,0.05,110.85000000000001,0)" xlink:href="#w"/></g><path fill="#5d646f" d="M141 0L90-78 38 0H4l68-98-65-92h35l48 74 47-74h35l-64 92 68 98h-35" id="I"/><g id="e"><use transform="matrix(0.05,0,0,0.05,0,0)" xlink:href="#p"/><use transform="matrix(0.05,0,0,0.05,14.950000000000001,0)" xlink:href="#q"/><use transform="matrix(0.05,0,0,0.05,18.900000000000002,0)" xlink:href="#r"/><use transform="matrix(0.05,0,0,0.05,28.900000000000002,0)" xlink:href="#q"/><use transform="matrix(0.05,0,0,0.05,32.85,0)" xlink:href="#s"/><use transform="matrix(0.05,0,0,0.05,37.85,0)" xlink:href="#t"/><use transform="matrix(0.05,0,0,0.05,50.800000000000004,0)" xlink:href="#q"/><use transform="matrix(0.05,0,0,0.05,54.75,0)" xlink:href="#s"/><use transform="matrix(0.05,0,0,0.05,59.75,0)" xlink:href="#u"/><use transform="matrix(0.05,0,0,0.05,72.7,0)" xlink:href="#v"/><use transform="matrix(0.05,0,0,0.05,82.7,0)" xlink:href="#r"/><use transform="matrix(0.05,0,0,0.05,92.7,0)" xlink:href="#s"/><use transform="matrix(0.05,0,0,0.05,97.7,0)" xlink:href="#y"/><use transform="matrix(0.05,0,0,0.05,107.7,0)" xlink:href="#I"/><use transform="matrix(0.05,0,0,0.05,116.7,0)" xlink:href="#s"/></g><g id="f"><use transform="matrix(0.05,0,0,0.05,0,0)" xlink:href="#F"/><use transform="matrix(0.05,0,0,0.05,12.950000000000001,0)" xlink:href="#z"/><use transform="matrix(0.05,0,0,0.05,21.950000000000003,0)" xlink:href="#y"/><use transform="matrix(0.05,0,0,0.05,31.950000000000003,0)" xlink:href="#w"/></g><g id="g"><use transform="matrix(0.05,0,0,0.05,0,0)" xlink:href="#p"/><use transform="matrix(0.05,0,0,0.05,14.950000000000001,0)" xlink:href="#y"/><use transform="matrix(0.05,0,0,0.05,24.950000000000003,0)" xlink:href="#z"/><use transform="matrix(0.05,0,0,0.05,33.95,0)" xlink:href="#z"/><use transform="matrix(0.05,0,0,0.05,42.95,0)" xlink:href="#A"/><use transform="matrix(0.05,0,0,0.05,52.95,0)" xlink:href="#B"/><use transform="matrix(0.05,0,0,0.05,62.95,0)" xlink:href="#y"/></g><path fill="#5d646f" d="M63-220v92h138v28H63V0H30v-248h175v28H63" id="J"/><g id="h"><use transform="matrix(0.05,0,0,0.05,0,0)" xlink:href="#J"/><use transform="matrix(0.05,0,0,0.05,10.950000000000001,0)" xlink:href="#v"/><use transform="matrix(0.05,0,0,0.05,20.950000000000003,0)" xlink:href="#x"/><use transform="matrix(0.05,0,0,0.05,24.900000000000002,0)" xlink:href="#x"/><use transform="matrix(0.05,0,0,0.05,28.85,0)" xlink:href="#v"/><use transform="matrix(0.05,0,0,0.05,38.85,0)" xlink:href="#t"/></g><path fill="#5d646f" d="M80-196l47-18 7 23-49 13 32 44-20 13-27-46-27 45-21-12 33-44-49-13 8-23 47 19-2-53h23" id="K"/><use transform="matrix(0.05,0,0,0.05,0,0)" xlink:href="#K" id="i"/><path fill="#5d646f" d="M33 0v-248h34V0H33" id="L"/><g id="j"><use transform="matrix(0.05,0,0,0.05,0,0)" xlink:href="#L"/><use transform="matrix(0.05,0,0,0.05,5,0)" xlink:href="#p"/><use transform="matrix(0.05,0,0,0.05,19.950000000000003,0)" xlink:href="#q"/><use transform="matrix(0.05,0,0,0.05,23.900000000000002,0)" xlink:href="#r"/><use transform="matrix(0.05,0,0,0.05,33.900000000000006,0)" xlink:href="#q"/><use transform="matrix(0.05,0,0,0.05,37.85000000000001,0)" xlink:href="#s"/><use transform="matrix(0.05,0,0,0.05,42.85000000000001,0)" xlink:href="#t"/><use transform="matrix(0.05,0,0,0.05,55.80000000000001,0)" xlink:href="#q"/><use transform="matrix(0.05,0,0,0.05,59.750000000000014,0)" xlink:href="#s"/><use transform="matrix(0.05,0,0,0.05,64.75000000000001,0)" xlink:href="#u"/><use transform="matrix(0.05,0,0,0.05,77.70000000000002,0)" xlink:href="#v"/><use transform="matrix(0.05,0,0,0.05,87.70000000000002,0)" xlink:href="#r"/><use transform="matrix(0.05,0,0,0.05,97.70000000000002,0)" xlink:href="#s"/><use transform="matrix(0.05,0,0,0.05,102.7,0)" xlink:href="#y"/><use transform="matrix(0.05,0,0,0.05,112.7,0)" xlink:href="#I"/><use transform="matrix(0.05,0,0,0.05,121.7,0)" xlink:href="#s"/></g><path fill="#5d646f" d="M27 0v-27h64v-190l-56 39v-29l58-41h29v221h61V0H27" id="M"/><use transform="matrix(0.05,0,0,0.05,0,0)" xlink:href="#M" id="k"/><path fill="#5d646f" d="M30 0v-248h33v221h125V0H30" id="N"/><g id="l"><use transform="matrix(0.05,0,0,0.05,0,0)" xlink:href="#L"/><use transform="matrix(0.05,0,0,0.05,5,0)" xlink:href="#N"/><use transform="matrix(0.05,0,0,0.05,15,0)" xlink:href="#v"/><use transform="matrix(0.05,0,0,0.05,25,0)" xlink:href="#B"/><use transform="matrix(0.05,0,0,0.05,35,0)" xlink:href="#B"/><use transform="matrix(0.05,0,0,0.05,45,0)" xlink:href="#y"/><use transform="matrix(0.05,0,0,0.05,55,0)" xlink:href="#w"/></g><g id="m"><use transform="matrix(0.05,0,0,0.05,0,0)" xlink:href="#L"/><use transform="matrix(0.05,0,0,0.05,5,0)" xlink:href="#p"/><use transform="matrix(0.05,0,0,0.05,19.950000000000003,0)" xlink:href="#y"/><use transform="matrix(0.05,0,0,0.05,29.950000000000003,0)" xlink:href="#z"/><use transform="matrix(0.05,0,0,0.05,38.95,0)" xlink:href="#z"/><use transform="matrix(0.05,0,0,0.05,47.95,0)" xlink:href="#A"/><use transform="matrix(0.05,0,0,0.05,57.95,0)" xlink:href="#B"/><use transform="matrix(0.05,0,0,0.05,67.95,0)" xlink:href="#y"/><use transform="matrix(0.05,0,0,0.05,77.95,0)" xlink:href="#C"/><use transform="matrix(0.05,0,0,0.05,90.9,0)" xlink:href="#y"/><use transform="matrix(0.05,0,0,0.05,100.9,0)" xlink:href="#D"/><use transform="matrix(0.05,0,0,0.05,110.9,0)" xlink:href="#v"/><use transform="matrix(0.05,0,0,0.05,120.9,0)" xlink:href="#z"/><use transform="matrix(0.05,0,0,0.05,129.9,0)" xlink:href="#q"/><use transform="matrix(0.05,0,0,0.05,133.85,0)" xlink:href="#s"/><use transform="matrix(0.05,0,0,0.05,138.85,0)" xlink:href="#v"/><use transform="matrix(0.05,0,0,0.05,148.85,0)" xlink:href="#w"/><use transform="matrix(0.05,0,0,0.05,154.79999999999998,0)" xlink:href="#E"/></g><g id="n"><use transform="matrix(0.05,0,0,0.05,0,0)" xlink:href="#L"/><use transform="matrix(0.05,0,0,0.05,5,0)" xlink:href="#F"/><use transform="matrix(0.05,0,0,0.05,17.950000000000003,0)" xlink:href="#z"/><use transform="matrix(0.05,0,0,0.05,26.950000000000003,0)" xlink:href="#y"/><use transform="matrix(0.05,0,0,0.05,36.95,0)" xlink:href="#w"/><use transform="matrix(0.05,0,0,0.05,42.900000000000006,0)" xlink:href="#C"/><use transform="matrix(0.05,0,0,0.05,55.85,0)" xlink:href="#y"/><use transform="matrix(0.05,0,0,0.05,65.85000000000001,0)" xlink:href="#D"/><use transform="matrix(0.05,0,0,0.05,75.85000000000001,0)" xlink:href="#v"/><use transform="matrix(0.05,0,0,0.05,85.85000000000001,0)" xlink:href="#z"/><use transform="matrix(0.05,0,0,0.05,94.85000000000001,0)" xlink:href="#q"/><use transform="matrix(0.05,0,0,0.05,98.80000000000001,0)" xlink:href="#s"/><use transform="matrix(0.05,0,0,0.05,103.80000000000001,0)" xlink:href="#v"/><use transform="matrix(0.05,0,0,0.05,113.80000000000001,0)" xlink:href="#w"/><use transform="matrix(0.05,0,0,0.05,119.75,0)" xlink:href="#E"/></g><path fill="#5d646f" d="M210-169c-67 3-38 105-44 169h-31v-121c0-29-5-50-35-48C34-165 62-65 56 0H25l-1-190h30c1 10-1 24 2 32 10-44 99-50 107 0 11-21 27-35 58-36 85-2 47 119 55 194h-31v-121c0-29-5-49-35-48" id="O"/><path fill="#5d646f" d="M84 4C-5 8 30-112 23-190h32v120c0 31 7 50 39 49 72-2 45-101 50-169h31l1 190h-30c-1-10 1-25-2-33-11 22-28 36-60 37" id="P"/><g id="o"><use transform="matrix(0.05,0,0,0.05,0,0)" xlink:href="#G"/><use transform="matrix(0.05,0,0,0.05,12,0)" xlink:href="#q"/><use transform="matrix(0.05,0,0,0.05,15.949999999999998,0)" xlink:href="#O"/><use transform="matrix(0.05,0,0,0.05,30.899999999999995,0)" xlink:href="#P"/><use transform="matrix(0.05,0,0,0.05,40.9,0)" xlink:href="#x"/><use transform="matrix(0.05,0,0,0.05,44.85,0)" xlink:href="#A"/><use transform="matrix(0.05,0,0,0.05,54.85,0)" xlink:href="#s"/><use transform="matrix(0.05,0,0,0.05,59.85,0)" xlink:href="#q"/><use transform="matrix(0.05,0,0,0.05,63.800000000000004,0)" xlink:href="#v"/><use transform="matrix(0.05,0,0,0.05,73.80000000000001,0)" xlink:href="#r"/><use transform="matrix(0.05,0,0,0.05,83.80000000000001,0)" xlink:href="#u"/><use transform="matrix(0.05,0,0,0.05,96.75000000000001,0)" xlink:href="#v"/><use transform="matrix(0.05,0,0,0.05,106.75,0)" xlink:href="#r"/><use transform="matrix(0.05,0,0,0.05,116.75,0)" xlink:href="#s"/><use transform="matrix(0.05,0,0,0.05,121.75,0)" xlink:href="#w"/><use transform="matrix(0.05,0,0,0.05,127.7,0)" xlink:href="#v"/><use transform="matrix(0.05,0,0,0.05,137.70000000000002,0)" xlink:href="#x"/><use transform="matrix(0.05,0,0,0.05,141.65,0)" xlink:href="#x"/><use transform="matrix(0.05,0,0,0.05,145.6,0)" xlink:href="#y"/><use transform="matrix(0.05,0,0,0.05,155.6,0)" xlink:href="#w"/></g></defs></g></svg>