<svg xmlns="http://www.w3.org/2000/svg" xmlns:xlink="http://www.w3.org/1999/xlink" xmlns:lucid="lucid" width="1140" height="1198"><g transform="translate(0 0)" lucid:page-tab-id="aetH~-p4Nq_9"><path d="M0 0h1140v1198H0z" fill="#fff"/><path d="M730 866.5c0-2.22 1.38-5.16 3.07-6.57l30.73-25.6c1.7-1.42 4.86-2.57 7.07-2.57H1066c2.2 0 4 1.8 4 4v262.37c0 2.2-1.15 5.38-2.56 7.07l-25.6 30.73c-1.42 1.7-4.35 3.07-6.56 3.07H734c-2.2 0-4-1.8-4-4z" stroke="#282c33" stroke-width="4" fill="#fff"/><path d="M734 862.5c-2.2 0-2.62-1.16-.93-2.57l30.73-25.6c1.7-1.42 4.86-2.57 7.07-2.57H1066c2.2 0 2.73 1.27 1.17 2.83l-25.07 25.06c-1.56 1.56-4.6 2.83-6.82 2.83z" stroke="#282c33" stroke-width="4" fill="#e6e6e6"/><path d="M1039.28 866.5c0-2.22 1.26-5.28 2.82-6.84l25.07-25.07c1.56-1.57 2.83-1.04 2.83 1.16v262.37c0 2.2-1.15 5.38-2.56 7.07l-25.6 30.73c-1.42 1.7-2.56 1.28-2.56-.93z" stroke="#282c33" stroke-width="4" fill="#ccc"/><use xlink:href="#a" transform="matrix(1,0,0,1,738,870.4878614358054) translate(91.29999999999998 16.6)"/><use xlink:href="#b" transform="matrix(1,0,0,1,738,870.4878614358054) translate(176.14999999999998 16.6)"/><path d="M743.6 963c0-2.2 1.8-4 4-4h125.82c2.2 0 4 1.8 4 4v92c0 2.2-1.8 4-4 4H747.6c-2.2 0-4-1.8-4-4z" stroke="#282c33" stroke-width="4" fill-opacity="0"/><use xlink:href="#c" transform="matrix(1,0,0,1,751.6,967) translate(0 14.4)"/><use xlink:href="#d" transform="matrix(1,0,0,1,751.6,967) translate(0 36)"/><use xlink:href="#e" transform="matrix(1,0,0,1,751.6,967) translate(0 57.6)"/><path d="M290 866.67c0-2.2 1.38-5.14 3.07-6.56l30.95-25.77c1.7-1.42 4.86-2.57 7.07-2.57H686c2.2 0 4 1.8 4 4v264c0 2.2-1.15 5.38-2.56 7.08l-25.8 30.94c-1.4 1.7-4.34 3.08-6.55 3.08H294c-2.2 0-4-1.8-4-4z" stroke="#282c33" stroke-width="4" fill="#fff"/><path d="M294 862.67c-2.2 0-2.62-1.14-.93-2.56l30.95-25.77c1.7-1.42 4.86-2.57 7.07-2.57H686c2.2 0 2.73 1.27 1.17 2.83l-25.25 25.24c-1.56 1.57-4.62 2.83-6.83 2.83z" stroke="#282c33" stroke-width="4" fill="#e6e6e6"/><path d="M659.1 866.67c0-2.2 1.26-5.26 2.82-6.83l25.25-25.25c1.56-1.57 2.83-1.04 2.83 1.16v264c0 2.2-1.15 5.38-2.56 7.08l-25.8 30.94c-1.4 1.7-2.55 1.28-2.55-.92z" stroke="#282c33" stroke-width="4" fill="#ccc"/><use xlink:href="#f" transform="matrix(1,0,0,1,298,870.6733813933191) translate(73.8 16.6)"/><use xlink:href="#g" transform="matrix(1,0,0,1,298,870.6733813933191) translate(134.35 16.6)"/><path d="M290 151c0-2.2 1.38-5.15 3.07-6.56l27.46-22.88c1.7-1.4 4.86-2.56 7.07-2.56H566c2.2 0 4 1.8 4 4v598.4c0 2.2-1.15 5.38-2.56 7.07l-22.88 27.46c-1.4 1.7-4.35 3.07-6.56 3.07H294c-2.2 0-4-1.8-4-4z" stroke="#282c33" stroke-width="4" fill="#fff"/><path d="M294 147c-2.2 0-2.62-1.15-.93-2.56l27.46-22.88c1.7-1.4 4.86-2.56 7.07-2.56H566c2.2 0 2.73 1.27 1.17 2.83l-22.34 22.34c-1.56 1.56-4.62 2.83-6.83 2.83z" stroke="#282c33" stroke-width="4" fill="#e6e6e6"/><path d="M542 151c0-2.2 1.27-5.27 2.83-6.83l22.34-22.34c1.56-1.56 2.83-1.04 2.83 1.17v598.4c0 2.2-1.15 5.38-2.56 7.07l-22.88 27.46c-1.4 1.7-2.56 1.28-2.56-.93z" stroke="#282c33" stroke-width="4" fill="#ccc"/><use xlink:href="#h" transform="matrix(1,0,0,1,297.99999999999983,155.00000000000003) translate(0 16.6)"/><use xlink:href="#g" transform="matrix(1,0,0,1,297.99999999999983,155.00000000000003) translate(60.55 16.6)"/><path d="M250 23c0-2.2 1.8-4 4-4h852c2.2 0 4 1.8 4 4v1152c0 2.2-1.8 4-4 4H254c-2.2 0-4-1.8-4-4z" stroke="#282c33" stroke-width="4" fill-opacity="0"/><use xlink:href="#i" transform="matrix(1,0,0,1,258,27) translate(0 14.4)"/><use xlink:href="#j" transform="matrix(1,0,0,1,258,27) translate(89.95 14.4)"/><use xlink:href="#k" transform="matrix(1,0,0,1,258,27) translate(144.75 14.4)"/><path d="M302.2 215.38c0-2.2 1.37-5.14 3.06-6.56L325 192.38c1.7-1.4 4.86-2.56 7.07-2.56H513.8c2.22 0 4 1.8 4 4v395.3c0 2.22-1.14 5.38-2.55 7.08l-16.44 19.73c-1.4 1.7-4.34 3.07-6.55 3.07H306.2c-2.22 0-4-1.8-4-4z" stroke="#282c33" stroke-width="4" fill="#fff"/><path d="M306.2 211.38c-2.22 0-2.63-1.14-.94-2.56L325 192.38c1.7-1.4 4.86-2.56 7.07-2.56H513.8c2.22 0 2.74 1.27 1.18 2.83l-15.9 15.9c-1.57 1.57-4.62 2.83-6.83 2.83z" stroke="#282c33" stroke-width="4" fill="#e6e6e6"/><path d="M496.25 215.38c0-2.2 1.26-5.26 2.83-6.83l15.9-15.9c1.56-1.56 2.83-1.04 2.83 1.17v395.3c0 2.22-1.14 5.38-2.55 7.08l-16.44 19.73c-1.4 1.7-2.55 1.28-2.55-.93z" stroke="#282c33" stroke-width="4" fill="#ccc"/><use xlink:href="#l" transform="matrix(1,0,0,1,310.19126942812534,219.38171046375126) translate(0 14.4)"/><use xlink:href="#m" transform="matrix(1,0,0,1,310.19126942812534,219.38171046375126) translate(65.9 14.4)"/><use xlink:href="#n" transform="matrix(1,0,0,1,310.19126942812534,219.38171046375126) translate(0 36)"/><use xlink:href="#o" transform="matrix(1,0,0,1,310.19126942812534,219.38171046375126) translate(69.95 36)"/><path d="M30 572.1c0-2.22 1.38-5.16 3.07-6.57l17.86-14.88c1.7-1.4 4.86-2.56 7.07-2.56h168c2.2 0 4 1.78 4 4V731c0 2.2-1.15 5.38-2.56 7.07l-14.88 17.86c-1.4 1.7-4.35 3.07-6.56 3.07H34c-2.2 0-4-1.8-4-4z" stroke="#282c33" stroke-width="4" fill="#fff"/><path d="M34 568.1c-2.2 0-2.62-1.16-.93-2.57l17.86-14.88c1.7-1.4 4.86-2.56 7.07-2.56h168c2.2 0 2.73 1.26 1.17 2.82l-14.34 14.34c-1.56 1.56-4.62 2.83-6.83 2.83z" stroke="#282c33" stroke-width="4" fill="#e6e6e6"/><path d="M210 572.1c0-2.22 1.27-5.28 2.83-6.84l14.34-14.34c1.56-1.56 2.83-1.04 2.83 1.17V731c0 2.2-1.15 5.38-2.56 7.07l-14.88 17.86c-1.4 1.7-2.56 1.28-2.56-.93z" stroke="#282c33" stroke-width="4" fill="#ccc"/><use xlink:href="#p" transform="matrix(1,0,0,1,38,576.0909090909088) translate(0 16.6)"/><use xlink:href="#q" transform="matrix(1,0,0,1,38,576.0909090909088) translate(44.95 16.6)"/><path d="M47.78 632.1c0-2.22 1.8-4 4-4H186c2.2 0 4 1.78 4 4v99.47c0 2.2-1.8 4-4 4H51.78c-2.2 0-4-1.8-4-4z" stroke="#282c33" stroke-width="4" fill-opacity="0"/><use xlink:href="#r" transform="matrix(1,0,0,1,55.777777777777814,636.0909090909088) translate(30.575000000000003 15.6)"/><path d="M270 76c0-2.2 1.8-4 4-4h812c2.2 0 4 1.8 4 4v699c0 2.2-1.8 4-4 4H274c-2.2 0-4-1.8-4-4z" stroke="#282c33" stroke-width="4" fill-opacity="0"/><use xlink:href="#s" transform="matrix(1,0,0,1,278,80) translate(0 14.4)"/><use xlink:href="#t" transform="matrix(1,0,0,1,278,80) translate(150.85000000000002 14.4)"/><use xlink:href="#u" transform="matrix(1,0,0,1,278,80) translate(212.75000000000003 14.4)"/><path d="M30 872.1c0-2.22 1.38-5.16 3.07-6.57l17.86-14.88c1.7-1.4 4.86-2.56 7.07-2.56h168c2.2 0 4 1.78 4 4V1031c0 2.2-1.15 5.38-2.56 7.07l-14.88 17.86c-1.4 1.7-4.35 3.07-6.56 3.07H34c-2.2 0-4-1.8-4-4z" stroke="#282c33" stroke-width="4" fill="#fff"/><path d="M34 868.1c-2.2 0-2.62-1.16-.93-2.57l17.86-14.88c1.7-1.4 4.86-2.56 7.07-2.56h168c2.2 0 2.73 1.26 1.17 2.82l-14.34 14.34c-1.56 1.56-4.62 2.83-6.83 2.83z" stroke="#282c33" stroke-width="4" fill="#e6e6e6"/><path d="M210 872.1c0-2.22 1.27-5.28 2.83-6.84l14.34-14.34c1.56-1.56 2.83-1.04 2.83 1.17V1031c0 2.2-1.15 5.38-2.56 7.07l-14.88 17.86c-1.4 1.7-2.56 1.28-2.56-.93z" stroke="#282c33" stroke-width="4" fill="#ccc"/><use xlink:href="#v" transform="matrix(1,0,0,1,38,876.090909090909) translate(0 16.6)"/><path d="M47.78 932.1c0-2.22 1.8-4 4-4H186c2.2 0 4 1.78 4 4v99.47c0 2.2-1.8 4-4 4H51.78c-2.2 0-4-1.8-4-4z" stroke="#282c33" stroke-width="4" fill-opacity="0"/><use xlink:href="#w" transform="matrix(1,0,0,1,55.777777777777814,936.0909090909088) translate(13.599999999999994 15.6)"/><use xlink:href="#x" transform="matrix(1,0,0,1,55.777777777777814,936.0909090909088) translate(56.5 15.6)"/><path d="M144.33 907.6h-2v-88.43h2zm0-110.03h-2v-59h2z"/><path d="M144.33 738.6h-2v-1.03h2zM143.33 922.85l-4.63-14.26h9.27z"/><path d="M143.33 926.1l-6-18.5h12.02zm-3.26-16.5l3.26 10.02 3.26-10.03z"/><use xlink:href="#y" transform="matrix(1,0,0,1,133.38333333333327,797.5696106869433) translate(0 14.4)"/><path d="M393 459.24v-6m0-24c6.63 0 12 5.37 12 12 0 6.62-5.37 12-12 12s-12-5.38-12-12c0-6.63 5.37-12 12-12z" stroke="#282c33" stroke-width="4" fill="#fff"/><path d="M392.52 459.24v-6h.96v6z" fill="none"/><path d="M395.5 499.1l-4 .04-.15-12.2h4zm-.42-33.76h-4l-.05-4.08 4-.05z"/><path d="M391 459.24h4l.03 2.02-4 .05-.07-5.04zM395.53 501.1h-4l-.02-2 4-.06z"/><use xlink:href="#z" transform="matrix(1,0,0,1,364.76546168742016,465.3383515259009) translate(0 14.4)"/><path d="M330 523.55c0-2.2 1.8-4 4-4h119.07c2.2 0 4 1.8 4 4v71.14c0 2.2-1.8 4-4 4H334c-2.2 0-4-1.8-4-4z" stroke="#282c33" stroke-width="4" fill="#fff"/><path d="M447.07 529.55h-15v20h15z" stroke="#282c33" fill="#fff"/><path d="M437.07 532.88h-10v3.34h10zm0 10h-10v3.34h10z" stroke="#282c33" fill="#fff"/><use xlink:href="#A" transform="matrix(1,0,0,1,330,519.5507301586076) translate(16.57999999999999 44.4)"/><path d="M193.3 681.28l-1.85-.75L263 504.15h2.16zm134.94-332.62l-54.32 133.9h-2.15L326.4 347.9z"/><path d="M193.3 681.25l-1.3 3.24v-3.78zM331.2 368.05l-1.97.3-2.7-18.1-14.57 11.1-1.2-1.6L328 346.6z"/><use xlink:href="#B" transform="matrix(1,0,0,1,253.46410261170672,482.550697185885) translate(0 14.4)"/><path d="M91 925.1h-2V820.5h2zm0-126.2h-2v-42.83h2zM94.64 755.07h-9.28L90 740.8z"/><path d="M96 756.07H84l6-18.5zm-9.26-2h6.52L90 744.04zM91 926.1h-2v-1.03h2z"/><use xlink:href="#C" transform="matrix(1,0,0,1,83.02499999999999,798.9029440202767) translate(0 14.4)"/><path d="M330 310.22c0-2.2 1.8-4 4-4h119.07c2.2 0 4 1.8 4 4v71.14c0 2.2-1.8 4-4 4H334c-2.2 0-4-1.8-4-4z" stroke="#282c33" stroke-width="4" fill="#fff"/><path d="M447.07 316.22h-15v20h15z" stroke="#282c33" fill="#fff"/><path d="M437.07 319.56h-10v3.33h10zm0 10h-10v3.33h10z" stroke="#282c33" fill="#fff"/><use xlink:href="#D" transform="matrix(1,0,0,1,330,306.2247357818244) translate(28.505000000000003 31.9)"/><use xlink:href="#E" transform="matrix(1,0,0,1,330,306.2247357818244) translate(29.054999999999993 53.5)"/><path d="M383.78 530.63c-2.2 0-4-1.8-4-4V507.1c0-2.2 1.8-4 4-4h19.5c2.22 0 4 1.8 4 4v19.53c0 2.2-1.78 4-4 4z" stroke="#282c33" stroke-width="4" fill="#fff"/><path d="M392.87 388.36l-.5 37.13" stroke="#000" stroke-width="2" fill="none"/><path d="M393.87 388.4l-2-.03.02-1h2z"/><path d="M382.43 408l9.95 17.34 10.4-17.08" stroke="#000" stroke-width="2" fill="none"/><path d="M330 663c0-2.2 1.8-4 4-4h152c2.2 0 4 1.8 4 4v72c0 2.2-1.8 4-4 4H334c-2.2 0-4-1.8-4-4z" stroke="#282c33" stroke-width="4" fill="#fff"/><use xlink:href="#F" transform="matrix(1,0,0,1,330,658.9999999999999) translate(19.10499999999999 44.4)"/><use xlink:href="#G" transform="matrix(1,0,0,1,330,658.9999999999999) translate(81.005 44.4)"/><path d="M411 656h-2v-6.2h2zm0-27.8h-2V622h2z"/><path d="M411 657h-2v-1.03h2zM411 622.03h-2V621h2z"/><use xlink:href="#H" transform="matrix(1,0,0,1,375.025,628.2000001746881) translate(0 14.4)"/><path d="M590 145c0-2.2 1.38-5.15 3.07-6.56l20.26-16.88c1.7-1.4 4.86-2.56 7.07-2.56H806c2.2 0 4 1.8 4 4v605.6c0 2.2-1.15 5.38-2.56 7.07l-16.88 20.26c-1.4 1.7-4.35 3.07-6.56 3.07H594c-2.2 0-4-1.8-4-4z" stroke="#282c33" stroke-width="4" fill="#fff"/><path d="M594 141c-2.2 0-2.62-1.15-.93-2.56l20.26-16.88c1.7-1.4 4.86-2.56 7.07-2.56H806c2.2 0 2.73 1.27 1.17 2.83l-16.34 16.34c-1.56 1.56-4.62 2.83-6.83 2.83z" stroke="#282c33" stroke-width="4" fill="#e6e6e6"/><path d="M788 145c0-2.2 1.27-5.27 2.83-6.83l16.34-16.34c1.56-1.56 2.83-1.04 2.83 1.17v605.6c0 2.2-1.15 5.38-2.56 7.07l-16.88 20.26c-1.4 1.7-2.56 1.28-2.56-.93z" stroke="#282c33" stroke-width="4" fill="#ccc"/><use xlink:href="#h" transform="matrix(1,0,0,1,598,149) translate(0 16.6)"/><use xlink:href="#g" transform="matrix(1,0,0,1,598,149) translate(60.55 16.6)"/><path d="M610 209.82c0-2.2 1.38-5.15 3.07-6.56l13.06-10.88c1.7-1.4 4.86-2.56 7.07-2.56H766c2.2 0 4 1.8 4 4V595.8c0 2.2-1.15 5.38-2.56 7.07l-10.88 13.06c-1.4 1.7-4.35 3.07-6.56 3.07H614c-2.2 0-4-1.8-4-4z" stroke="#282c33" stroke-width="4" fill="#fff"/><path d="M614 205.82c-2.2 0-2.62-1.15-.93-2.56l13.06-10.88c1.7-1.4 4.86-2.56 7.07-2.56H766c2.2 0 2.73 1.27 1.17 2.83L756.83 203c-1.56 1.55-4.62 2.82-6.83 2.82z" stroke="#282c33" stroke-width="4" fill="#e6e6e6"/><path d="M754 209.82c0-2.2 1.27-5.27 2.83-6.83l10.34-10.35c1.56-1.56 2.83-1.04 2.83 1.17V595.8c0 2.2-1.15 5.38-2.56 7.07l-10.88 13.06c-1.4 1.7-2.56 1.28-2.56-.93z" stroke="#282c33" stroke-width="4" fill="#ccc"/><use xlink:href="#I" transform="matrix(1,0,0,1,617.9999999999999,213.8199643493764) translate(0 14.4)"/><use xlink:href="#m" transform="matrix(1,0,0,1,617.9999999999999,213.8199643493764) translate(0 36)"/><use xlink:href="#J" transform="matrix(1,0,0,1,617.9999999999999,213.8199643493764) translate(0 57.6)"/><use xlink:href="#K" transform="matrix(1,0,0,1,617.9999999999999,213.8199643493764) translate(0 79.20000000000002)"/><path d="M618.83 515.22c0-2.2 1.8-4 4-4H741.9c2.2 0 4 1.8 4 4v79.47c0 2.2-1.8 4-4 4H622.82c-2.2 0-4-1.8-4-4z" stroke="#282c33" stroke-width="4" fill="#fff"/><path d="M735.9 521.22h-15v20h15z" stroke="#282c33" fill="#fff"/><path d="M725.9 524.56h-10v3.33h10zm0 10h-10v3.33h10z" stroke="#282c33" fill="#fff"/><use xlink:href="#A" transform="matrix(1,0,0,1,618.8253044959346,511.2227671863325) translate(19.07999999999999 47.4)"/><path d="M678.83 417v-6.64m0-26.53c6.63 0 12 5.94 12 13.27 0 7.32-5.37 13.26-12 13.26s-12-5.94-12-13.26c0-7.33 5.37-13.27 12-13.27z" stroke="#282c33" stroke-width="4" fill="#fff"/><path d="M678.35 417v-6.64h.96V417z" fill="none"/><path d="M680.83 493.96h-4v-34.3h4zm0-55.9h-4V419h4z"/><path d="M680.83 419.04h-4V417h4zM680.83 495.96h-4v-2.05h4z"/><use xlink:href="#z" transform="matrix(1,0,0,1,650.379919744877,438.06386137699764) translate(0 14.4)"/><path d="M671.8 522.36c-2.22 0-4-1.8-4-4v-16.4c0-2.2 1.78-4 4-4h14.07c2.2 0 4 1.8 4 4v16.4c0 2.2-1.8 4-4 4z" stroke="#282c33" stroke-width="4" fill="#fff"/><path d="M460.04 346.04l203.1 51.4" stroke="#000" stroke-width="2" fill="none"/><path d="M460.3 345.07l-.48 1.94-.75-.18v-2.06z"/><path d="M643.83 403.06L663 397.4l-14.18-14.08" stroke="#000" stroke-width="2" fill="none"/><path d="M610 663c0-2.2 1.8-4 4-4h152c2.2 0 4 1.8 4 4v72c0 2.2-1.8 4-4 4H614c-2.2 0-4-1.8-4-4z" stroke="#282c33" stroke-width="4" fill="#fff"/><use xlink:href="#F" transform="matrix(1,0,0,1,610,658.9999999999999) translate(19.10499999999999 44.4)"/><use xlink:href="#G" transform="matrix(1,0,0,1,610,658.9999999999999) translate(81.005 44.4)"/><path d="M691 656h-2v-6.2h2zm0-27.8h-2V622h2z"/><path d="M691 657h-2v-1.03h2zM691 622.03h-2V621h2z"/><use xlink:href="#H" transform="matrix(1,0,0,1,655.025,628.2000001746882) translate(0 14.4)"/><path d="M360 961.76h-6m-24 0c0-6.62 5.37-12 12-12s12 5.38 12 12c0 6.63-5.37 12-12 12s-12-5.37-12-12z" stroke="#282c33" stroke-width="4" fill="#fff"/><path d="M360 962.24h-6v-.96h6z" fill="none"/><path d="M362 961.76h109" stroke="#000" stroke-width="4" fill="none"/><path d="M362.05 963.76H360v-4h2.05zM473 963.76h-2.05v-4H473z"/><use xlink:href="#L" transform="matrix(1,0,0,1,372.57500000000016,914.5642904842283) translate(0 14.4)"/><use xlink:href="#M" transform="matrix(1,0,0,1,372.57500000000016,914.5642904842283) translate(0 36)"/><use xlink:href="#N" transform="matrix(1,0,0,1,372.57500000000016,914.5642904842283) translate(41.9 36)"/><path d="M854.97 995.04c-5.14 0-10.57-1.42-10.57-4.04v-19.78c0-2.62 5.43-4.04 10.57-4.04 5.1 0 10.56 1.42 10.56 4.04V991c0 2.62-5.45 4.04-10.56 4.04zm0-26.66c-5.8 0-9.4 1.64-9.4 2.84V991c0 1.17 3.56 2.84 9.4 2.84 5.83 0 9.38-1.65 9.38-2.84v-19.78c0-1.2-3.57-2.84-9.38-2.84z" stroke="#fff" stroke-opacity="0" fill="#232f3e"/><path d="M854.97 974.68c-5.14 0-10.57-1.42-10.57-4.05h1.18c0 1.2 3.55 2.86 9.4 2.86 5.82 0 9.37-1.67 9.37-2.87h1.18c0 2.63-5.45 4.05-10.56 4.05z" stroke="#fff" stroke-opacity="0" fill="#232f3e"/><path d="M360 1074h-6m-24 0c0-6.63 5.37-12 12-12s12 5.37 12 12-5.37 12-12 12-12-5.37-12-12z" stroke="#282c33" stroke-width="4" fill="#fff"/><path d="M360 1074.48h-6v-.96h6z" fill="none"/><path d="M362 1074h109" stroke="#000" stroke-width="4" fill="none"/><path d="M362.05 1076H360v-4h2.05zM473 1076h-2.05v-4H473z"/><use xlink:href="#O" transform="matrix(1,0,0,1,372.575,1026.8000000000002) translate(0 14.4)"/><use xlink:href="#P" transform="matrix(1,0,0,1,372.575,1026.8000000000002) translate(0 36)"/><use xlink:href="#Q" transform="matrix(1,0,0,1,372.575,1026.8000000000002) translate(41.9 36)"/><path d="M561.12 1037.72l-212.27-62.5" stroke="#000" stroke-width="2" fill="none"/><path d="M565.24 1037.9l-.03.1H561l.38-1.25z"/><path d="M368.38 970.35l-19.38 4.9 13.63 14.63" stroke="#000" stroke-width="2" fill="none"/><path d="M328.45 956.9l-1.8.87-49.06-99.72h2.22zM269.2 836.44h-2.24l-75.42-153.28 1.8-.9z"/><path d="M193.35 682.3l-1.35.67v-3.4zM330.02 937.33l-1.67 21.63-18.15-11.88 1.1-1.67 15.32 10.03 1.4-18.25z"/><use xlink:href="#B" transform="matrix(1,0,0,1,258.3899969183843,836.4521790610553) translate(0 14.4)"/><path d="M330.38 1064.7l-1.88.66-57.42-160.1h2.13zm-64.92-181.03h-2.13L191.4 683.1l1.88-.67z"/><path d="M193.3 682.46l-1.3.46v-4.05zM334.15 1045.43l-4.1 21.3-16.7-13.84 1.3-1.55 14.08 11.7 3.45-18z"/><use xlink:href="#B" transform="matrix(1,0,0,1,253.2694625303876,883.6686367975001) translate(0 14.4)"/><path d="M829.3 145c0-2.2 1.38-5.15 3.08-6.56l20.25-16.88c1.7-1.4 4.87-2.56 7.08-2.56h185.6c2.22 0 4 1.8 4 4v605.6c0 2.2-1.14 5.38-2.55 7.07l-16.88 20.26c-1.42 1.7-4.35 3.07-6.56 3.07h-190c-2.2 0-4-1.8-4-4z" stroke="#282c33" stroke-width="4" fill="#fff"/><path d="M833.3 141c-2.2 0-2.62-1.15-.92-2.56l20.25-16.88c1.7-1.4 4.87-2.56 7.08-2.56h185.6c2.22 0 2.74 1.27 1.18 2.83l-16.34 16.34c-1.57 1.56-4.62 2.83-6.83 2.83z" stroke="#282c33" stroke-width="4" fill="#e6e6e6"/><path d="M1027.3 145c0-2.2 1.27-5.27 2.84-6.83l16.34-16.34c1.56-1.56 2.83-1.04 2.83 1.17v605.6c0 2.2-1.14 5.38-2.55 7.07l-16.88 20.26c-1.42 1.7-2.56 1.28-2.56-.93z" stroke="#282c33" stroke-width="4" fill="#ccc"/><use xlink:href="#h" transform="matrix(1,0,0,1,837.307206068268,149) translate(0 16.6)"/><use xlink:href="#g" transform="matrix(1,0,0,1,837.307206068268,149) translate(60.55 16.6)"/><path d="M850 209.82c0-2.2 1.38-5.15 3.07-6.56l13.06-10.88c1.7-1.4 4.86-2.56 7.07-2.56H1006c2.2 0 4 1.8 4 4V595.8c0 2.2-1.15 5.38-2.56 7.07l-10.88 13.06c-1.4 1.7-4.35 3.07-6.56 3.07H854c-2.2 0-4-1.8-4-4z" stroke="#282c33" stroke-width="4" fill="#fff"/><path d="M854 205.82c-2.2 0-2.62-1.15-.93-2.56l13.06-10.88c1.7-1.4 4.86-2.56 7.07-2.56H1006c2.2 0 2.73 1.27 1.17 2.83L996.83 203c-1.56 1.55-4.62 2.82-6.83 2.82z" stroke="#282c33" stroke-width="4" fill="#e6e6e6"/><path d="M994 209.82c0-2.2 1.27-5.27 2.83-6.83l10.34-10.35c1.56-1.56 2.83-1.04 2.83 1.17V595.8c0 2.2-1.15 5.38-2.56 7.07l-10.88 13.06c-1.4 1.7-2.56 1.28-2.56-.93z" stroke="#282c33" stroke-width="4" fill="#ccc"/><use xlink:href="#I" transform="matrix(1,0,0,1,857.9999999999999,213.8199643493764) translate(0 14.4)"/><use xlink:href="#m" transform="matrix(1,0,0,1,857.9999999999999,213.8199643493764) translate(0 36)"/><use xlink:href="#J" transform="matrix(1,0,0,1,857.9999999999999,213.8199643493764) translate(0 57.6)"/><use xlink:href="#K" transform="matrix(1,0,0,1,857.9999999999999,213.8199643493764) translate(0 79.20000000000002)"/><path d="M858.83 515.22c0-2.2 1.8-4 4-4H981.9c2.2 0 4 1.8 4 4v79.47c0 2.2-1.8 4-4 4H862.82c-2.2 0-4-1.8-4-4z" stroke="#282c33" stroke-width="4" fill="#fff"/><path d="M975.9 521.22h-15v20h15z" stroke="#282c33" fill="#fff"/><path d="M965.9 524.56h-10v3.33h10zm0 10h-10v3.33h10z" stroke="#282c33" fill="#fff"/><use xlink:href="#A" transform="matrix(1,0,0,1,858.8253044959345,511.2227671863325) translate(19.07999999999999 47.4)"/><path d="M918.83 417v-6.64m0-26.53c6.63 0 12 5.94 12 13.27 0 7.32-5.37 13.26-12 13.26s-12-5.94-12-13.26c0-7.33 5.37-13.27 12-13.27z" stroke="#282c33" stroke-width="4" fill="#fff"/><path d="M918.35 417v-6.64h.96V417z" fill="none"/><path d="M920.83 493.96h-4v-34.3h4zm0-55.9h-4V419h4z"/><path d="M920.83 419.04h-4V417h4zM920.83 495.96h-4v-2.05h4z"/><use xlink:href="#z" transform="matrix(1,0,0,1,890.379919744877,438.06386137699764) translate(0 14.4)"/><path d="M911.8 522.36c-2.22 0-4-1.8-4-4v-16.4c0-2.2 1.78-4 4-4h14.07c2.2 0 4 1.8 4 4v16.4c0 2.2-1.8 4-4 4zM850 663c0-2.2 1.8-4 4-4h152c2.2 0 4 1.8 4 4v72c0 2.2-1.8 4-4 4H854c-2.2 0-4-1.8-4-4z" stroke="#282c33" stroke-width="4" fill="#fff"/><use xlink:href="#F" transform="matrix(1,0,0,1,850,658.9999999999999) translate(19.10499999999999 44.4)"/><use xlink:href="#G" transform="matrix(1,0,0,1,850,658.9999999999999) translate(81.005 44.4)"/><path d="M931 656h-2v-6.2h2zm0-27.8h-2V622h2z"/><path d="M931 657h-2v-1.03h2zM931 622.03h-2V621h2z"/><g><use xlink:href="#H" transform="matrix(1,0,0,1,895.025,628.2000001746882) translate(0 14.4)"/></g><path d="M460.06 345.88l446.63 40.9M460.1 345.9l-1.03-.1M888.47 395.34l18.07-8.57-16.2-11.7" stroke="#000" stroke-width="2" fill="none"/><path d="M498.55 926.2c0-2.2 1.8-4 4-4h119.07c2.2 0 4 1.8 4 4v71.13c0 2.2-1.8 4-4 4H502.55c-2.2 0-4-1.8-4-4z" stroke="#282c33" stroke-width="4" fill="#fff"/><path d="M615.62 932.2h-15v20h15z" stroke="#282c33" fill="#fff"/><path d="M605.62 935.53h-10v3.33h10zm0 10h-10v3.33h10z" stroke="#282c33" fill="#fff"/><g><use xlink:href="#R" transform="matrix(1,0,0,1,498.5498192290421,922.19702079138) translate(15.054999999999994 49.41)"/></g><path d="M810.05 954.98l-1.5 1.32L459 560.53l1.5-1.32z"/><path d="M460.5 559.22l-1.43 1.27v-2.9zM810.5 957l-20.63-6.68.62-1.9 17.4 5.64-3.44-18 1.96-.36z"/><path d="M748.05 555.94l62.18 399.26" stroke="#000" stroke-width="2" fill="none"/><path d="M749.04 555.8l-1.15.2v-4.08l.52-.08z"/><path d="M797.5 939.62l12.7 15.44 7.42-18.58M856.7 555.95L810.73 955.2" stroke="#000" stroke-width="2" fill="none"/><path d="M856.83 551.93V556l-1.12-.14.48-4z"/><path d="M802.6 936.78l8.13 18.27 12.1-15.94" stroke="#000" stroke-width="2" fill="none"/><path d="M894 963c0-2.2 1.8-4 4-4h125.82c2.2 0 4 1.8 4 4v92c0 2.2-1.8 4-4 4H898c-2.2 0-4-1.8-4-4z" stroke="#282c33" stroke-width="4" fill-opacity="0"/><g><use xlink:href="#S" transform="matrix(1,0,0,1,902,967) translate(0 14.4)"/><use xlink:href="#d" transform="matrix(1,0,0,1,902,967) translate(0 36)"/><use xlink:href="#e" transform="matrix(1,0,0,1,902,967) translate(0 57.6)"/></g><path d="M1001.72 995.04c-5.13 0-10.57-1.42-10.57-4.04v-19.78c0-2.62 5.44-4.04 10.57-4.04 5.12 0 10.57 1.42 10.57 4.04V991c0 2.62-5.46 4.04-10.58 4.04zm0-26.66c-5.8 0-9.38 1.64-9.38 2.84V991c0 1.17 3.55 2.84 9.38 2.84 5.83 0 9.4-1.65 9.4-2.84v-19.78c0-1.2-3.6-2.84-9.4-2.84z" stroke="#fff" stroke-opacity="0" fill="#232f3e"/><path d="M1001.72 974.68c-5.13 0-10.57-1.42-10.57-4.05h1.2c0 1.2 3.54 2.86 9.37 2.86 5.83 0 9.4-1.67 9.4-2.87h1.17c0 2.63-5.46 4.05-10.58 4.05z" stroke="#fff" stroke-opacity="0" fill="#232f3e"/><path d="M628.47 1079.04l111.58-69.08" stroke="#000" stroke-width="2" fill="none"/><path d="M629.02 1079.88l-1.4.86v-2.35l.34-.22z"/><path d="M730.65 1027.75l9.28-17.72-20 .4" stroke="#000" stroke-width="2" fill="none"/><path d="M562.87 919.02l-1.96.4-21.06-104.7h2.04zm-25.34-125.9h-2.04L454.12 388.8l1.96-.4z"/><path d="M563.1 920.2h-2.04l-.16-.8 1.96-.4zM469.26 402.95l-1.48 1.34-12.25-13.62-6.03 17.28-1.9-.65 7.16-20.48z"/><g><use xlink:href="#B" transform="matrix(1,0,0,1,523.6854970632853,793.1184705840798) translate(0 14.4)"/></g><g><path d="M505 972.76c0 2.2-1.8 4-4 4h-22c-2.2 0-4-1.8-4-4v-22c0-2.2 1.8-4 4-4h22c2.2 0 4 1.8 4 4z" stroke="#282c33" stroke-width="4" fill="#fff"/></g><path d="M498.55 1044c0-2.2 1.8-4 4-4h119.07c2.2 0 4 1.8 4 4v71.13c0 2.2-1.8 4-4 4H502.55c-2.2 0-4-1.8-4-4z" stroke="#282c33" stroke-width="4" fill="#fff"/><path d="M615.62 1050h-15v20h15z" stroke="#282c33" fill="#fff"/><path d="M605.62 1053.33h-10v3.34h10zm0 10h-10v3.34h10z" stroke="#282c33" fill="#fff"/><g><use xlink:href="#T" transform="matrix(1,0,0,1,498.5498192290421,1040) translate(16.029999999999994 44.4)"/></g><g><path d="M505 1085c0 2.2-1.8 4-4 4h-22c-2.2 0-4-1.8-4-4v-22c0-2.2 1.8-4 4-4h22c2.2 0 4 1.8 4 4z" stroke="#282c33" stroke-width="4" fill="#fff"/></g><defs><path d="M24-248c120-7 223 5 221 122C244-46 201 0 124 0H24v-248zM76-40c74 7 117-18 117-86 0-67-45-88-117-82v168" id="U"/><path d="M133-34C117-15 103 5 69 4 32 3 11-16 11-54c-1-60 55-63 116-61 1-26-3-47-28-47-18 1-26 9-28 27l-52-2c7-38 36-58 82-57s74 22 75 68l1 82c-1 14 12 18 25 15v27c-30 8-71 5-69-32zm-48 3c29 0 43-24 42-57-32 0-66-3-65 30 0 17 8 27 23 27" id="V"/><path d="M115-3C79 11 28 4 28-45v-112H4v-33h27l15-45h31v45h36v33H77v99c-1 23 16 31 38 25v30" id="W"/><path d="M135-194c52 0 70 43 70 98 0 56-19 99-73 100-30 1-46-15-58-35L72 0H24l1-261h50v104c11-23 29-37 60-37zM114-30c31 0 40-27 40-66 0-37-7-63-39-63s-41 28-41 65c0 36 8 64 40 64" id="X"/><path d="M137-138c1-29-70-34-71-4 15 46 118 7 119 86 1 83-164 76-172 9l43-7c4 19 20 25 44 25 33 8 57-30 24-41C81-84 22-81 20-136c-2-80 154-74 161-7" id="Y"/><path d="M185-48c-13 30-37 53-82 52C43 2 14-33 14-96s30-98 90-98c62 0 83 45 84 108H66c0 31 8 55 39 56 18 0 30-7 34-22zm-45-69c5-46-57-63-70-21-2 6-4 13-4 21h74" id="Z"/><g id="a"><use transform="matrix(0.05,0,0,0.05,0,0)" xlink:href="#U"/><use transform="matrix(0.05,0,0,0.05,12.950000000000001,0)" xlink:href="#V"/><use transform="matrix(0.05,0,0,0.05,22.950000000000003,0)" xlink:href="#W"/><use transform="matrix(0.05,0,0,0.05,28.900000000000002,0)" xlink:href="#V"/><use transform="matrix(0.05,0,0,0.05,38.900000000000006,0)" xlink:href="#X"/><use transform="matrix(0.05,0,0,0.05,49.85000000000001,0)" xlink:href="#V"/><use transform="matrix(0.05,0,0,0.05,59.85,0)" xlink:href="#Y"/><use transform="matrix(0.05,0,0,0.05,69.85000000000001,0)" xlink:href="#Z"/></g><path d="M67-125c0 53 21 87 73 88 37 1 54-22 65-47l45 17C233-25 199 4 140 4 58 4 20-42 15-125 8-235 124-281 211-232c18 10 29 29 36 50l-46 12c-8-25-30-41-62-41-52 0-71 34-72 86" id="aa"/><path d="M25 0v-261h50V0H25" id="ab"/><path d="M85 4C-2 5 27-109 22-190h50c7 57-23 150 33 157 60-5 35-97 40-157h50l1 190h-47c-2-12 1-28-3-38-12 25-28 42-61 42" id="ac"/><path d="M135-150c-39-12-60 13-60 57V0H25l-1-190h47c2 13-1 29 3 40 6-28 27-53 61-41v41" id="ad"/><g id="b"><use transform="matrix(0.05,0,0,0.05,0,0)" xlink:href="#aa"/><use transform="matrix(0.05,0,0,0.05,12.950000000000001,0)" xlink:href="#ab"/><use transform="matrix(0.05,0,0,0.05,17.950000000000003,0)" xlink:href="#ac"/><use transform="matrix(0.05,0,0,0.05,28.900000000000006,0)" xlink:href="#Y"/><use transform="matrix(0.05,0,0,0.05,38.900000000000006,0)" xlink:href="#W"/><use transform="matrix(0.05,0,0,0.05,44.85000000000001,0)" xlink:href="#Z"/><use transform="matrix(0.05,0,0,0.05,54.85,0)" xlink:href="#ad"/></g><path d="M30-248c87 1 191-15 191 75 0 78-77 80-158 76V0H30v-248zm33 125c57 0 124 11 124-50 0-59-68-47-124-48v98" id="ae"/><path d="M114-163C36-179 61-72 57 0H25l-1-190h30c1 12-1 29 2 39 6-27 23-49 58-41v29" id="af"/><path d="M24-231v-30h32v30H24zM24 0v-190h32V0H24" id="ag"/><path d="M210-169c-67 3-38 105-44 169h-31v-121c0-29-5-50-35-48C34-165 62-65 56 0H25l-1-190h30c1 10-1 24 2 32 10-44 99-50 107 0 11-21 27-35 58-36 85-2 47 119 55 194h-31v-121c0-29-5-49-35-48" id="ah"/><path d="M141-36C126-15 110 5 73 4 37 3 15-17 15-53c-1-64 63-63 125-63 3-35-9-54-41-54-24 1-41 7-42 31l-33-3c5-37 33-52 76-52 45 0 72 20 72 64v82c-1 20 7 32 28 27v20c-31 9-61-2-59-35zM48-53c0 20 12 33 32 33 41-3 63-29 60-74-43 2-92-5-92 41" id="ai"/><path d="M179-190L93 31C79 59 56 82 12 73V49c39 6 53-20 64-50L1-190h34L92-34l54-156h33" id="aj"/><g id="c"><use transform="matrix(0.05,0,0,0.05,0,0)" xlink:href="#ae"/><use transform="matrix(0.05,0,0,0.05,12,0)" xlink:href="#af"/><use transform="matrix(0.05,0,0,0.05,17.95,0)" xlink:href="#ag"/><use transform="matrix(0.05,0,0,0.05,21.9,0)" xlink:href="#ah"/><use transform="matrix(0.05,0,0,0.05,36.85,0)" xlink:href="#ai"/><use transform="matrix(0.05,0,0,0.05,46.85,0)" xlink:href="#af"/><use transform="matrix(0.05,0,0,0.05,52.800000000000004,0)" xlink:href="#aj"/></g><path d="M100-194c62-1 85 37 85 99 1 63-27 99-86 99S16-35 15-95c0-66 28-99 85-99zM99-20c44 1 53-31 53-75 0-43-8-75-51-75s-53 32-53 75 10 74 51 75" id="ak"/><path d="M135-143c-3-34-86-38-87 0 15 53 115 12 119 90S17 21 10-45l28-5c4 36 97 45 98 0-10-56-113-15-118-90-4-57 82-63 122-42 12 7 21 19 24 35" id="al"/><path d="M59-47c-2 24 18 29 38 22v24C64 9 27 4 27-40v-127H5v-23h24l9-43h21v43h35v23H59v120" id="am"/><path d="M177-190C167-65 218 103 67 71c-23-6-38-20-44-43l32-5c15 47 100 32 89-28v-30C133-14 115 1 83 1 29 1 15-40 15-95c0-56 16-97 71-98 29-1 48 16 59 35 1-10 0-23 2-32h30zM94-22c36 0 50-32 50-73 0-42-14-75-50-75-39 0-46 34-46 75s6 73 46 73" id="an"/><path d="M100-194c63 0 86 42 84 106H49c0 40 14 67 53 68 26 1 43-12 49-29l28 8c-11 28-37 45-77 45C44 4 14-33 15-96c1-61 26-98 85-98zm52 81c6-60-76-77-97-28-3 7-6 17-6 28h103" id="ao"/><path d="M185-189c-5-48-123-54-124 2 14 75 158 14 163 119 3 78-121 87-175 55-17-10-28-26-33-46l33-7c5 56 141 63 141-1 0-78-155-14-162-118-5-82 145-84 179-34 5 7 8 16 11 25" id="ap"/><path d="M140-251c81 0 123 46 123 126C263-53 228-8 163 1c7 30 30 48 69 40v23c-55 16-95-15-103-61C56-3 17-48 17-125c0-80 42-126 123-126zm0 227c63 0 89-41 89-101s-29-99-89-99c-61 0-89 39-89 99S79-25 140-24" id="aq"/><path d="M30 0v-248h33v221h125V0H30" id="ar"/><g id="d"><use transform="matrix(0.05,0,0,0.05,0,0)" xlink:href="#ae"/><use transform="matrix(0.05,0,0,0.05,12,0)" xlink:href="#ak"/><use transform="matrix(0.05,0,0,0.05,22,0)" xlink:href="#al"/><use transform="matrix(0.05,0,0,0.05,31,0)" xlink:href="#am"/><use transform="matrix(0.05,0,0,0.05,36,0)" xlink:href="#an"/><use transform="matrix(0.05,0,0,0.05,46,0)" xlink:href="#af"/><use transform="matrix(0.05,0,0,0.05,51.95,0)" xlink:href="#ao"/><use transform="matrix(0.05,0,0,0.05,61.95,0)" xlink:href="#ap"/><use transform="matrix(0.05,0,0,0.05,73.95,0)" xlink:href="#aq"/><use transform="matrix(0.05,0,0,0.05,87.95,0)" xlink:href="#ar"/></g><path d="M30-248c118-7 216 8 213 122C240-48 200 0 122 0H30v-248zM63-27c89 8 146-16 146-99s-60-101-146-95v194" id="as"/><path d="M115-194c53 0 69 39 70 98 0 66-23 100-70 100C84 3 66-7 56-30L54 0H23l1-261h32v101c10-23 28-34 59-34zm-8 174c40 0 45-34 45-75 0-40-5-75-45-74-42 0-51 32-51 76 0 43 10 73 51 73" id="at"/><g id="e"><use transform="matrix(0.05,0,0,0.05,0,0)" xlink:href="#as"/><use transform="matrix(0.05,0,0,0.05,12.950000000000001,0)" xlink:href="#ai"/><use transform="matrix(0.05,0,0,0.05,22.950000000000003,0)" xlink:href="#am"/><use transform="matrix(0.05,0,0,0.05,27.950000000000003,0)" xlink:href="#ai"/><use transform="matrix(0.05,0,0,0.05,37.95,0)" xlink:href="#at"/><use transform="matrix(0.05,0,0,0.05,47.95,0)" xlink:href="#ai"/><use transform="matrix(0.05,0,0,0.05,57.95,0)" xlink:href="#al"/><use transform="matrix(0.05,0,0,0.05,66.95,0)" xlink:href="#ao"/></g><path d="M147 0H94L2-248h55l64 206c17-72 42-137 63-206h54" id="au"/><path d="M25-224v-37h50v37H25zM25 0v-190h50V0H25" id="av"/><g id="f"><use transform="matrix(0.05,0,0,0.05,0,0)" xlink:href="#au"/><use transform="matrix(0.05,0,0,0.05,11.65,0)" xlink:href="#av"/><use transform="matrix(0.05,0,0,0.05,16.65,0)" xlink:href="#ad"/><use transform="matrix(0.05,0,0,0.05,23.65,0)" xlink:href="#ac"/><use transform="matrix(0.05,0,0,0.05,34.6,0)" xlink:href="#W"/><use transform="matrix(0.05,0,0,0.05,40.550000000000004,0)" xlink:href="#V"/><use transform="matrix(0.05,0,0,0.05,50.550000000000004,0)" xlink:href="#ab"/></g><path d="M230 0l2-204L168 0h-37L68-204 70 0H24v-248h70l56 185 57-185h69V0h-46" id="aw"/><path d="M190-63c-7 42-38 67-86 67-59 0-84-38-90-98-12-110 154-137 174-36l-49 2c-2-19-15-32-35-32-30 0-35 28-38 64-6 74 65 87 74 30" id="ax"/><path d="M114-157C55-157 80-60 75 0H25v-261h50l-1 109c12-26 28-41 61-42 86-1 58 113 63 194h-50c-7-57 23-157-34-157" id="ay"/><path d="M135-194c87-1 58 113 63 194h-50c-7-57 23-157-34-157-59 0-34 97-39 157H25l-1-190h47c2 12-1 28 3 38 12-26 28-41 61-42" id="az"/><g id="g"><use transform="matrix(0.05,0,0,0.05,0,0)" xlink:href="#aw"/><use transform="matrix(0.05,0,0,0.05,14.950000000000001,0)" xlink:href="#V"/><use transform="matrix(0.05,0,0,0.05,24.950000000000003,0)" xlink:href="#ax"/><use transform="matrix(0.05,0,0,0.05,34.95,0)" xlink:href="#ay"/><use transform="matrix(0.05,0,0,0.05,45.900000000000006,0)" xlink:href="#av"/><use transform="matrix(0.05,0,0,0.05,50.900000000000006,0)" xlink:href="#az"/><use transform="matrix(0.05,0,0,0.05,61.85,0)" xlink:href="#Z"/></g><g id="h"><use transform="matrix(0.05,0,0,0.05,0,0)" xlink:href="#au"/><use transform="matrix(0.05,0,0,0.05,11.65,0)" xlink:href="#av"/><use transform="matrix(0.05,0,0,0.05,16.65,0)" xlink:href="#ad"/><use transform="matrix(0.05,0,0,0.05,23.65,0)" xlink:href="#W"/><use transform="matrix(0.05,0,0,0.05,29.599999999999994,0)" xlink:href="#ac"/><use transform="matrix(0.05,0,0,0.05,40.55,0)" xlink:href="#V"/><use transform="matrix(0.05,0,0,0.05,50.55,0)" xlink:href="#ab"/></g><path d="M18-100v-36l175-74v27L42-118l151 64v27" id="aA"/><path d="M96-169c-40 0-48 33-48 73s9 75 48 75c24 0 41-14 43-38l32 2c-6 37-31 61-74 61-59 0-76-41-82-99-10-93 101-131 147-64 4 7 5 14 7 22l-32 3c-4-21-16-35-41-35" id="aB"/><path d="M24 0v-261h32V0H24" id="aC"/><path d="M84 4C-5 8 30-112 23-190h32v120c0 31 7 50 39 49 72-2 45-101 50-169h31l1 190h-30c-1-10 1-25-2-33-11 22-28 36-60 37" id="aD"/><path d="M85-194c31 0 48 13 60 33l-1-100h32l1 261h-30c-2-10 0-23-3-31C134-8 116 4 85 4 32 4 16-35 15-94c0-66 23-100 70-100zm9 24c-40 0-46 34-46 75 0 40 6 74 45 74 42 0 51-32 51-76 0-42-9-74-50-73" id="aE"/><path d="M18-27v-27l151-64-151-65v-27l175 74v36" id="aF"/><g id="i"><use transform="matrix(0.05,0,0,0.05,0,0)" xlink:href="#aA"/><use transform="matrix(0.05,0,0,0.05,10.5,0)" xlink:href="#aA"/><use transform="matrix(0.05,0,0,0.05,21,0)" xlink:href="#aB"/><use transform="matrix(0.05,0,0,0.05,30,0)" xlink:href="#aC"/><use transform="matrix(0.05,0,0,0.05,33.95,0)" xlink:href="#ak"/><use transform="matrix(0.05,0,0,0.05,43.95,0)" xlink:href="#aD"/><use transform="matrix(0.05,0,0,0.05,53.95,0)" xlink:href="#aE"/><use transform="matrix(0.05,0,0,0.05,63.95,0)" xlink:href="#aF"/><use transform="matrix(0.05,0,0,0.05,74.45,0)" xlink:href="#aF"/></g><g id="j"><use transform="matrix(0.05,0,0,0.05,0,0)" xlink:href="#as"/><use transform="matrix(0.05,0,0,0.05,12.950000000000001,0)" xlink:href="#ag"/><use transform="matrix(0.05,0,0,0.05,16.900000000000002,0)" xlink:href="#an"/><use transform="matrix(0.05,0,0,0.05,26.900000000000002,0)" xlink:href="#ag"/><use transform="matrix(0.05,0,0,0.05,30.85,0)" xlink:href="#am"/><use transform="matrix(0.05,0,0,0.05,35.85,0)" xlink:href="#ai"/><use transform="matrix(0.05,0,0,0.05,45.85,0)" xlink:href="#aC"/></g><path d="M140-251c81 0 123 46 123 126C263-46 219 4 140 4 59 4 17-45 17-125s42-126 123-126zm0 227c63 0 89-41 89-101s-29-99-89-99c-61 0-89 39-89 99S79-25 140-24" id="aG"/><path d="M117-194c89-4 53 116 60 194h-32v-121c0-31-8-49-39-48C34-167 62-67 57 0H25l-1-190h30c1 10-1 24 2 32 11-22 29-35 61-36" id="aH"/><g id="k"><use transform="matrix(0.05,0,0,0.05,0,0)" xlink:href="#aG"/><use transform="matrix(0.05,0,0,0.05,14,0)" xlink:href="#aB"/><use transform="matrix(0.05,0,0,0.05,23,0)" xlink:href="#ao"/><use transform="matrix(0.05,0,0,0.05,33,0)" xlink:href="#ai"/><use transform="matrix(0.05,0,0,0.05,43,0)" xlink:href="#aH"/></g><path d="M110-194c64 0 96 36 96 99 0 64-35 99-97 99-61 0-95-36-95-99 0-62 34-99 96-99zm-1 164c35 0 45-28 45-65 0-40-10-65-43-65-34 0-45 26-45 65 0 36 10 65 43 65" id="aI"/><path d="M147 0L96-86 75-71V0H25v-261h50v150l67-79h53l-66 74L201 0h-54" id="aJ"/><g id="l"><use transform="matrix(0.05,0,0,0.05,0,0)" xlink:href="#U"/><use transform="matrix(0.05,0,0,0.05,12.950000000000001,0)" xlink:href="#aI"/><use transform="matrix(0.05,0,0,0.05,23.900000000000002,0)" xlink:href="#ax"/><use transform="matrix(0.05,0,0,0.05,33.900000000000006,0)" xlink:href="#aJ"/><use transform="matrix(0.05,0,0,0.05,43.900000000000006,0)" xlink:href="#Z"/><use transform="matrix(0.05,0,0,0.05,53.900000000000006,0)" xlink:href="#ad"/></g><g id="m"><use transform="matrix(0.05,0,0,0.05,0,0)" xlink:href="#ax"/><use transform="matrix(0.05,0,0,0.05,10,0)" xlink:href="#aI"/><use transform="matrix(0.05,0,0,0.05,20.950000000000003,0)" xlink:href="#az"/><use transform="matrix(0.05,0,0,0.05,31.900000000000006,0)" xlink:href="#W"/><use transform="matrix(0.05,0,0,0.05,37.85000000000001,0)" xlink:href="#V"/><use transform="matrix(0.05,0,0,0.05,47.85000000000001,0)" xlink:href="#av"/><use transform="matrix(0.05,0,0,0.05,52.85,0)" xlink:href="#az"/><use transform="matrix(0.05,0,0,0.05,63.80000000000001,0)" xlink:href="#Z"/><use transform="matrix(0.05,0,0,0.05,73.80000000000001,0)" xlink:href="#ad"/></g><path d="M67-93c0 74 22 123 53 168H70C40 30 18-18 18-93s22-123 52-168h50c-32 44-53 94-53 168" id="aK"/><path d="M169-182c-1-43-94-46-97-3 18 66 151 10 154 114 3 95-165 93-204 36-6-8-10-19-12-30l50-8c3 46 112 56 116 5-17-69-150-10-154-114-4-87 153-88 188-35 5 8 8 18 10 28" id="aL"/><path d="M231 0h-52l-39-155L100 0H48L-1-190h46L77-45c9-52 24-97 36-145h53l37 145 32-145h46" id="aM"/><path d="M220-157c-53 9-28 100-34 157h-49v-107c1-27-5-49-29-50C55-147 81-57 75 0H25l-1-190h47c2 12-1 28 3 38 10-53 101-56 108 0 13-22 24-43 59-42 82 1 51 116 57 194h-49v-107c-1-25-5-48-29-50" id="aN"/><g id="n"><use transform="matrix(0.05,0,0,0.05,0,0)" xlink:href="#aK"/><use transform="matrix(0.05,0,0,0.05,5.95,0)" xlink:href="#aL"/><use transform="matrix(0.05,0,0,0.05,17.95,0)" xlink:href="#aM"/><use transform="matrix(0.05,0,0,0.05,31.950000000000003,0)" xlink:href="#V"/><use transform="matrix(0.05,0,0,0.05,41.95,0)" xlink:href="#ad"/><use transform="matrix(0.05,0,0,0.05,48.95,0)" xlink:href="#aN"/></g><path d="M195-6C206 82 75 100 31 46c-4-6-6-13-8-21l49-6c3 16 16 24 34 25 40 0 42-37 40-79-11 22-30 35-61 35-53 0-70-43-70-97 0-56 18-96 73-97 30 0 46 14 59 34l2-30h47zm-90-29c32 0 41-27 41-63 0-35-9-62-40-62-32 0-39 29-40 63 0 36 9 62 39 62" id="aO"/><path d="M102-93c0 74-22 123-52 168H0C30 29 54-18 53-93c0-74-22-123-53-168h50c30 45 52 94 52 168" id="aP"/><g id="o"><use transform="matrix(0.05,0,0,0.05,0,0)" xlink:href="#aN"/><use transform="matrix(0.05,0,0,0.05,16,0)" xlink:href="#V"/><use transform="matrix(0.05,0,0,0.05,26,0)" xlink:href="#az"/><use transform="matrix(0.05,0,0,0.05,36.95,0)" xlink:href="#V"/><use transform="matrix(0.05,0,0,0.05,46.95,0)" xlink:href="#aO"/><use transform="matrix(0.05,0,0,0.05,57.900000000000006,0)" xlink:href="#Z"/><use transform="matrix(0.05,0,0,0.05,67.9,0)" xlink:href="#ad"/><use transform="matrix(0.05,0,0,0.05,74.9,0)" xlink:href="#aP"/></g><path d="M238-95c0 69-44 99-111 99C63 4 22-25 22-93v-155h51v151c-1 38 19 59 55 60 90 1 49-130 58-211h52v153" id="aQ"/><g id="p"><use transform="matrix(0.05,0,0,0.05,0,0)" xlink:href="#aQ"/><use transform="matrix(0.05,0,0,0.05,12.950000000000001,0)" xlink:href="#Y"/><use transform="matrix(0.05,0,0,0.05,22.950000000000003,0)" xlink:href="#Z"/><use transform="matrix(0.05,0,0,0.05,32.95,0)" xlink:href="#ad"/></g><path d="M128 0H69L1-190h53L99-40l48-150h52" id="aR"/><g id="q"><use transform="matrix(0.05,0,0,0.05,0,0)" xlink:href="#U"/><use transform="matrix(0.05,0,0,0.05,12.950000000000001,0)" xlink:href="#Z"/><use transform="matrix(0.05,0,0,0.05,22.950000000000003,0)" xlink:href="#aR"/><use transform="matrix(0.05,0,0,0.05,32.95,0)" xlink:href="#av"/><use transform="matrix(0.05,0,0,0.05,37.95,0)" xlink:href="#ax"/><use transform="matrix(0.05,0,0,0.05,47.95,0)" xlink:href="#Z"/></g><path d="M160-131c35 5 61 23 61 61C221 17 115-2 30 0v-248c76 3 177-17 177 60 0 33-19 50-47 57zm-97-11c50-1 110 9 110-42 0-47-63-36-110-37v79zm0 115c55-2 124 14 124-45 0-56-70-42-124-44v89" id="aS"/><path d="M206 0h-36l-40-164L89 0H53L-1-190h32L70-26l43-164h34l41 164 42-164h31" id="aT"/><g id="r"><use transform="matrix(0.05,0,0,0.05,0,0)" xlink:href="#aS"/><use transform="matrix(0.05,0,0,0.05,12,0)" xlink:href="#af"/><use transform="matrix(0.05,0,0,0.05,17.95,0)" xlink:href="#ak"/><use transform="matrix(0.05,0,0,0.05,27.950000000000003,0)" xlink:href="#aT"/><use transform="matrix(0.05,0,0,0.05,40.9,0)" xlink:href="#al"/><use transform="matrix(0.05,0,0,0.05,49.9,0)" xlink:href="#ao"/><use transform="matrix(0.05,0,0,0.05,59.900000000000006,0)" xlink:href="#af"/></g><path d="M106-169C34-169 62-67 57 0H25v-261h32l-1 103c12-21 28-36 61-36 89 0 53 116 60 194h-32v-121c2-32-8-49-39-48" id="aU"/><g id="s"><use transform="matrix(0.05,0,0,0.05,0,0)" xlink:href="#aA"/><use transform="matrix(0.05,0,0,0.05,10.5,0)" xlink:href="#aA"/><use transform="matrix(0.05,0,0,0.05,21,0)" xlink:href="#ak"/><use transform="matrix(0.05,0,0,0.05,31,0)" xlink:href="#af"/><use transform="matrix(0.05,0,0,0.05,36.95,0)" xlink:href="#aB"/><use transform="matrix(0.05,0,0,0.05,45.95,0)" xlink:href="#aU"/><use transform="matrix(0.05,0,0,0.05,55.95,0)" xlink:href="#ao"/><use transform="matrix(0.05,0,0,0.05,65.95,0)" xlink:href="#al"/><use transform="matrix(0.05,0,0,0.05,74.95,0)" xlink:href="#am"/><use transform="matrix(0.05,0,0,0.05,79.95,0)" xlink:href="#af"/><use transform="matrix(0.05,0,0,0.05,85.9,0)" xlink:href="#ai"/><use transform="matrix(0.05,0,0,0.05,95.9,0)" xlink:href="#am"/><use transform="matrix(0.05,0,0,0.05,100.9,0)" xlink:href="#ag"/><use transform="matrix(0.05,0,0,0.05,104.85000000000001,0)" xlink:href="#ak"/><use transform="matrix(0.05,0,0,0.05,114.85000000000001,0)" xlink:href="#aH"/><use transform="matrix(0.05,0,0,0.05,124.85000000000001,0)" xlink:href="#aF"/><use transform="matrix(0.05,0,0,0.05,135.35000000000002,0)" xlink:href="#aF"/></g><path d="M143 0L79-87 56-68V0H24v-261h32v163l83-92h37l-77 82L181 0h-38" id="aV"/><g id="t"><use transform="matrix(0.05,0,0,0.05,0,0)" xlink:href="#as"/><use transform="matrix(0.05,0,0,0.05,12.950000000000001,0)" xlink:href="#ak"/><use transform="matrix(0.05,0,0,0.05,22.950000000000003,0)" xlink:href="#aB"/><use transform="matrix(0.05,0,0,0.05,31.950000000000003,0)" xlink:href="#aV"/><use transform="matrix(0.05,0,0,0.05,40.95,0)" xlink:href="#ao"/><use transform="matrix(0.05,0,0,0.05,50.95,0)" xlink:href="#af"/></g><g id="u"><use transform="matrix(0.05,0,0,0.05,0,0)" xlink:href="#ap"/><use transform="matrix(0.05,0,0,0.05,12,0)" xlink:href="#aT"/><use transform="matrix(0.05,0,0,0.05,24.950000000000003,0)" xlink:href="#ai"/><use transform="matrix(0.05,0,0,0.05,34.95,0)" xlink:href="#af"/><use transform="matrix(0.05,0,0,0.05,40.900000000000006,0)" xlink:href="#ah"/></g><path d="M175 0L67-191c6 58 2 128 3 191H24v-248h59L193-55c-6-58-2-129-3-193h46V0h-61" id="aW"/><g id="v"><use transform="matrix(0.05,0,0,0.05,0,0)" xlink:href="#U"/><use transform="matrix(0.05,0,0,0.05,12.950000000000001,0)" xlink:href="#aW"/><use transform="matrix(0.05,0,0,0.05,25.900000000000002,0)" xlink:href="#aL"/></g><path d="M190 0L58-211 59 0H30v-248h39L202-35l-2-213h31V0h-41" id="aX"/><g id="w"><use transform="matrix(0.05,0,0,0.05,0,0)" xlink:href="#as"/><use transform="matrix(0.05,0,0,0.05,12.950000000000001,0)" xlink:href="#aX"/><use transform="matrix(0.05,0,0,0.05,25.900000000000002,0)" xlink:href="#ap"/></g><path d="M108 0H70L1-190h34L89-25l56-165h34" id="aY"/><g id="x"><use transform="matrix(0.05,0,0,0.05,0,0)" xlink:href="#al"/><use transform="matrix(0.05,0,0,0.05,9,0)" xlink:href="#ao"/><use transform="matrix(0.05,0,0,0.05,19,0)" xlink:href="#af"/><use transform="matrix(0.05,0,0,0.05,24.95,0)" xlink:href="#aY"/><use transform="matrix(0.05,0,0,0.05,33.95,0)" xlink:href="#ag"/><use transform="matrix(0.05,0,0,0.05,37.900000000000006,0)" xlink:href="#aB"/><use transform="matrix(0.05,0,0,0.05,46.900000000000006,0)" xlink:href="#ao"/></g><path fill="#5d646f" d="M84 4C-5 8 30-112 23-190h32v120c0 31 7 50 39 49 72-2 45-101 50-169h31l1 190h-30c-1-10 1-25-2-33-11 22-28 36-60 37" id="aZ"/><path fill="#5d646f" d="M114-163C36-179 61-72 57 0H25l-1-190h30c1 12-1 29 2 39 6-27 23-49 58-41v29" id="ba"/><path fill="#5d646f" d="M24 0v-261h32V0H24" id="bb"/><g id="y"><use transform="matrix(0.05,0,0,0.05,0,0)" xlink:href="#aZ"/><use transform="matrix(0.05,0,0,0.05,10,0)" xlink:href="#ba"/><use transform="matrix(0.05,0,0,0.05,15.949999999999998,0)" xlink:href="#bb"/></g><path d="M115-194c55 1 70 41 70 98S169 2 115 4C84 4 66-9 55-30l1 105H24l-1-265h31l2 30c10-21 28-34 59-34zm-8 174c40 0 45-34 45-75s-6-73-45-74c-42 0-51 32-51 76 0 43 10 73 51 73" id="bc"/><g id="z"><use transform="matrix(0.05,0,0,0.05,0,0)" xlink:href="#aT"/><use transform="matrix(0.05,0,0,0.05,12.950000000000001,0)" xlink:href="#ao"/><use transform="matrix(0.05,0,0,0.05,22.950000000000003,0)" xlink:href="#at"/><use transform="matrix(0.05,0,0,0.05,32.95,0)" xlink:href="#ai"/><use transform="matrix(0.05,0,0,0.05,42.95,0)" xlink:href="#bc"/><use transform="matrix(0.05,0,0,0.05,52.95,0)" xlink:href="#ag"/></g><path d="M127-220V0H93v-220H8v-28h204v28h-85" id="bd"/><g id="A"><use transform="matrix(0.05,0,0,0.05,0,0)" xlink:href="#bd"/><use transform="matrix(0.05,0,0,0.05,9.950000000000001,0)" xlink:href="#aT"/><use transform="matrix(0.05,0,0,0.05,22.900000000000002,0)" xlink:href="#ak"/><use transform="matrix(0.05,0,0,0.05,32.900000000000006,0)" xlink:href="#ak"/><use transform="matrix(0.05,0,0,0.05,42.900000000000006,0)" xlink:href="#am"/><use transform="matrix(0.05,0,0,0.05,47.900000000000006,0)" xlink:href="#ao"/><use transform="matrix(0.05,0,0,0.05,57.900000000000006,0)" xlink:href="#af"/></g><path fill="#5d646f" d="M106-169C34-169 62-67 57 0H25v-261h32l-1 103c12-21 28-36 61-36 89 0 53 116 60 194h-32v-121c2-32-8-49-39-48" id="be"/><path fill="#5d646f" d="M59-47c-2 24 18 29 38 22v24C64 9 27 4 27-40v-127H5v-23h24l9-43h21v43h35v23H59v120" id="bf"/><path fill="#5d646f" d="M115-194c55 1 70 41 70 98S169 2 115 4C84 4 66-9 55-30l1 105H24l-1-265h31l2 30c10-21 28-34 59-34zm-8 174c40 0 45-34 45-75s-6-73-45-74c-42 0-51 32-51 76 0 43 10 73 51 73" id="bg"/><g id="B"><use transform="matrix(0.05,0,0,0.05,0,0)" xlink:href="#be"/><use transform="matrix(0.05,0,0,0.05,10,0)" xlink:href="#bf"/><use transform="matrix(0.05,0,0,0.05,15,0)" xlink:href="#bf"/><use transform="matrix(0.05,0,0,0.05,20,0)" xlink:href="#bg"/></g><path fill="#5d646f" d="M24-231v-30h32v30H24zM24 0v-190h32V0H24" id="bh"/><g id="C"><use transform="matrix(0.05,0,0,0.05,0,0)" xlink:href="#bh"/><use transform="matrix(0.05,0,0,0.05,3.95,0)" xlink:href="#bg"/></g><g id="D"><use transform="matrix(0.05,0,0,0.05,0,0)" xlink:href="#ar"/><use transform="matrix(0.05,0,0,0.05,10,0)" xlink:href="#ak"/><use transform="matrix(0.05,0,0,0.05,20,0)" xlink:href="#ai"/><use transform="matrix(0.05,0,0,0.05,30,0)" xlink:href="#aE"/></g><g id="E"><use transform="matrix(0.05,0,0,0.05,0,0)" xlink:href="#at"/><use transform="matrix(0.05,0,0,0.05,10,0)" xlink:href="#ai"/><use transform="matrix(0.05,0,0,0.05,20,0)" xlink:href="#aC"/><use transform="matrix(0.05,0,0,0.05,23.95,0)" xlink:href="#ai"/><use transform="matrix(0.05,0,0,0.05,33.95,0)" xlink:href="#aH"/><use transform="matrix(0.05,0,0,0.05,43.95,0)" xlink:href="#aB"/><use transform="matrix(0.05,0,0,0.05,52.95,0)" xlink:href="#ao"/><use transform="matrix(0.05,0,0,0.05,62.95,0)" xlink:href="#af"/></g><g id="F"><use transform="matrix(0.05,0,0,0.05,0,0)" xlink:href="#as"/><use transform="matrix(0.05,0,0,0.05,12.950000000000001,0)" xlink:href="#ak"/><use transform="matrix(0.05,0,0,0.05,22.950000000000003,0)" xlink:href="#aB"/><use transform="matrix(0.05,0,0,0.05,31.950000000000003,0)" xlink:href="#aV"/><use transform="matrix(0.05,0,0,0.05,40.95,0)" xlink:href="#ao"/><use transform="matrix(0.05,0,0,0.05,50.95,0)" xlink:href="#af"/></g><path d="M137 0h-34L2-248h35l83 218 83-218h36" id="bi"/><g id="G"><use transform="matrix(0.05,0,0,0.05,0,0)" xlink:href="#bi"/><use transform="matrix(0.05,0,0,0.05,11,0)" xlink:href="#ak"/><use transform="matrix(0.05,0,0,0.05,21,0)" xlink:href="#aC"/><use transform="matrix(0.05,0,0,0.05,24.95,0)" xlink:href="#aD"/><use transform="matrix(0.05,0,0,0.05,34.95,0)" xlink:href="#ah"/><use transform="matrix(0.05,0,0,0.05,49.900000000000006,0)" xlink:href="#ao"/></g><path fill="#5d646f" d="M210-169c-67 3-38 105-44 169h-31v-121c0-29-5-50-35-48C34-165 62-65 56 0H25l-1-190h30c1 10-1 24 2 32 10-44 99-50 107 0 11-21 27-35 58-36 85-2 47 119 55 194h-31v-121c0-29-5-49-35-48" id="bj"/><path fill="#5d646f" d="M100-194c62-1 85 37 85 99 1 63-27 99-86 99S16-35 15-95c0-66 28-99 85-99zM99-20c44 1 53-31 53-75 0-43-8-75-51-75s-53 32-53 75 10 74 51 75" id="bk"/><path fill="#5d646f" d="M117-194c89-4 53 116 60 194h-32v-121c0-31-8-49-39-48C34-167 62-67 57 0H25l-1-190h30c1 10-1 24 2 32 11-22 29-35 61-36" id="bl"/><path fill="#5d646f" d="M100-194c63 0 86 42 84 106H49c0 40 14 67 53 68 26 1 43-12 49-29l28 8c-11 28-37 45-77 45C44 4 14-33 15-96c1-61 26-98 85-98zm52 81c6-60-76-77-97-28-3 7-6 17-6 28h103" id="bm"/><path fill="#5d646f" d="M85-194c31 0 48 13 60 33l-1-100h32l1 261h-30c-2-10 0-23-3-31C134-8 116 4 85 4 32 4 16-35 15-94c0-66 23-100 70-100zm9 24c-40 0-46 34-46 75 0 40 6 74 45 74 42 0 51-32 51-76 0-42-9-74-50-73" id="bn"/><g id="H"><use transform="matrix(0.05,0,0,0.05,0,0)" xlink:href="#bj"/><use transform="matrix(0.05,0,0,0.05,14.950000000000001,0)" xlink:href="#bk"/><use transform="matrix(0.05,0,0,0.05,24.950000000000003,0)" xlink:href="#aZ"/><use transform="matrix(0.05,0,0,0.05,34.95,0)" xlink:href="#bl"/><use transform="matrix(0.05,0,0,0.05,44.95,0)" xlink:href="#bf"/><use transform="matrix(0.05,0,0,0.05,49.95,0)" xlink:href="#bm"/><use transform="matrix(0.05,0,0,0.05,59.95,0)" xlink:href="#bn"/></g><g id="I"><use transform="matrix(0.05,0,0,0.05,0,0)" xlink:href="#U"/><use transform="matrix(0.05,0,0,0.05,12.950000000000001,0)" xlink:href="#aI"/><use transform="matrix(0.05,0,0,0.05,23.900000000000002,0)" xlink:href="#ax"/><use transform="matrix(0.05,0,0,0.05,33.900000000000006,0)" xlink:href="#aJ"/><use transform="matrix(0.05,0,0,0.05,43.900000000000006,0)" xlink:href="#Z"/><use transform="matrix(0.05,0,0,0.05,53.900000000000006,0)" xlink:href="#ad"/></g><g id="J"><use transform="matrix(0.05,0,0,0.05,0,0)" xlink:href="#aK"/><use transform="matrix(0.05,0,0,0.05,5.95,0)" xlink:href="#aL"/><use transform="matrix(0.05,0,0,0.05,17.95,0)" xlink:href="#aM"/><use transform="matrix(0.05,0,0,0.05,31.950000000000003,0)" xlink:href="#V"/><use transform="matrix(0.05,0,0,0.05,41.95,0)" xlink:href="#ad"/><use transform="matrix(0.05,0,0,0.05,48.95,0)" xlink:href="#aN"/></g><path d="M275 0h-61l-44-196L126 0H64L0-248h53L97-49l45-199h58l43 199 44-199h52" id="bo"/><g id="K"><use transform="matrix(0.05,0,0,0.05,0,0)" xlink:href="#bo"/><use transform="matrix(0.05,0,0,0.05,16.599999999999998,0)" xlink:href="#aI"/><use transform="matrix(0.05,0,0,0.05,27.549999999999997,0)" xlink:href="#ad"/><use transform="matrix(0.05,0,0,0.05,34.55,0)" xlink:href="#aJ"/><use transform="matrix(0.05,0,0,0.05,44.55,0)" xlink:href="#Z"/><use transform="matrix(0.05,0,0,0.05,54.54999999999999,0)" xlink:href="#ad"/><use transform="matrix(0.05,0,0,0.05,61.54999999999999,0)" xlink:href="#aP"/></g><g id="L"><use transform="matrix(0.05,0,0,0.05,0,0)" xlink:href="#aT"/><use transform="matrix(0.05,0,0,0.05,12.950000000000001,0)" xlink:href="#ao"/><use transform="matrix(0.05,0,0,0.05,22.950000000000003,0)" xlink:href="#at"/><use transform="matrix(0.05,0,0,0.05,32.95,0)" xlink:href="#ai"/><use transform="matrix(0.05,0,0,0.05,42.95,0)" xlink:href="#bc"/><use transform="matrix(0.05,0,0,0.05,52.95,0)" xlink:href="#ag"/></g><path d="M87 75C49 33 22-17 22-94c0-76 28-126 65-167h31c-38 41-64 92-64 168S80 34 118 75H87" id="bp"/><g id="M"><use transform="matrix(0.05,0,0,0.05,0,0)" xlink:href="#bp"/><use transform="matrix(0.05,0,0,0.05,5.95,0)" xlink:href="#bc"/><use transform="matrix(0.05,0,0,0.05,15.949999999999998,0)" xlink:href="#ak"/><use transform="matrix(0.05,0,0,0.05,25.950000000000003,0)" xlink:href="#af"/><use transform="matrix(0.05,0,0,0.05,31.899999999999995,0)" xlink:href="#am"/></g><path d="M99-251c64 0 84 50 84 122C183-37 130 33 47-8c-14-7-20-23-25-40l30-5c6 39 69 39 84 7 9-19 16-44 16-74-10 22-31 35-62 35-49 0-73-33-73-83 0-54 28-83 82-83zm-1 141c31-1 51-18 51-49 0-36-14-67-51-67-34 0-49 23-49 58 0 34 15 58 49 58" id="bq"/><path d="M101-251c68 0 85 55 85 127S166 4 100 4C33 4 14-52 14-124c0-73 17-127 87-127zm-1 229c47 0 54-49 54-102s-4-102-53-102c-51 0-55 48-55 102 0 53 5 102 54 102" id="br"/><path d="M33-261c38 41 65 92 65 168S71 34 33 75H2C39 34 66-17 66-93S39-220 2-261h31" id="bs"/><g id="N"><use transform="matrix(0.05,0,0,0.05,0,0)" xlink:href="#bq"/><use transform="matrix(0.05,0,0,0.05,10,0)" xlink:href="#br"/><use transform="matrix(0.05,0,0,0.05,20,0)" xlink:href="#bq"/><use transform="matrix(0.05,0,0,0.05,30,0)" xlink:href="#br"/><use transform="matrix(0.05,0,0,0.05,40,0)" xlink:href="#bs"/></g><g id="O"><use transform="matrix(0.05,0,0,0.05,0,0)" xlink:href="#aT"/><use transform="matrix(0.05,0,0,0.05,12.950000000000001,0)" xlink:href="#ao"/><use transform="matrix(0.05,0,0,0.05,22.950000000000003,0)" xlink:href="#at"/><use transform="matrix(0.05,0,0,0.05,32.95,0)" xlink:href="#ai"/><use transform="matrix(0.05,0,0,0.05,42.95,0)" xlink:href="#bc"/><use transform="matrix(0.05,0,0,0.05,52.95,0)" xlink:href="#ag"/></g><g id="P"><use transform="matrix(0.05,0,0,0.05,0,0)" xlink:href="#bp"/><use transform="matrix(0.05,0,0,0.05,5.95,0)" xlink:href="#bc"/><use transform="matrix(0.05,0,0,0.05,15.949999999999998,0)" xlink:href="#ak"/><use transform="matrix(0.05,0,0,0.05,25.950000000000003,0)" xlink:href="#af"/><use transform="matrix(0.05,0,0,0.05,31.899999999999995,0)" xlink:href="#am"/></g><path d="M126-127c33 6 58 20 58 59 0 88-139 92-164 29-3-8-5-16-6-25l32-3c6 27 21 44 54 44 32 0 52-15 52-46 0-38-36-46-79-43v-28c39 1 72-4 72-42 0-27-17-43-46-43-28 0-47 15-49 41l-32-3c6-42 35-63 81-64 48-1 79 21 79 65 0 36-21 52-52 59" id="bt"/><g id="Q"><use transform="matrix(0.05,0,0,0.05,0,0)" xlink:href="#bt"/><use transform="matrix(0.05,0,0,0.05,10,0)" xlink:href="#br"/><use transform="matrix(0.05,0,0,0.05,20,0)" xlink:href="#br"/><use transform="matrix(0.05,0,0,0.05,30,0)" xlink:href="#br"/><use transform="matrix(0.05,0,0,0.05,40,0)" xlink:href="#bs"/></g><g id="R"><use transform="matrix(0.05,0,0,0.05,0,0)" xlink:href="#ae"/><use transform="matrix(0.05,0,0,0.05,12,0)" xlink:href="#af"/><use transform="matrix(0.05,0,0,0.05,17.95,0)" xlink:href="#ak"/><use transform="matrix(0.05,0,0,0.05,27.950000000000003,0)" xlink:href="#ah"/><use transform="matrix(0.05,0,0,0.05,42.9,0)" xlink:href="#ao"/><use transform="matrix(0.05,0,0,0.05,52.900000000000006,0)" xlink:href="#am"/><use transform="matrix(0.05,0,0,0.05,57.900000000000006,0)" xlink:href="#aU"/><use transform="matrix(0.05,0,0,0.05,67.9,0)" xlink:href="#ao"/><use transform="matrix(0.05,0,0,0.05,77.9,0)" xlink:href="#aD"/><use transform="matrix(0.05,0,0,0.05,87.9,0)" xlink:href="#al"/></g><g id="S"><use transform="matrix(0.05,0,0,0.05,0,0)" xlink:href="#ap"/><use transform="matrix(0.05,0,0,0.05,12,0)" xlink:href="#ao"/><use transform="matrix(0.05,0,0,0.05,22,0)" xlink:href="#aB"/><use transform="matrix(0.05,0,0,0.05,31,0)" xlink:href="#ak"/><use transform="matrix(0.05,0,0,0.05,41,0)" xlink:href="#aH"/><use transform="matrix(0.05,0,0,0.05,51,0)" xlink:href="#aE"/><use transform="matrix(0.05,0,0,0.05,61,0)" xlink:href="#ai"/><use transform="matrix(0.05,0,0,0.05,71,0)" xlink:href="#af"/><use transform="matrix(0.05,0,0,0.05,76.95,0)" xlink:href="#aj"/></g><path d="M143 4C61 4 22-44 18-125c-5-107 100-154 193-111 17 8 29 25 37 43l-32 9c-13-25-37-40-76-40-61 0-88 39-88 99 0 61 29 100 91 101 35 0 62-11 79-27v-45h-74v-28h105v86C228-13 192 4 143 4" id="bu"/><path d="M101-234c-31-9-42 10-38 44h38v23H63V0H32v-167H5v-23h27c-7-52 17-82 69-68v24" id="bv"/><g id="T"><use transform="matrix(0.05,0,0,0.05,0,0)" xlink:href="#bu"/><use transform="matrix(0.05,0,0,0.05,14,0)" xlink:href="#af"/><use transform="matrix(0.05,0,0,0.05,19.95,0)" xlink:href="#ai"/><use transform="matrix(0.05,0,0,0.05,29.950000000000003,0)" xlink:href="#bv"/><use transform="matrix(0.05,0,0,0.05,34.95,0)" xlink:href="#ai"/><use transform="matrix(0.05,0,0,0.05,44.95,0)" xlink:href="#aH"/><use transform="matrix(0.05,0,0,0.05,54.95,0)" xlink:href="#ai"/></g></defs></g></svg>