<svg xmlns="http://www.w3.org/2000/svg" xmlns:xlink="http://www.w3.org/1999/xlink" xmlns:lucid="lucid" width="1122.01" height="837.99"><g transform="translate(0 0)" lucid:page-tab-id="DBODwIqroQYQ"><path d="M0 0h1122v838H0z" fill="#fff"/><path d="M190.75 39.75c0 10.9-8.84 19.75-19.75 19.75-10.9 0-19.75-8.84-19.75-19.75C151.25 28.85 160.1 20 171 20s19.75 8.84 19.75 19.75z" stroke="#282c33" stroke-width="4" fill="#fff"/><path d="M171 59.5v51.3c0 2.2.96 5.5 2.14 7.38L211 178m-40-63.2L131 178m0-98.75h80" stroke="#282c33" stroke-width="4" fill="none"/><path d="M131 24c0-2.2 1.8-4 4-4h72c2.2 0 4 1.8 4 4v172c0 2.2-1.8 4-4 4h-72c-2.2 0-4-1.8-4-4z" fill="none"/><use xlink:href="#a" transform="matrix(1,0,0,1,51.00478101550959,178) translate(101.05 14.6)"/><path d="M151 224c0-2.2 1.8-4 4-4h32c2.2 0 4 1.8 4 4v452c0 2.2-1.8 4-4 4h-32c-2.2 0-4-1.8-4-4zM351 44c0-2.2 1.8-4 4-4h152c2.2 0 4 1.8 4 4v112c0 2.2-1.8 4-4 4H355c-2.2 0-4-1.8-4-4z" stroke="#282c33" stroke-width="4" fill="#fff"/><use xlink:href="#b" transform="matrix(1,0,0,1,351.0047810155096,40) translate(11.255000000000004 63.15)"/><path d="M411 264c0-2.2 1.8-4 4-4h32c2.2 0 4 1.8 4 4v412c0 2.2-1.8 4-4 4h-32c-2.2 0-4-1.8-4-4z" stroke="#282c33" stroke-width="4" fill="#fff"/><path d="M431 163v3.92m0 7.83v7.83m0 7.84v7.83m0 7.83v7.84m0 7.83v7.83m0 7.84v7.83m0 7.83V257" stroke="#a9afb8" stroke-width="2" fill="none"/><path d="M432 163.03h-2V162h2z" fill="#a9afb8"/><path d="M431 256.97V258M194 290.67h213.2" stroke="#a9afb8" stroke-width="2" fill="none"/><path d="M194.03 291.67H193v-2h1.03z" fill="#a9afb8"/><path d="M389.83 300.85l17.2-10.18-17.2-10.18" stroke="#a9afb8" stroke-width="2" fill="none"/><use xlink:href="#c" transform="matrix(1,0,0,1,209.88811434884298,265.0666666666666) translate(0 14.4)"/><path d="M591 44c0-2.2 1.8-4 4-4h152c2.2 0 4 1.8 4 4v112c0 2.2-1.8 4-4 4H595c-2.2 0-4-1.8-4-4z" stroke="#282c33" stroke-width="4" fill="#fff"/><use xlink:href="#d" transform="matrix(1,0,0,1,591.0047810155096,40) translate(43.529999999999994 51.9)"/><use xlink:href="#e" transform="matrix(1,0,0,1,591.0047810155096,40) translate(37.07999999999999 73.5)"/><path d="M651 404c0-2.2 1.8-4 4-4h32c2.2 0 4 1.8 4 4v92c0 2.2-1.8 4-4 4h-32c-2.2 0-4-1.8-4-4z" stroke="#282c33" stroke-width="4" fill="#fff"/><path d="M454 430.67h193.2" stroke="#a9afb8" stroke-width="2" fill="none"/><path d="M454.03 431.67H453v-2h1.03z" fill="#a9afb8"/><path d="M629.83 440.85l17.2-10.18-17.2-10.18" stroke="#a9afb8" stroke-width="2" fill="none"/><use xlink:href="#f" transform="matrix(1,0,0,1,470.46311434884285,405.0666666666667) translate(0 14.4)"/><path d="M648 481.33h-4.02m-8.05 0h-8.05m-8.05 0h-8.05m-8.05 0h-8.05m-8.04 0h-8.05m-8.06 0h-8.05m-8.06 0h-8.05m-8.06 0h-8.05m-8.06 0h-8.05m-8.06 0h-8.05m-8.06 0H483m-8.05 0h-8.05m-8.05 0h-4.03" stroke="#a9afb8" stroke-width="2" fill="none"/><path d="M649 482.33h-1.02v-2H649z" fill="#a9afb8"/><path d="M472.18 471.15l-17.2 10.18 17.2 10.18" stroke="#a9afb8" stroke-width="2" fill="none"/><use xlink:href="#g" transform="matrix(1,0,0,1,550.0297810155097,485.3333333333333) translate(0 14.4)"/><path d="M671 163v4.12m0 8.23v8.23m0 8.23v8.24m0 8.23v8.23m0 8.23v8.23m0 8.23v8.22m0 8.23v8.23m0 8.24v8.23m0 8.23v8.23m0 8.24v8.23m0 8.23v8.23m0 8.23v8.23m0 8.22v8.23m0 8.23V377" stroke="#a9afb8" stroke-width="2" fill="none"/><path d="M672 163.03h-2V162h2z" fill="#a9afb8"/><path d="M671 376.97V378" stroke="#a9afb8" stroke-width="2" fill="none"/><path d="M831 44c0-2.2 1.8-4 4-4h152c2.2 0 4 1.8 4 4v112c0 2.2-1.8 4-4 4H835c-2.2 0-4-1.8-4-4z" stroke="#282c33" stroke-width="4" fill="#fff"/><use xlink:href="#h" transform="matrix(1,0,0,1,831.0047810155096,40) translate(58.029999999999994 51.9)"/><use xlink:href="#i" transform="matrix(1,0,0,1,831.0047810155096,40) translate(40.60499999999999 73.5)"/><path d="M891 537.33c0-2.2 1.8-4 4-4h32c2.2 0 4 1.8 4 4v112c0 2.2-1.8 4-4 4h-32c-2.2 0-4-1.8-4-4z" stroke="#282c33" stroke-width="4" fill="#fff"/><path d="M911 163v4m0 7.98v7.98m0 8v7.97m0 8v7.98m0 8v7.98m0 7.98v8m0 7.97v8m0 7.97v8m0 7.98v7.98m0 8v7.97m0 8v7.97m0 8v7.97m0 8v7.97m0 8v7.98m0 7.98v8m0 7.97v8m0 7.97v8m0 7.97v8m0 8v7.97m0 8v7.97m0 8v7.97m0 8v7.98m0 8v7.98m0 7.98v4" stroke="#a9afb8" stroke-width="2" fill="none"/><path d="M912 163.03h-2V162h2zM912 531.33h-2v-1.02h2z" fill="#a9afb8"/><path d="M454 561.33h433.2" stroke="#a9afb8" stroke-width="2" fill="none"/><path d="M454.03 562.33H453v-2h1.03z" fill="#a9afb8"/><path d="M869.83 571.5l17.2-10.17-17.2-10.18" stroke="#a9afb8" stroke-width="2" fill="none"/><use xlink:href="#j" transform="matrix(1,0,0,1,470.88811434884275,535.7333333333336) translate(0 14.4)"/><path d="M888 634.67h-4m-8.03 0h-8.02m-8.02 0h-8.02m-8.02 0h-8.02m-8.02 0h-8.02m-8.02 0h-8.03m-8.02 0h-8.02m-8.02 0h-8m-8.03 0h-8.03m-8.02 0h-8.02m-8.02 0h-8.02m-8.03 0h-8.02m-8 0h-8.03m-8.02 0h-8.03m-8.02 0h-8.02m-8.02 0h-8.02m-8.02 0h-8.03m-8.03 0h-8.02m-8.02 0h-8.02m-8.02 0h-8.02m-8.02 0h-8.02m-8.02 0h-8.03m-8.02 0h-8.02m-8.02 0h-8m-8.03 0h-8.03m-8.02 0h-8.02m-8.02 0h-8.02m-8.03 0h-4" stroke="#a9afb8" stroke-width="2" fill="none"/><path d="M889 635.67h-1.02v-2H889z" fill="#a9afb8"/><path d="M472.18 624.5l-17.2 10.17 17.2 10.18" stroke="#a9afb8" stroke-width="2" fill="none"/><use xlink:href="#k" transform="matrix(1,0,0,1,804.1214476821763,638.6666666666669) translate(0 14.4)"/><path d="M408 661.33h-4.1m-8.2 0h-8.2m-8.2 0h-8.2m-8.2 0h-8.2m-8.2 0h-8.2m-8.2 0h-8.2m-8.2 0h-8.2m-8.2 0h-8.2m-8.18 0h-8.2m-8.2 0h-8.2m-8.2 0h-8.2m-8.2 0h-8.2m-8.2 0h-8.2m-8.2 0h-4.1" stroke="#a9afb8" stroke-width="2" fill="none"/><path d="M409 662.33h-1.02v-2H409z" fill="#a9afb8"/><path d="M212.18 651.15l-17.2 10.18 17.2 10.18" stroke="#a9afb8" stroke-width="2" fill="none"/><use xlink:href="#k" transform="matrix(1,0,0,1,327.25139118500107,665.3333333333334) translate(0 14.4)"/><path d="M454 308.05l5.82.28 5.65.83 4.7 1.18 3.94 1.4 3.33 1.6 2.8 1.67 2.35 1.77 1.98 1.8 1.65 1.83 1.37 1.86 1.1 1.86.88 1.87.66 1.86.46 1.88.27 1.87.07 1.9-.1 1.86-.3 1.88-.5 1.87-.68 1.9-.9 1.86-1.15 1.86-1.4 1.85-1.7 1.83-2.05 1.8-2.42 1.74-2.88 1.67-3.4 1.56-4.07 1.38-4.85 1.13-5.82.76-3.96.16" stroke="#a9afb8" stroke-width="2" fill="none"/><path d="M454.08 307.05l-.1 2-.98-.05v-2z" fill="#a9afb8"/><path d="M470.86 346.3l-15.9 12.14 18.3 8.1" stroke="#a9afb8" stroke-width="2" fill="none"/><use xlink:href="#l" transform="matrix(1,0,0,1,465.18359232393715,292.3189243524836) translate(0 14.4)"/><path d="M911 656.33v3.97m0 7.92v7.93m0 7.92V692m0 7.93v7.92m0 7.93v7.92m0 7.93v7.93m0 7.92v7.93m0 7.93v7.93m0 7.93v7.9m0 7.94V799" stroke="#a9afb8" stroke-width="2" fill="none"/><path d="M912 656.36h-2v-1.03h2z" fill="#a9afb8"/><path d="M911 798.97V800M671 503v3.98m0 7.95v7.95m0 7.95v7.95m0 7.95v7.95m0 7.95v7.96m0 7.94v7.95m0 7.94v7.95m0 7.94v7.95m0 7.94v7.96m0 7.95v7.95m0 7.95V666m0 7.95v7.95m0 7.95v7.96m0 7.96v7.95m0 7.96v7.95m0 7.96v7.95m0 7.96v7.96m0 7.95v3.97" stroke="#a9afb8" stroke-width="2" fill="none"/><path d="M672 503.03h-2V502h2z" fill="#a9afb8"/><path d="M671 773.32v4.02M431 683v3.76m0 7.53v7.52m0 7.53v7.53m0 7.53v7.54m0 7.52V747m0 7.52v7.53m0 7.53v3.76" stroke="#a9afb8" stroke-width="2" fill="none"/><path d="M432 683.03h-2V682h2z" fill="#a9afb8"/><path d="M431 773.32v4.02M171 683v4.14m0 8.3v8.27m0 8.3v8.3m0 8.27v8.3m0 8.27v8.3m0 8.27v8.3m0 8.3v8.27m0 8.3V799" stroke="#a9afb8" stroke-width="2" fill="none"/><path d="M172 683.03h-2V682h2z" fill="#a9afb8"/><path d="M171 798.97V800" stroke="#a9afb8" stroke-width="2" fill="none"/><path d="M391 744c0-2.2 1.8-4 4-4h72c2.2 0 4 1.8 4 4v72c0 2.2-1.8 4-4 4h-72c-2.2 0-4-1.8-4-4z" fill="none"/><path d="M399 748l64 64m0-64l-64 64" stroke="#282c33" stroke-width="8" fill="none"/><path d="M631 744c0-2.2 1.8-4 4-4h72c2.2 0 4 1.8 4 4v72c0 2.2-1.8 4-4 4h-72c-2.2 0-4-1.8-4-4z" fill="none"/><path d="M639 748l64 64m0-64l-64 64" stroke="#282c33" stroke-width="8" fill="none"/><defs><path fill="#5d646f" d="M232-93c-1 65-40 97-104 97C67 4 28-28 28-90v-158h33c8 89-33 224 67 224 102 0 64-133 71-224h33v155" id="m"/><path fill="#5d646f" d="M135-143c-3-34-86-38-87 0 15 53 115 12 119 90S17 21 10-45l28-5c4 36 97 45 98 0-10-56-113-15-118-90-4-57 82-63 122-42 12 7 21 19 24 35" id="n"/><path fill="#5d646f" d="M100-194c63 0 86 42 84 106H49c0 40 14 67 53 68 26 1 43-12 49-29l28 8c-11 28-37 45-77 45C44 4 14-33 15-96c1-61 26-98 85-98zm52 81c6-60-76-77-97-28-3 7-6 17-6 28h103" id="o"/><path fill="#5d646f" d="M114-163C36-179 61-72 57 0H25l-1-190h30c1 12-1 29 2 39 6-27 23-49 58-41v29" id="p"/><g id="a"><use transform="matrix(0.05,0,0,0.05,0,0)" xlink:href="#m"/><use transform="matrix(0.05,0,0,0.05,12.950000000000001,0)" xlink:href="#n"/><use transform="matrix(0.05,0,0,0.05,21.950000000000003,0)" xlink:href="#o"/><use transform="matrix(0.05,0,0,0.05,31.950000000000003,0)" xlink:href="#p"/></g><path d="M240 0l2-218c-23 76-54 145-80 218h-23L58-218 59 0H30v-248h44l77 211c21-75 51-140 76-211h43V0h-30" id="q"/><path d="M24-231v-30h32v30H24zM24 0v-190h32V0H24" id="r"/><path d="M117-194c89-4 53 116 60 194h-32v-121c0-31-8-49-39-48C34-167 62-67 57 0H25l-1-190h30c1 10-1 24 2 32 11-22 29-35 61-36" id="s"/><path d="M59-47c-2 24 18 29 38 22v24C64 9 27 4 27-40v-127H5v-23h24l9-43h21v43h35v23H59v120" id="t"/><path d="M206 0h-36l-40-164L89 0H53L-1-190h32L70-26l43-164h34l41 164 42-164h31" id="u"/><path d="M212-179c-10-28-35-45-73-45-59 0-87 40-87 99 0 60 29 101 89 101 43 0 62-24 78-52l27 14C228-24 195 4 139 4 59 4 22-46 18-125c-6-104 99-153 187-111 19 9 31 26 39 46" id="v"/><path d="M100-194c62-1 85 37 85 99 1 63-27 99-86 99S16-35 15-95c0-66 28-99 85-99zM99-20c44 1 53-31 53-75 0-43-8-75-51-75s-53 32-53 75 10 74 51 75" id="w"/><path d="M114-163C36-179 61-72 57 0H25l-1-190h30c1 12-1 29 2 39 6-27 23-49 58-41v29" id="x"/><path d="M24 0v-261h32V0H24" id="y"/><path d="M100-194c63 0 86 42 84 106H49c0 40 14 67 53 68 26 1 43-12 49-29l28 8c-11 28-37 45-77 45C44 4 14-33 15-96c1-61 26-98 85-98zm52 81c6-60-76-77-97-28-3 7-6 17-6 28h103" id="z"/><g id="b"><use transform="matrix(0.05,0,0,0.05,0,0)" xlink:href="#q"/><use transform="matrix(0.05,0,0,0.05,14.950000000000001,0)" xlink:href="#r"/><use transform="matrix(0.05,0,0,0.05,18.900000000000002,0)" xlink:href="#s"/><use transform="matrix(0.05,0,0,0.05,28.900000000000002,0)" xlink:href="#r"/><use transform="matrix(0.05,0,0,0.05,32.85,0)" xlink:href="#t"/><use transform="matrix(0.05,0,0,0.05,37.85,0)" xlink:href="#u"/><use transform="matrix(0.05,0,0,0.05,50.800000000000004,0)" xlink:href="#r"/><use transform="matrix(0.05,0,0,0.05,54.75,0)" xlink:href="#t"/><use transform="matrix(0.05,0,0,0.05,59.75,0)" xlink:href="#v"/><use transform="matrix(0.05,0,0,0.05,72.7,0)" xlink:href="#w"/><use transform="matrix(0.05,0,0,0.05,82.7,0)" xlink:href="#s"/><use transform="matrix(0.05,0,0,0.05,92.7,0)" xlink:href="#t"/><use transform="matrix(0.05,0,0,0.05,97.7,0)" xlink:href="#x"/><use transform="matrix(0.05,0,0,0.05,103.65,0)" xlink:href="#w"/><use transform="matrix(0.05,0,0,0.05,113.65,0)" xlink:href="#y"/><use transform="matrix(0.05,0,0,0.05,117.60000000000001,0)" xlink:href="#y"/><use transform="matrix(0.05,0,0,0.05,121.55000000000001,0)" xlink:href="#z"/><use transform="matrix(0.05,0,0,0.05,131.55,0)" xlink:href="#x"/><path d="M-.9 1.25h139.3v1.32H-.9z"/></g><path fill="#5d646f" d="M143 4C61 4 22-44 18-125c-5-107 100-154 193-111 17 8 29 25 37 43l-32 9c-13-25-37-40-76-40-61 0-88 39-88 99 0 61 29 100 91 101 35 0 62-11 79-27v-45h-74v-28h105v86C228-13 192 4 143 4" id="A"/><path fill="#5d646f" d="M59-47c-2 24 18 29 38 22v24C64 9 27 4 27-40v-127H5v-23h24l9-43h21v43h35v23H59v120" id="B"/><path fill="#5d646f" d="M30-248c87 1 191-15 191 75 0 78-77 80-158 76V0H30v-248zm33 125c57 0 124 11 124-50 0-59-68-47-124-48v98" id="C"/><path fill="#5d646f" d="M84 4C-5 8 30-112 23-190h32v120c0 31 7 50 39 49 72-2 45-101 50-169h31l1 190h-30c-1-10 1-25-2-33-11 22-28 36-60 37" id="D"/><path fill="#5d646f" d="M115-194c53 0 69 39 70 98 0 66-23 100-70 100C84 3 66-7 56-30L54 0H23l1-261h32v101c10-23 28-34 59-34zm-8 174c40 0 45-34 45-75 0-40-5-75-45-74-42 0-51 32-51 76 0 43 10 73 51 73" id="E"/><path fill="#5d646f" d="M24 0v-261h32V0H24" id="F"/><path fill="#5d646f" d="M24-231v-30h32v30H24zM24 0v-190h32V0H24" id="G"/><path fill="#5d646f" d="M96-169c-40 0-48 33-48 73s9 75 48 75c24 0 41-14 43-38l32 2c-6 37-31 61-74 61-59 0-76-41-82-99-10-93 101-131 147-64 4 7 5 14 7 22l-32 3c-4-21-16-35-41-35" id="H"/><path fill="#5d646f" d="M127-220V0H93v-220H8v-28h204v28h-85" id="I"/><path fill="#5d646f" d="M210-169c-67 3-38 105-44 169h-31v-121c0-29-5-50-35-48C34-165 62-65 56 0H25l-1-190h30c1 10-1 24 2 32 10-44 99-50 107 0 11-21 27-35 58-36 85-2 47 119 55 194h-31v-121c0-29-5-49-35-48" id="J"/><path fill="#5d646f" d="M117-194c89-4 53 116 60 194h-32v-121c0-31-8-49-39-48C34-167 62-67 57 0H25l-1-190h30c1 10-1 24 2 32 11-22 29-35 61-36" id="K"/><path fill="#5d646f" d="M87 75C49 33 22-17 22-94c0-76 28-126 65-167h31c-38 41-64 92-64 168S80 34 118 75H87" id="L"/><path fill="#5d646f" d="M33-261c38 41 65 92 65 168S71 34 33 75H2C39 34 66-17 66-93S39-220 2-261h31" id="M"/><g id="c"><use transform="matrix(0.05,0,0,0.05,0,0)" xlink:href="#A"/><use transform="matrix(0.05,0,0,0.05,14,0)" xlink:href="#o"/><use transform="matrix(0.05,0,0,0.05,24,0)" xlink:href="#B"/><use transform="matrix(0.05,0,0,0.05,29,0)" xlink:href="#C"/><use transform="matrix(0.05,0,0,0.05,41,0)" xlink:href="#D"/><use transform="matrix(0.05,0,0,0.05,51,0)" xlink:href="#E"/><use transform="matrix(0.05,0,0,0.05,61,0)" xlink:href="#F"/><use transform="matrix(0.05,0,0,0.05,64.95,0)" xlink:href="#G"/><use transform="matrix(0.05,0,0,0.05,68.9,0)" xlink:href="#H"/><use transform="matrix(0.05,0,0,0.05,77.9,0)" xlink:href="#I"/><use transform="matrix(0.05,0,0,0.05,88.2,0)" xlink:href="#G"/><use transform="matrix(0.05,0,0,0.05,92.15,0)" xlink:href="#J"/><use transform="matrix(0.05,0,0,0.05,107.10000000000001,0)" xlink:href="#o"/><use transform="matrix(0.05,0,0,0.05,117.10000000000001,0)" xlink:href="#F"/><use transform="matrix(0.05,0,0,0.05,121.05000000000001,0)" xlink:href="#G"/><use transform="matrix(0.05,0,0,0.05,125,0)" xlink:href="#K"/><use transform="matrix(0.05,0,0,0.05,135,0)" xlink:href="#o"/><use transform="matrix(0.05,0,0,0.05,145,0)" xlink:href="#L"/><use transform="matrix(0.05,0,0,0.05,150.95,0)" xlink:href="#M"/></g><path d="M135-143c-3-34-86-38-87 0 15 53 115 12 119 90S17 21 10-45l28-5c4 36 97 45 98 0-10-56-113-15-118-90-4-57 82-63 122-42 12 7 21 19 24 35" id="N"/><path d="M141-36C126-15 110 5 73 4 37 3 15-17 15-53c-1-64 63-63 125-63 3-35-9-54-41-54-24 1-41 7-42 31l-33-3c5-37 33-52 76-52 45 0 72 20 72 64v82c-1 20 7 32 28 27v20c-31 9-61-2-59-35zM48-53c0 20 12 33 32 33 41-3 63-29 60-74-43 2-92-5-92 41" id="O"/><path d="M177-190C167-65 218 103 67 71c-23-6-38-20-44-43l32-5c15 47 100 32 89-28v-30C133-14 115 1 83 1 29 1 15-40 15-95c0-56 16-97 71-98 29-1 48 16 59 35 1-10 0-23 2-32h30zM94-22c36 0 50-32 50-73 0-42-14-75-50-75-39 0-46 34-46 75s6 73 46 73" id="P"/><g id="d"><use transform="matrix(0.05,0,0,0.05,0,0)" xlink:href="#q"/><use transform="matrix(0.05,0,0,0.05,14.950000000000001,0)" xlink:href="#z"/><use transform="matrix(0.05,0,0,0.05,24.950000000000003,0)" xlink:href="#N"/><use transform="matrix(0.05,0,0,0.05,33.95,0)" xlink:href="#N"/><use transform="matrix(0.05,0,0,0.05,42.95,0)" xlink:href="#O"/><use transform="matrix(0.05,0,0,0.05,52.95,0)" xlink:href="#P"/><use transform="matrix(0.05,0,0,0.05,62.95,0)" xlink:href="#z"/><path d="M-.9 1.25h74.75v1.32H-.9z"/></g><path d="M233-177c-1 41-23 64-60 70L243 0h-38l-65-103H63V0H30v-248c88 3 205-21 203 71zM63-129c60-2 137 13 137-47 0-61-80-42-137-45v92" id="Q"/><path d="M115-194c55 1 70 41 70 98S169 2 115 4C84 4 66-9 55-30l1 105H24l-1-265h31l2 30c10-21 28-34 59-34zm-8 174c40 0 45-34 45-75s-6-73-45-74c-42 0-51 32-51 76 0 43 10 73 51 73" id="R"/><path d="M179-190L93 31C79 59 56 82 12 73V49c39 6 53-20 64-50L1-190h34L92-34l54-156h33" id="S"/><g id="e"><use transform="matrix(0.05,0,0,0.05,0,0)" xlink:href="#Q"/><use transform="matrix(0.05,0,0,0.05,12.950000000000001,0)" xlink:href="#z"/><use transform="matrix(0.05,0,0,0.05,22.950000000000003,0)" xlink:href="#R"/><use transform="matrix(0.05,0,0,0.05,32.95,0)" xlink:href="#w"/><use transform="matrix(0.05,0,0,0.05,42.95,0)" xlink:href="#N"/><use transform="matrix(0.05,0,0,0.05,51.95,0)" xlink:href="#r"/><use transform="matrix(0.05,0,0,0.05,55.900000000000006,0)" xlink:href="#t"/><use transform="matrix(0.05,0,0,0.05,60.900000000000006,0)" xlink:href="#w"/><use transform="matrix(0.05,0,0,0.05,70.9,0)" xlink:href="#x"/><use transform="matrix(0.05,0,0,0.05,76.85000000000001,0)" xlink:href="#S"/><path d="M-.9 1.25h87.65v1.32H-.9z"/></g><path fill="#5d646f" d="M233-177c-1 41-23 64-60 70L243 0h-38l-65-103H63V0H30v-248c88 3 205-21 203 71zM63-129c60-2 137 13 137-47 0-61-80-42-137-45v92" id="T"/><path fill="#5d646f" d="M141-36C126-15 110 5 73 4 37 3 15-17 15-53c-1-64 63-63 125-63 3-35-9-54-41-54-24 1-41 7-42 31l-33-3c5-37 33-52 76-52 45 0 72 20 72 64v82c-1 20 7 32 28 27v20c-31 9-61-2-59-35zM48-53c0 20 12 33 32 33 41-3 63-29 60-74-43 2-92-5-92 41" id="U"/><path fill="#5d646f" d="M85-194c31 0 48 13 60 33l-1-100h32l1 261h-30c-2-10 0-23-3-31C134-8 116 4 85 4 32 4 16-35 15-94c0-66 23-100 70-100zm9 24c-40 0-46 34-46 75 0 40 6 74 45 74 42 0 51-32 51-76 0-42-9-74-50-73" id="V"/><path fill="#5d646f" d="M205 0l-28-72H64L36 0H1l101-248h38L239 0h-34zm-38-99l-47-123c-12 45-31 82-46 123h93" id="W"/><path fill="#5d646f" d="M179-190L93 31C79 59 56 82 12 73V49c39 6 53-20 64-50L1-190h34L92-34l54-156h33" id="X"/><g id="f"><use transform="matrix(0.05,0,0,0.05,0,0)" xlink:href="#T"/><use transform="matrix(0.05,0,0,0.05,12.950000000000001,0)" xlink:href="#o"/><use transform="matrix(0.05,0,0,0.05,22.950000000000003,0)" xlink:href="#U"/><use transform="matrix(0.05,0,0,0.05,32.95,0)" xlink:href="#V"/><use transform="matrix(0.05,0,0,0.05,42.95,0)" xlink:href="#W"/><use transform="matrix(0.05,0,0,0.05,54.95,0)" xlink:href="#F"/><use transform="matrix(0.05,0,0,0.05,58.900000000000006,0)" xlink:href="#F"/><use transform="matrix(0.05,0,0,0.05,62.85,0)" xlink:href="#W"/><use transform="matrix(0.05,0,0,0.05,74.85000000000001,0)" xlink:href="#n"/><use transform="matrix(0.05,0,0,0.05,83.85000000000001,0)" xlink:href="#X"/><use transform="matrix(0.05,0,0,0.05,92.85000000000001,0)" xlink:href="#K"/><use transform="matrix(0.05,0,0,0.05,102.85000000000001,0)" xlink:href="#H"/><use transform="matrix(0.05,0,0,0.05,111.85000000000001,0)" xlink:href="#L"/><use transform="matrix(0.05,0,0,0.05,117.80000000000001,0)" xlink:href="#M"/></g><path fill="#5d646f" d="M240 0l2-218c-23 76-54 145-80 218h-23L58-218 59 0H30v-248h44l77 211c21-75 51-140 76-211h43V0h-30" id="Y"/><path fill="#5d646f" d="M177-190C167-65 218 103 67 71c-23-6-38-20-44-43l32-5c15 47 100 32 89-28v-30C133-14 115 1 83 1 29 1 15-40 15-95c0-56 16-97 71-98 29-1 48 16 59 35 1-10 0-23 2-32h30zM94-22c36 0 50-32 50-73 0-42-14-75-50-75-39 0-46 34-46 75s6 73 46 73" id="Z"/><g id="g"><use transform="matrix(0.05,0,0,0.05,0,0)" xlink:href="#Y"/><use transform="matrix(0.05,0,0,0.05,14.950000000000001,0)" xlink:href="#o"/><use transform="matrix(0.05,0,0,0.05,24.950000000000003,0)" xlink:href="#n"/><use transform="matrix(0.05,0,0,0.05,33.95,0)" xlink:href="#n"/><use transform="matrix(0.05,0,0,0.05,42.95,0)" xlink:href="#U"/><use transform="matrix(0.05,0,0,0.05,52.95,0)" xlink:href="#Z"/><use transform="matrix(0.05,0,0,0.05,62.95,0)" xlink:href="#o"/><use transform="matrix(0.05,0,0,0.05,72.95,0)" xlink:href="#n"/></g><path d="M160-131c35 5 61 23 61 61C221 17 115-2 30 0v-248c76 3 177-17 177 60 0 33-19 50-47 57zm-97-11c50-1 110 9 110-42 0-47-63-36-110-37v79zm0 115c55-2 124 14 124-45 0-56-70-42-124-44v89" id="aa"/><path d="M96-169c-40 0-48 33-48 73s9 75 48 75c24 0 41-14 43-38l32 2c-6 37-31 61-74 61-59 0-76-41-82-99-10-93 101-131 147-64 4 7 5 14 7 22l-32 3c-4-21-16-35-41-35" id="ab"/><g id="h"><use transform="matrix(0.05,0,0,0.05,0,0)" xlink:href="#aa"/><use transform="matrix(0.05,0,0,0.05,12,0)" xlink:href="#O"/><use transform="matrix(0.05,0,0,0.05,22,0)" xlink:href="#N"/><use transform="matrix(0.05,0,0,0.05,31,0)" xlink:href="#r"/><use transform="matrix(0.05,0,0,0.05,34.95,0)" xlink:href="#ab"/><path d="M-.9 1.25h45.75v1.32H-.9z"/></g><path d="M127-220V0H93v-220H8v-28h204v28h-85" id="ac"/><path d="M210-169c-67 3-38 105-44 169h-31v-121c0-29-5-50-35-48C34-165 62-65 56 0H25l-1-190h30c1 10-1 24 2 32 10-44 99-50 107 0 11-21 27-35 58-36 85-2 47 119 55 194h-31v-121c0-29-5-49-35-48" id="ad"/><g id="i"><use transform="matrix(0.05,0,0,0.05,0,0)" xlink:href="#ac"/><use transform="matrix(0.05,0,0,0.05,8.950000000000001,0)" xlink:href="#z"/><use transform="matrix(0.05,0,0,0.05,18.950000000000003,0)" xlink:href="#ad"/><use transform="matrix(0.05,0,0,0.05,33.900000000000006,0)" xlink:href="#R"/><use transform="matrix(0.05,0,0,0.05,43.900000000000006,0)" xlink:href="#y"/><use transform="matrix(0.05,0,0,0.05,47.85000000000001,0)" xlink:href="#O"/><use transform="matrix(0.05,0,0,0.05,57.85,0)" xlink:href="#t"/><use transform="matrix(0.05,0,0,0.05,62.85,0)" xlink:href="#z"/><use transform="matrix(0.05,0,0,0.05,72.85000000000001,0)" xlink:href="#x"/><path d="M-.9 1.25h80.6v1.32H-.9z"/></g><g id="j"><use transform="matrix(0.05,0,0,0.05,0,0)" xlink:href="#A"/><use transform="matrix(0.05,0,0,0.05,14,0)" xlink:href="#o"/><use transform="matrix(0.05,0,0,0.05,24,0)" xlink:href="#K"/><use transform="matrix(0.05,0,0,0.05,34,0)" xlink:href="#o"/><use transform="matrix(0.05,0,0,0.05,44,0)" xlink:href="#p"/><use transform="matrix(0.05,0,0,0.05,49.95,0)" xlink:href="#U"/><use transform="matrix(0.05,0,0,0.05,59.95,0)" xlink:href="#B"/><use transform="matrix(0.05,0,0,0.05,64.95,0)" xlink:href="#o"/><use transform="matrix(0.05,0,0,0.05,74.95,0)" xlink:href="#I"/><use transform="matrix(0.05,0,0,0.05,85.25,0)" xlink:href="#G"/><use transform="matrix(0.05,0,0,0.05,89.2,0)" xlink:href="#J"/><use transform="matrix(0.05,0,0,0.05,104.15,0)" xlink:href="#o"/><use transform="matrix(0.05,0,0,0.05,114.15,0)" xlink:href="#F"/><use transform="matrix(0.05,0,0,0.05,118.10000000000001,0)" xlink:href="#G"/><use transform="matrix(0.05,0,0,0.05,122.05000000000001,0)" xlink:href="#K"/><use transform="matrix(0.05,0,0,0.05,132.05,0)" xlink:href="#o"/><use transform="matrix(0.05,0,0,0.05,142.05,0)" xlink:href="#L"/><use transform="matrix(0.05,0,0,0.05,148,0)" xlink:href="#Y"/><use transform="matrix(0.05,0,0,0.05,162.95,0)" xlink:href="#o"/><use transform="matrix(0.05,0,0,0.05,172.95,0)" xlink:href="#n"/><use transform="matrix(0.05,0,0,0.05,181.95,0)" xlink:href="#n"/><use transform="matrix(0.05,0,0,0.05,190.95,0)" xlink:href="#U"/><use transform="matrix(0.05,0,0,0.05,200.95,0)" xlink:href="#Z"/><use transform="matrix(0.05,0,0,0.05,210.94999999999996,0)" xlink:href="#o"/><use transform="matrix(0.05,0,0,0.05,220.94999999999996,0)" xlink:href="#M"/></g><g id="k"><use transform="matrix(0.05,0,0,0.05,0,0)" xlink:href="#I"/><use transform="matrix(0.05,0,0,0.05,10.3,0)" xlink:href="#G"/><use transform="matrix(0.05,0,0,0.05,14.25,0)" xlink:href="#J"/><use transform="matrix(0.05,0,0,0.05,29.200000000000003,0)" xlink:href="#o"/><use transform="matrix(0.05,0,0,0.05,39.2,0)" xlink:href="#F"/><use transform="matrix(0.05,0,0,0.05,43.150000000000006,0)" xlink:href="#G"/><use transform="matrix(0.05,0,0,0.05,47.10000000000001,0)" xlink:href="#K"/><use transform="matrix(0.05,0,0,0.05,57.1,0)" xlink:href="#o"/></g><path fill="#5d646f" d="M106-169C34-169 62-67 57 0H25v-261h32l-1 103c12-21 28-36 61-36 89 0 53 116 60 194h-32v-121c2-32-8-49-39-48" id="ae"/><path fill="#5d646f" d="M143 0L79-87 56-68V0H24v-261h32v163l83-92h37l-77 82L181 0h-38" id="af"/><path fill="#5d646f" d="M185-189c-5-48-123-54-124 2 14 75 158 14 163 119 3 78-121 87-175 55-17-10-28-26-33-46l33-7c5 56 141 63 141-1 0-78-155-14-162-118-5-82 145-84 179-34 5 7 8 16 11 25" id="ag"/><path fill="#5d646f" d="M100-194c62-1 85 37 85 99 1 63-27 99-86 99S16-35 15-95c0-66 28-99 85-99zM99-20c44 1 53-31 53-75 0-43-8-75-51-75s-53 32-53 75 10 74 51 75" id="ah"/><path fill="#5d646f" d="M63-220v92h138v28H63V0H30v-248h175v28H63" id="ai"/><g id="l"><use transform="matrix(0.05,0,0,0.05,0,0)" xlink:href="#H"/><use transform="matrix(0.05,0,0,0.05,9,0)" xlink:href="#ae"/><use transform="matrix(0.05,0,0,0.05,19,0)" xlink:href="#o"/><use transform="matrix(0.05,0,0,0.05,29,0)" xlink:href="#H"/><use transform="matrix(0.05,0,0,0.05,38,0)" xlink:href="#af"/><use transform="matrix(0.05,0,0,0.05,47,0)" xlink:href="#ag"/><use transform="matrix(0.05,0,0,0.05,59,0)" xlink:href="#o"/><use transform="matrix(0.05,0,0,0.05,69,0)" xlink:href="#n"/><use transform="matrix(0.05,0,0,0.05,78,0)" xlink:href="#n"/><use transform="matrix(0.05,0,0,0.05,87,0)" xlink:href="#G"/><use transform="matrix(0.05,0,0,0.05,90.95,0)" xlink:href="#ah"/><use transform="matrix(0.05,0,0,0.05,100.95,0)" xlink:href="#K"/><use transform="matrix(0.05,0,0,0.05,110.95,0)" xlink:href="#ai"/><use transform="matrix(0.05,0,0,0.05,121.9,0)" xlink:href="#ah"/><use transform="matrix(0.05,0,0,0.05,131.9,0)" xlink:href="#p"/><use transform="matrix(0.05,0,0,0.05,137.85,0)" xlink:href="#m"/><use transform="matrix(0.05,0,0,0.05,150.79999999999998,0)" xlink:href="#n"/><use transform="matrix(0.05,0,0,0.05,159.79999999999998,0)" xlink:href="#o"/><use transform="matrix(0.05,0,0,0.05,169.79999999999998,0)" xlink:href="#p"/><use transform="matrix(0.05,0,0,0.05,175.74999999999997,0)" xlink:href="#L"/><use transform="matrix(0.05,0,0,0.05,181.69999999999996,0)" xlink:href="#M"/></g></defs></g></svg>